<mxfile host="app.diagrams.net" modified="2023-10-30T05:46:57.270Z" agent="Mozilla/5.0 (Windows NT 10.0; Win64; x64) AppleWebKit/537.36 (KHTML, like Gecko) Chrome/118.0.0.0 Safari/537.36 Edg/118.0.2088.61" etag="Oh5bth9KZTJORuCEIPGt" version="21.8.0" type="github">
  <diagram name="第 1 页" id="hmxvpWD1JtUrOGjluxN9">
    <mxGraphModel dx="1386" dy="759" grid="1" gridSize="10" guides="1" tooltips="1" connect="1" arrows="1" fold="1" page="1" pageScale="1" pageWidth="827" pageHeight="1169" math="0" shadow="0">
      <root>
        <mxCell id="0" />
        <mxCell id="1" parent="0" />
        <mxCell id="zRWtBp2NT59PFULqCnVe-1" value="ALP包头（通用）" style="rounded=1;whiteSpace=wrap;html=1;" vertex="1" parent="1">
          <mxGeometry x="60" y="740" width="120" height="60" as="geometry" />
        </mxCell>
        <mxCell id="zRWtBp2NT59PFULqCnVe-2" value="" style="shape=curlyBracket;whiteSpace=wrap;html=1;rounded=1;labelPosition=left;verticalLabelPosition=middle;align=right;verticalAlign=middle;" vertex="1" parent="1">
          <mxGeometry x="200" y="485" width="20" height="570" as="geometry" />
        </mxCell>
        <mxCell id="zRWtBp2NT59PFULqCnVe-3" value="" style="shape=image;verticalLabelPosition=bottom;labelBackgroundColor=default;verticalAlign=top;aspect=fixed;imageAspect=0;image=data:image/png,iVBORw0KGgoAAAANSUhEUgAAAfIAAABKCAYAAABAf9Z8AAAAAXNSR0IArs4c6QAAAARnQU1BAACxjwv8YQUAAAAJcEhZcwAADsMAAA7DAcdvqGQAACjsSURBVHhe7Z0HnF1Vtf9/t9+502uml8ykTHogIRQlCKFIFRJAEYQnigWBv4L4N2CnqI8HIuKj+Ed5n/dUxIdYUJpKQjEJRTGEhBCSyaRNr7fX/1p7nzP3zmRSnTD35q7vzL7nnL332WeXtdfa+1RLgoAgCIIgCBmJ1VgKgiAIgpCBiCEXBEEQhAxGDLkgCIIgZDBiyAVBEAQhgxFDLgiCIAgZjBhyQRAEQchgxJALgiAIQgYjhlwQBEEQMhgx5IIgCIKQwYghFwRBEIQMRgy5IAiCIGQwh/yudY5sMfdIrhhLYTJJNqVqJbVmseglh5nr6Ywug5l/drpMmZD3vUlQeYxVIjPLIAjC+8FoU2zqvYObax+WIecfr8+LdzdvRjweV/5CekCmY6R9/D6/8mMDUlxcDIfDobbTH4sqx+DAAPLy8mG32wz/zGNwaBC5nlwqg93wEQRB2BttiPmXBvxklsvKytDU1KR8D8ShG3Ij+urVq3HFZ78Ee3Ej+yo/5pASEyYUPd9jIwgM7doEW24xXPkl5GOBzZZBxpAGHjwO7Xz7ZRRPXQi7K0f7ZxgWqxVdG19CUf1cOHLyDV9BEITxIE1t0WfxoqEAViydjXvuvssI2z+HYch5Bm7BqlWr8Jnbforq076AhMzK0wRuSh7NxbH12QdQ2HI8SpuPUSE8Kz/Epp4k+BIA5dfqwJoffgJzP/ot5JTWGWGZBJWDZuHrfngVWi9aibzKZsNfEARhHNRMjPQG/fl7d2NR8C+4//77VNCBOKzvkcdpFzbkn739UdScfj15iCFPH6g56f+9Z36Ewmknoqz5WOWbSYac/612J175wWWYd9l34CmtN8IyCeqQNjvW3HsFWlfcivzKFt1PBUEQxsXUz2TI+3ZhztAz+MkD9xt+++dfuGtdqyU2EOLSw2loaazzb2pYatx0dTrXemGsjRsv3Z3OPa2rP2NrnHjixIkTx87UGSaxQ5ggy+NnRyGZMfMWBEEQ9skhqHEx5EcpSgaSgztBEAThKOWwDbl6zElIP46SZjkazipIDxEE4fA5+JnY4RlymemlN9Q+lqOgkfR1o8wkk/MuCEJmIafWBUEQBCGDEUMuCIIgCBlMGhhyvtoeRzzOb7ShZYK2aMnXSHnbvFaqtw/OqauTan10OuxobZz0ODwZR62rWKNRe3O4+uM4Y/fTeaeVUX5JZ+6f3IdKvJef6VIZz+9fZeRYY8vB24Zfanvwuo5jxtXLVEaFUxpj23LE8Z+xPtGMOs5BOtqLlql5Tcmv2TZGnmlLLYXsQbU7y8C4LkVWUpwZX8uW6caPO54z5Uz9jfjr/dVLjEelpdeF7GTSDTnLXjQWRzASQyAcQ5BcjIy6ClOXGbWgHiwWmw0fX1qHE+vcan/am5ackO5Q+jsvel075Uu/5jVN7TcuRhC/yS4QTnU6735yESqLjqhTHY2ZD3PJDWA2wd7HTfVJPms4cXB6qn4oy+GILoc/HFVl4tzz0TiGPirlhv65nfyhGEJRjsNpqMAUlK+xymlYEKG4Zj0p5abS4nimm1jMFMPRKKJKlgxHjR+Ncd5jhmzws5q0TWUKUx51vs299TqHc95ZRs10LKIwsw+SHZYIJRXU/8ORKA9TSRpMuTFJyob2NeR9xF/LVWq8faHlLOl0OkBZVQG+c1Yl9b2xaYzdFrKFtDi1ftbx9Vh1yyK8eMtxePHWRbj7/Aa0ljhI15tdh0kK9L6hMIreXJmHKXl2ZSvU3rTUxlyjRrDGuomVaqKhzIUcu46XjK3Rgwn2TaCmvgh/uHkxXrqF3K3sFtE6u8W4bVmlYaw4pj6KWjczopLQ/gyPpPWKecRkmIkecWs3kZjpudwO3HPNfKr/xXiZ3Kr/uwCfnFcKu3E4zpnDZcdHTqrBH248Fi9/bTF+/flWLJ9XBJeOMoqU0qF8Sh6+d+VsVT+rvrIAnz2+FM5RUmeWe+LgpmbD/K1rFuLT8/NVhlRRyZ08rxY/+0QzPDRw4XY66fgGrFq5CA+sqIfDeAGDmX+23Zec2oLVKxfjyx8sBdl0IVsxhIJlpra5HM/eMA8VTpZddqbEjEb7UniKHttb8+wLjqn3qyh0ozIv+cEjV44Dx9Z4jHR1evoQ+hhC9pEWhtxqs+Dd9n585uH1uPpn72C3y4OvfLgWeRZjFsRamCRVLdjp3RS8nmrktOiTU5sWGi/rV5MmRZzjqoWRDoclkJvnwk3nTcWMIl0lhnkdA+9hQefuYXzhpxtwxQPr8R8v92D7zgFcQ9tX/mQDfrimV8VJYhxbzQxpjRJWRzTyrPPA6H3MMPO0HLsjhtHx1Wyfjvxfz27BFQ9twMqnduFDJ9fj43PyVP4iNMr54gXTccHMXNz3u8244sENuO+lHrQ2FqE0Z98ilLA7ccuFTYh39OFTVDdf+1MnPrS4FhfPyadyGZFSamCi0OcBCENmeIOLyqs0F0eCsszbHMdJZdvdFUB5XRFmT3HyXiMUFOViWYsH7b1B2EhGuaScRqo0CdmC2eYWJTOsX1i2RksCSwf7c781t02n/XkPVgVa62h/TbK/czR2HMNis+LCk+twGfVFHmfqPUgSjV1VXN7QK0KWsm8t/D4TicTQORhCe5cPT7yyB65iD2pyALvbiXOPq8KN5zTgy+c24eJjaEZn7MOz2aqKXFxzWh1uOqcRH5ldDI/NEGwdA821hbjx7DqUWHUHqSjNxadOp7TOobTmFcJNNVBUlINPfLAG1YVOXEoG7POn1qCA0uYTZ2bnUqe1Va9NIBZLoHMghD2DYfQFY4hz3nm7PwS/xYFPL6vH7GK7ygUfs6q6AJ85uQoeO3DKcTU4ocqJU4+pVuW5/JgS5KoPk5GhsFqwZHa5KstNZzdgTpmTc8CBmom2H1wutdRKY8gXRgeV6Y1NfXhxmxetdXkqbN70Uiwpt+C+32/DX9t8FCeENW/34o7ft2OnL4YgzW7ZhdhFE2o2HKHp6zQy9NWJCB56pQttVDdrN3bhuW1+LJpaRGU2yzXRheJicdqcLi/HHkcPWlJ9Q0M+PLMliHNnFCBKxl/HjGPR9GIMdg5iQ1+EtvUeZqiQjbAeSC7VLFjJgx4wstyVleXh6tPqVR++aF4xcmgAyJKTW5aPTy0uQWNtPr54dhP+z6lVaCw0v0iYQHFhDumNWtJLjeQa1P4n1Hlw3pIqLK7OwfyZ5SpsSaWb4usJTi3plevPasR1pK+aCnnGbkq1kG2kjSHnThCO8jVUoLmuAJZgCD0BoLQiH0vrc+ANxeELJrDiAzW4dLaH90BFVQG+eUETGvNs8IXjOHVBBY6nuNy1WKRrpuTjq+dVo23LIHqjQEl5Hu5c3gTqH5RejGaHdbj6uFJY6dg+2uYRb4CWviBf/zKMXAo8J+MPvY+9Vq03qcNayICFIqozn9pSQH56ALBsfgUaPQmEaADQ2lCIz364CR+qdcNPeV52XC2uXlKqyn/miTSIOLEUQR4c2O342oqpaMy1UipcGnJHqJ/yDJXT5gEKX8/2eBxoLndjd39A1cHsqnx0dXnxTl/IEBhdfs5zXX05Hr92Dh7/whz8ipfXzlXuY/ML1aWK4YEAuqnteB++5retJ4R8St9h55TG1vAEMXI904KCXDdqS9g5UUfLMj1qUiijrCPi+fW9WLRwCqYY1xPiNgfOnVOAP/+zGwHOPqHOXLAz1oVsw2hzQ2ZSYXEoqyjAty5oRGO+lfRJHEsXVVPfLiH9Arjz3LjwA3X4xunViIYjmNpQgpVn1sBjJeGyO/EV0mMzyBj7aDA8t6kQ08jIqwEy6aMw90taHw5EETDu5bAU0bHOqEI8xgPmEnzptGoUqFP9QjaSNoa8qbYId17Wirs/PgOfOrYAv/pbB/rjVnTt7MPXn2zDQ3/dgQf/2o5ntvoxo6YQNLnFya3liA4M4d+fasP9z23HN57chjc6w8ooTSnPxc1n1uK3tM+T7w5RR0vgpOll6Gnvw11/2o6HKb3/fKkTc5qKYQ2E8PjaDnT5Ivjt33biEfL3ck8lw3NI0BA9ToORP701gJNml8BFu/OpsROaPHj2Hz0029PR2tp6cdtT23DfM214eG0vFjTTzDXPhbOm5+FXf2nDAy/swI+f2YY1PQmc23qkv2PN5eTLG1ZctLQBd102HXd/dBrK4n78/M0hFVzoccLnj5CRN3ZJobt7SNXnXX9sJ0dLtb4dL7f5keOwqJv/+NIyqxiewfgjMVZDSvGpAx+B0YlKlX54AHTacTX47iXTyE1Xy6to0MSykwpnpaNjGJt8dpzdmqf8WltKURAMYN3usDpTIgj7g2XuhOmlCPUOKPl/iPTOg6s61NmsIuOmNGs8iv94Ygvue34H7lndgcrSPJS4rags96DCFsWPn23Hj57ejp/8fRDePi9e2xPAs2904s3OIDZt68X9f96Bf3aHdF+KRXDPk1tx33M7cN+qPSgtykGRK23UufA+kzYt7wuEsb59GK9t6cd3fv0untwwTBo2AYfLgTOOq8ZDV83Eg+TOmpoHGytWsgQVRU509HgxQLbbRl79vjAG/HrEOp2v31qi+NsWL3UyCiTvYuowLc0luPvyWXiA0rpxKc3AaDafRyNZlSZhtVppXSt3/as7oT5du3/0PsCWtj4M53hw/BQ7KmmAUhn0Y013lML1bG5gOIgAWTcbHWtPtw8Wlx3lZQ5U5Dnw0Q81Ud5m4f7LZ+CkajcqC91mFo4Y6nofLXd2BfDmjmE889pu3PDzregO6gPzLD3XY4dNXbYwS6mJx+MYolnDMLmhMDlep2UwwmdYEnDSzNtmzF75N8dhJePOZz/MQo1ObyKw8OlxI9nn1uzATb/cTO4d3EjLR9YkB1SpxKIR/J4GYKfPK1NnC85bUIJX3+nFQPKsuiDsl9ISF5prS3DX5a144MqZuPm0KpS67SjJ0eGRYAjrB6KwWqzo8/KoWMspnwVMOJ1Y3FSAmbV5OKE2B53DHI8vt7GS5nhaR42cCfIGsYGEk9XWAE1AqLuNyLyQfaSJIbeguy+Ix/+2B79c24WN3WF1UxKb5GXHVGP5rHz85Olt+D7NYldv92u9SobVF4zBk+OEQ13/1kLu5DOnJNBr13fg1SELvnxGDVx8bovC4mSQ3trai3//Yxu5dtzxu2246Ynt2O3nFPVpcL3GcK/gHDDal425ckYME71l+FEaPChZS/lko3DqrFK8vLEPxtllhd1uM9KKI59m4hbKlz+UQDAcxWMv7qBy6vytfOwd3L+2T3XQ0UecSIzck2F9bVM3fvFKB55Y3w8fawbKMBvuTR1edblgajFfs9fwzXhs8KprCnHLeU1YeV6jWur1Jiyd6kHHUAT5NBApo5m5rjULppbnoH8ohBClf+TKZJSK6s1LbdFBI70OUnp8H0M/j6CMGZJG54z/X1nfDXd5Ec6lNju2MIGnN/EgMJnPZPvrdSF7SMoA/xjLFLhr86Wpd9t6lZ7iM1N3/m4rbnp8K3YEOIaxo+rLcSWCvA9pLWWg+Yz56YursPLcRhQFAnhs/YAKV4ehlZF1MwMMKwaCJdJMS8hO0sKQK9WoJVHJJgukEkoyzgU0Ewz7A9gRpNlcvhuzKsjwUVTO+PodQ2isL8FZ0wvROCUXV59SiyW1fDMIEApG8fDzO+CpKcYVcwvVMd7a1o+G6kI05NvUM80JmnrPqPIopRyhThilkfLsyjw0V+YiZ8SIa3TXMTqR2YtpyavGFsE5o22apf550wDmzKzA+S0evLhlQMdRcRM4bm4VLpxViGlVBbjkuDK07x5AWy+NsHvDOGlGEWKROAKRGGoovNQxOh9HBs63HsjwGQn+43U9+k/gjY092Oq34Lqzm3BKowf1NPM4iW/KO7MW9t5B3PLrLbj11+/R8j1a8voWPL/Fhw3bB+G1uXDViVPQXOrCBxdW4tRaJ1ZtGECQz7MfMcz24R/zOFrdmU3HqJsZjXVeJvx+PPWeH/92ajXeercPu4K67nUKqflNSUTIMpSkkAKyoJb6QT3JdX2pGyVuC94ieS+tLMDUQjv1X5IdGrDPq/EgNCLrtKRdkwaXlvRfXkI6yx/Ez1bpy4c/+1sHutWNGVpe+V6ahqo8TCtzobrAQUkY+yth1qnxmvkrZB+TbshZ9NjoDvjJsCrBTAojC+gzr+1Bp8WN765owecWl2FLpw/9pGC5b/z97R488bYX551ch29/pAn11Jl20cyr1xuBP5pAYDiAu5/eiROOrcL8Ugfe3NiFx9/y4tKl9bid0vv6WbWgfqgOFPBH8NzGfpxxYi2+tHSKcR3V6DAqT3p2qpfkQ6ts50I0IOjy8U16Zlzypwjbt5Nxjtlh6e3Hus5oslQUb1vHMBbOr8bXz28Aeofx8JpeRCJR/PTPO9Bv9+CblLfbl7fgI60F6tSZPnoy/QnDSJvfvtY7HFWn+8fCR42Ew/j+k9vwZk8EVy5rwu0Xt+CKY4vQRuXYQ3XNM949A0FahmjJ62EMh4HokB/fe6YdhdVF+ObyafjkgkI89cpO/HmHXyV8RMrE6NEgBilvXnVzkFmHXJY4eoZIfsiDt0OhKHqo/VROaL+/ru9Fry+KZ9/uG4kz7I9iyDDqejggZBsjbU4r/FKkbpLvm86fhtuon962vBnnNefgHxu78av1w7joA3XUf5vx1TPrUGmcVo/F4tjljSrRZFURoz7XQZ2EX1jUNxRCYXEurl3WgM+f1oCv0b7fPq8Rjbk2xGmCsXpDD6L5BfjGhS2YWWBFPB7DbuqvLNNKIilOD23TQshSLGQ8D7n5eSbzwgur8LnbH0XtGTeQh1ZyhwMrRruNn820qDejabjb6GzxpVSnwwo3zZ75rVxh6gV8c2aQDDXHYLPqcdnViITfCsdnhD0Un09zhWlnjpPnsqrrvGHqTHwK3uOyqWvqXHIfz8xVOgTlIddhpxl1DAFK303p6GxQqHE6luPxm+eClB4bIhvli+8x4Zu4dG50HJrc4/Yr52Lz2q14hAYbyo/+Pr98JpztO3HvGz46loUGApwvng3r/FjtlAcayfOB+TGukKoS89j0xxH3gWpK/qe8bn36fhRNPwFlzYuM0L3h+Cq/FD/HYUOUjsePX6WiXv1If3xsDsqleDy44Pr1UfzkSJDLrmcRyRTIj47hpH2oidQLVVQbUwR1XCNmapl0Geh4dgfW3ns55nzs28gtowHPIcADE24ut9uOeDRK9cu++hj8PLibnG73BBw2ypuxraCGyyUB4zM2WjFSfNq2qDZnD51zdvtrCyZhtWHdvVegdcUtyK9sOWB8IX0Z6Sv8Sx0gj3XDSHvqu8p1XwVySCHoHkzyTgNF1XusVtJLpG/4erghO3lOm3pL4gUnN+K0ihjuer4DNJ9BQYEbN55Xjz8+uxW/e08Pet1OO/hdVQFOj9LKdSTUkzw8F+Nr6SyjQdIlnLaQmSjdZ+Dv24XW/qfx04d/bPjsn6QeniRY4bIB4dNHSmKVMwtkUULK4fy4GE3c1QiVjaz+03G4M3hJwCPKh8LJqIaNwQX3Ne48IfWKTb3Nr9xUj7MpwWdPfUQ+Je4L0WyeOmVTXTHNPKfhjkum4c5LW3AnL2kmeseKaVi5bIrx7Dc/Ux5TRlx3IOOXEqusLUFrbhx/2eZTho/9ubCcCz5WlPbx0iyPz8BpBc+dncKoI3NZhoNcBp0eKw+1/xFApUsWmuuE87I3Rg44jxSP24nbgh+D4XKp+jNQj+cZ6wra4N345jYvlYfr1XzDnv5NtuKEQwfgew7CMT4SO30cNQBRssa+JFu0rQeQRi3TIIDrn424zirfu8BGXO+RBl1GmAyULGhY4XIfYJn2kmBwP6ZNDlHhfPOal2RKPdJq9G0eEPtCHG7Ij5EG77a1y4e8kgIy3lOx8vwm3Hh6LRLdQ1izO6BkkPfgM38+kksluWpfMy398ijWgTzpEbKTyddKJKnms9lJx9upfqPD1d2c5Md3Q6fGUX8j+xr78B+HWWy0ZDc2reR+Og5XiQXdvT785vUu/OaNbjzxWpd2r9P6G134w9tDahate7d26lelSUuycJZAALf/vg07+UY61cEogAzhc2t344/vBdW16NR8KEf50OuUFw4f2U7meyIZOW6KGwv76TripRmP86Lzl6zvMWEq3NhW5WBnpmFu6/0nmpE8jdSfeUxzPTUPqsHU0swby4FKwyhfstyp+05sWwjpDbV6Uj5S5Dm5TF2npRFHxyU/c0nOlE+dbgL/2NSN637+Ln65jnVMDx76y3Z84dfb0R3k/kfxVHwzfa2f9PreSyE7mXgtepQw7Atj9aZ+rN7Yp5fK6fVX233gh8n2hv2oU1Hn3N3jx6vbvTQiTxkmU/B7Owfxbl9ExREEIbvR04EEhrwhvLy5H6tIx/yd9EtcGWxBODhEWg4IdzXznDMb6tEGWI+GtRuLOfLma8sqlM+5j7B3fEEQsgutBQwFQfphZFsQDgEx5PtBz5r1mFkzviFWN8IYRnrkMjNtmn78ghJjTf0KgiAk9Ylxb43eIHgtuSUIByIrDbk2vHGaLfMNW3wnuzbEfLez+uqYEU9jhd3GV7oOrmPpCuVumZylj56s67BMQdUL/VmtrGy4rrQz64qXI9tURzabrlu1pcImXyGZ7T1SBvCNQTpv5jLpzHi0zn8cx1gKwj4ZJUPa8RsieWif2lfMeLxt6gElWfQzWivoLdZPqTpKEMYja2fkMSr6p8+ZhuUz+JOa3EGoc8UT6gteYXIxo9Pwze/XXDADH240HghNIWmo9z61ntzmZfL0e6rLBNiMRS123HrpdCypciulY6qTeIzqyngMkHHabFh56UwsKiGxMjzNsMnGk5+D76xoRku+/s69rn1+6iCu3gfPpeC8sgysWNaCj8/ld9ynWSGEzIAMdnGZB9+5eCqm5tkMDaBn3fzoaihKSsWS7DdKFmmDb6CNqqdt9Bk8vgt92rRK3Hl2jeEjCOOTnTNycvxRlQXFwKs7fKoWyks8uPbsZjx27Rz8zzWzcNncArios/HsbNXGPly0uEx9xUiTTZ3KgplNRahGBO/0hJQPl7600I1rzm/BDy6pQw4rJiISjWJtmx+XLikfebVAOiggHqhNry+BPRjCdvWOa1aSCUwpy8U3LpmJb5w2RbUtz9b5aYGXqL2XzS+Fh5+vE4SDYJSUk9gc01IKy6AXWwe1vHG42+XAxcsa8YvPT0NB2NiD4vLrCRprCvC9y1tx3QmlsPHMnfawkv5p39kPS0khjimzpUFPEtKVLJ2RJzCjrgD9/X7s8MX4LSE4f/EU5AQC+NFzO/DUFi8uPa0JS6pzVOd5d9cwcquKMaNAf1I02zrUoqmF2L57EP2sfMgAzphagpvOrkO9x44KmuGa5o7r5fXtw5jRVIJyZ/rUUhQ2fGh2Ht5qG0KIpjl8MuT4uZX44inVKMtzoDTHTmXgUvCwI47OzmEE8vOxsNSmZkWCcPCQwNgcOK4hB6s3DyFKwsYn9ypKc3Hr8ka05NtRVeRUL4xRg9yEBWcuqcG1J5ajPM+OIiWLHKZ7VSAYwZaBCJZOK1TpCMJ4ZI0hT73GFKdB8nEzCtG2Y1i9KY6/WPDY6nbc88JurNs2hCfXdGBnyIJcl55P+gYD2OoF5td5jA6mO1k2YCGVs3hqLt58bxgxvmmPKoSV0KPPtuP5rX6aNWilY/517vGiy+5Ga5mTYlGdT9IlBLO92RUWuzCLBmGbO/wqjPMZD4Xxo6e3Yd2ekCqTlgwOsSJCYRu7IljYlE9l1dfLBeHA6NPixYVuNORasa03ot4gyTgcVvx+1U784h/mx1D4j6CNkDeA7/6xHZv6zNl7ss/w5au3dgcwu6EA7tRHWQUhhaww5KYBZ3g95nJiOin2Lep5bl0JAepDM6mzHEuzz8+eXo9YZz/W7QxSCJmyeBzb+6NoKHcbhit7sLhdqHfFsXmQbw7kSw3Axq292NSrT7OPvdZviYRAYyFMLeeX2FvVm/smg9R8leY7Yac27OSzL9R6LA6vbu7H9uGYiqeicruqdXIUvptmQbWlOXCoN/gJwv7R8qZlrqTIA3ssil718QItX7s6hrFml9+Il4RN/4sb+tDl5/5lppCEt3f2h9SlrALuUoIwDll5at3lcaCAeshAhD+WwfOtBFwuOy48vhpXf6AKJ9MMNBiNIUHDae5I3Pk6h8PIz3WozpZN5BQ44aK6GIjpeQKZclVnuhroN2WQxHBddQyFUED76TnH+2/JzZm4SYHHCSvl36vela5R7biftuzxcXs74ThQREEYgQeJCRQVOvm9xAiq6zJa5ljL8NkeFqVUieJBoxo8jqtYeF8Lerxh2N124xsMgrA3WWnI+VWLbICS1z8t8FNnueOX7+Bzj27Clx7bCndFMW4+uQwR464t/lqRg6bjVj4VP9INj35UXfGd6cbNa6PYx3Sb69U5opgmr65M5ciPAcWpHfUjP4w+Bbo/WCHzfqr8kzAYETIQoz+wuWX5SdUvWtWSh+GnFuRtdpORqKPQ6pm/rMjR9KBSEPYmKw05P/4RI6Oc70g+Ha6uZRmKe2e3F2u2+9BclqN1PnXKApdDfeRA27Pxu93RCH9MJeG2Ide42DdKlVA1mDWhlzwH57qyYSjE1/vYd/LqypyVc3vbnTbkkGXWZwm4FNSSalBm5I/ims+9s08ulYE/fhHl7VGFFoS94ZsktSjpjzY5Sd7cI089GDLGm6Rf+GFHdVaLvZW8KSVj/htLtUYrCeSRLMZJhn3Gh58EYSxZYcjHnrqKByLojlpQyd/WpI7i8bjwiQ9WYUGlCw4yWC31hThlaj7+0e6DlbZjCSuaK5zoGwxzdEW2DI6jvhAGaY5R5Uze8sWDHZfdMnL92OXgz9DqGUgCdkyrcKC3l+8/SI9KGvBFELXaUOTkywIafskPjc3UAI4/cuOiQZ1dNao23PXFLvQNhxDhSwpmwQVhH6jT5kq6rBggPRG329Vnitlks/jwq9O5z/DnmkH6RK2z8FGgw87btCdPJDge7UdeBJt4C+pLXPD7wslP7QrCGJS4HO2oWZZpgQl7LIzXd0cwrc6tul4oHEHE7sTK5TPw5A3zcfeFDdjd3ocH1/TqmXqOA415Vmzc41OjabNzZgOWcAgbexOYW+dSp9fj8RjOPKUZT1y/ADd+oAxlJUX47y8txG1nVvE5QDgLc9Boj+Lt7qCqJ63cJpfu/hC8cQvqSvWd9BYy4p8+twW/vX4+PjorHzNmVOB/af3KJcUqfsJmU8pz8y4vIspn8ssgpDdav5Bskah09/vhTdhQXkDWmTUF9YvWWdX4zfUL8YMLqhGLO/HIjQvwnxc3wE2D4Zs+Ngu/vW4eTq3LwYkLa/CrG+bhQpJLBYU3lbqwo9uHwYjIoTA+FhLAQ7ZJbMxeeGEVPnf7o6g94wbW7kZIepJaRJ6Z8ynUuTMr8IWFefjK49swEOVTqkC+xwE3DYVjVJ5eL80o+VOi5D+lqhA/vmAKrnrwHQxTGhxXnRpLs2m5Kif/U6a3Pn0/iqafgLLmRUbo4cFpnn5CHT5cEcNXf7cLIZquOl02FLisuh7UdNWCSDiK/kAC8+ZMwc0Lc3DVf72HOE8vOPQQvuSky0AK0e7A2nsvx5yPfRu5ZQ1G6MExVqT5jOTl50zD1EA/7ljVrfLtcTvg4Rm6KgTtQ/F8wYi6lJBbkIf/d1kDvvjIRuwO83BEt/OhtnfCasO6e69A64pbkF/ZknbyIkwco2SOZt2fO38aXDs7cde6AZpd0wzbYUVRjj6FxVLAUhWLxKjPRJFHEwU3hStlw8mQGw5G1VsmHU4HvnJRC956tQ2/4c8fiwwdtaTKkL9vF1r7n8ZPH/6x4bN/smJGPhZWqO+0DcLrdmFeBd9dzd8ItsAbiKFnOIJ+fww26nxKyZNbMqMEa9f3YMi4lMVdKVu6E+uNl9/uR0l5AeoKeYYBhENR9A6HlesZipKLYDAUpzqzYmlLEV5Y360+88r1OtlwW/NNa6v/3onq6gKU8SM85BcIRSjfIXRTGboo/1wGNuJ8Xn3B9BK8u60P3TQdN0vA9SAI+yI5SCMFQROBVaQvZswoQ5mDfRKIkFHuJd3SS3LWreQthAHj8TQvGfNu2mYZ5Dg9JJOhCCt1C/ILczA1N4YXtut3NgjCeGSFIedOZjqGRz6hQBAPvtAJv8WmX72qPjmajGPeccrv5fb7/Pjv1weM2uLw7Dm1zkrI2z+EH77UA/3WaK5PrgiuLy0+XBdcT2wwt+7pw//+06uuO/OZAV1f7y9j25tzuLtrCL/8Zx/cNn7FC+dL5187HYf9ePZuiYbx6JoeREZGyHxpxlgVhHFIzqb0AHZT+wAee7MfLjfLVzKMhU3LJnWWkXWeSFA81Vd0GPtxksUeKx55bif6o+9/PxIyB62Jsw7dWTZt7cOrO/3j3pVsGgGLLYHn1nViJ42e+XOkZlQz/KiHlImVjPLrG7uxqV9fMU5FKSJeIo5INIan1nZhgPZh3+S76Scbyh1Z6NXr+9HuixmPECZJ3SI7jxdp9r55IMqmXvmlTTGEjCEWjuEv63vR4dVnefTg8dBgFbOlbQAv0myckcGksC+y1JBzt+KPEtCq0tWpqpzgDqM6jR4Vc7C224fTHY8GeOAzUgmjMGcibLg5Dl+i4D9dwxw/PWpMDTi4CPTH93ikwkXgvOo8E0ZcXmd//hOEg4WlRcma4ViKDlfRpsqtIOyLrDTk5iySu4c2PKNR2+qH1DgteVXHMjqVCssSUso6XrGVgU/BNJFcXzokXSqL88FOm+ZUTHnQeU6uqzD1O9rwC8LBYEqSUrNakA6TVFkUhL3J6lPr2giRG2uZlWI34lAV6VGxdro7jYl/FDO2/LoORqP8jPpUA6MxbrIZnR+z3UczOs5YN/4+gmCyL5kZcYehakftT45+jBBBGE2WGnJBEARBODoQQy4IgiAIGcy/ZsjV3UAJdcOTuMl3Gr3UTTN+vHR2Zv55qTYVe8fLBJcsi2a8OOLEiRPHztASI4vR2mP/HMab3RKI0S6rXliNz3zzQUw5+ZOUCX5TijD5sEDwdbQEtv/1URQ0HYOSpnk6KJOIJ2Cx2/H6w9eh9cKbkVNafWhSnSZYrHb8/SfXo+Wc65E3hd9OJ9c4BUHYF6aSsyDYtwdzo6/iZw/db/jtn8Mw5HEy5BasXbMWn/zUp+Hnr2ORrzYfQrqQiIappSxIWB2qbcx7ZTLGlFBGEyEf4MihdWvm5DsVq5XKMAzY3VQG83U6giAI46EtKN8amYjHsWL5Rbjn+7crvwNxeO9apxl4NGZBKBKDN0rr/M4DDqCkxrxrQ3g/oUbg1uShVYRmtd5QAsEIny2xwO2wwOOyqk8rqptfjXZKt+bScqSXMSpDjNb4+g+/Mne8RwXTFc4/f/88yt8hoE7Beefv2TN8B7LqdplSGEEQjjxsP0kp2JSe03qvupDfKX1gDtOQs4JKwBckQ87fbI7FyXgwpJk4NVFQkwPVPVc/N2mY2iQQpiUNttiPP5vodtnhslnJqKjYmnRrKyWN/ElUljFaIzmz2dgQ0gSXZuaZIlvcJRMxGoxw9yLHWed30auhCJeBy5khZREE4f2DjTirBqfdippit/Y8AIdlyBmeLUVJ0/qjWunGaTuJaKjJhJs0RoacB1jUPAo1IyRjbmdjQuvpDpdBi6a2eiPP0mYQyTJo9LPAxgaROecXBEF4v+B387Ou4K/mFeboD1UdiMM25LwbnzXkmfjhpSAcKbg94tQ4PCtU18nJjz+gyLNa/phJOhuQVHHk9RHjzXlX+ebw9M2/iVkMXqhy0FIVZaQcgiAI+yOhZuUHw79kyE0OLwXhyKIbJbVptPnILCPCxm+0fJkbmVEOnf+9W0EQBGE0Y3QbLfhM6sFw2IY8lQlIQhDGhWfkIl+CIGQjB3s5cUIMuZAZcEsfpFwIE4DZtQ62MwqCILDeMCcwYsgFQRAEIQs4uCvpgiAIgiCkJWLIBUEQBCFjAf4/0BYvY/GQtwYAAAAASUVORK5CYII=;" vertex="1" parent="1">
          <mxGeometry x="289" y="471" width="498" height="74" as="geometry" />
        </mxCell>
        <mxCell id="zRWtBp2NT59PFULqCnVe-4" value="" style="shape=image;verticalLabelPosition=bottom;labelBackgroundColor=default;verticalAlign=top;aspect=fixed;imageAspect=0;image=data:image/png,iVBORw0KGgoAAAANSUhEUgAAAeAAAAA9CAYAAAB1A7rQAAAAAXNSR0IArs4c6QAAAARnQU1BAACxjwv8YQUAAAAJcEhZcwAADsMAAA7DAcdvqGQAACZbSURBVHhe7Z0HnBzFne9/M9OTdmZ2dzZoVxu1QauVhHIgWEYIhAgmGJAwYMCk9zDW6TA2wTZyOAMG/Hl3BPPAJHPYZ85nHMBgZIIfSQTLgFAEpZVWedNsmpmd3O//r+remV0lg1faVN/dmu6uqq6uqv7X/1/VXd1t0QkoFAqFQqE4pljZ/gpHG8oSDz34zMizM5yRMjacJcxsJwqFQvFZOJzusMoFBeopjik3FYMPnQ89xedl+J4TIXiiDGJLFGX4GjGZ78M1JoVCoRCwihBqonfloFhSqZQeCATwxuuvIx6Lko/FCFIMNvK0pRDpiSES6aFtHVaLFV6fFzarjU7V0D5XwlBRFi30F+7pgdPhoHxTn2+Yyli4J0JlsMNKZRjqda9QKIYA3GEnVVFXV49Zs2YZnmnIACf1t1euxOVLl8NZOYe8Dm2tFccQPnFiCQQ2vwu7vxRZBeXCwzQA/DeUkSNFyiV1Gna9/QyKZ5wFuzdHBg4nRDGs2L3yGRROXQiHL18ZYIVCcUiMsQepDh3xcBcumJaN+++7TwZmYEmSAX7rzbfw9bueRtmib9KOKSNIMZhI80unkM7HthUPI7fuBBTUzpaBwwTzUq3VZsd791+GqZfdZXQihhdcDotNw98euBwTFy+Hr3j8cB3EKxSKY4BUfdIK97TtwfTQy3jkoYdEWCZ8PVBElq53RbnBdnzvNEWdIV7CuD8/HB2XgQWR1nU92Tds2DkuCi+H8flQTjnljoEzdATpb7ariTjrwQMRk7Aomhwvq169QqFQKBQDSoqN8UGQs6CV4R2SiCsS6lqnQqFQDGvEhcyDYDyGpBiqyHvBxDC2w+a94OHM8C+BQqEYPA6uwK1q9Dt0GeqznD8Lw3nWsJrxrFAojgZqBKxQKBQKxSCgDLBCoVAoFIOAMsAKhUKhUAwCA2yAdaTojyfd8As9eOo1r6doXfqZ29KZ25lQzF7/pJ5EJJ5APJk0/DgdIyJhxuvvkuTkMXi/A5+/6o0rjpbOG+dfrrOfGZYO73Ui3kH8D+LM4x0L0seVdS/quE8Z5DrXS2b9U40Jx+XPJL0PxzHTMdPg9A/+bNtAY+YjXR7eNh1vy/PM+SkZ68V1J+XDlkj798bjvbnsvJaRhmJ0IWWiv8vQMQfI2JFdfw6Ik9F+zLbHyyTptp543AhL+/NSMfIZUAPMIuPUNOR5yXkcKPDa4aAjSFniHylUPKflUPNaLBlyZ9PsuH1xPc6f4KU9zQC5PJyAWimORbgjFE+3iHcT+32UX3J+ym8euXyvg5YOeCnzBz2M8EsXgDcPnZtjQ2Yd+7I0qntyPiqPR5MfRCB/M488uYvjZ1M8Lq/PoSFpPDd+IFxOChBhtE5Lp9OGHNexmb8nlJKRcy5Gjsizhmw6vpQBeaYZC53LhVPGwE/KNCq8rEjRTh43n187/C4bJUill8n1opTdaMSQGZuF2rudJIW3pTyJl/f24cjycUQZyghniZXoKKkqwHNfqza20+j9hVQxIhnYETDJzLzpRXji2kl4kt11E3H/xbU4aay7jwizATjcDF8zhJcepxVOaiRp83FkYdc0G6ZX+pBjF1k6ADmrVYYUFnlx3xWT8Ytr2E3CL8y8k/vG3Px/SDlbqHd7qNIcO+XOx9HhcDhw64UT8ASV58lrJuKJqyfiewtLkCXCZS49Pie+8aVqPHq1LO/Pr56ApSePgecAaTDyLnaziDHy3OPG4L4rJ+Hm+YXQDvVw2wBivvPaatNwzaJxRp4n49Gr6nFahZOMsjkKt8DtsGNOpRuvb+qE1Ur72G249NQqPML7cH1cXY/lZ5Qgz8FnTKatGI1IfcIyUFrux8OX1CLXcThZ7isnsqWlERJ4RFGixkXyVjXWi/H5DnF8xmazIZc6hummJ7uTh9OPipHDwBpgwq5ZsXNvJ254bC2uefITfNwF3HBGKbKtfGkHNNJKicvK7Hi9P3EaikUSScQNw5VWknI0E03QfiIlEmGKE6e4UXIJIy2+fGNz2HDNaRUo9VJ6iQOPIV6JKEihaV8Xlj21Hlf+fC0eeL8NLfs7cP2TtP3oejz4XgvidMykyIrMD+eBj8lbCVomOZwOIfJAKzIW502Wlf3ZHRuo2ZLhcWkWPPPKVlzx6Drc+vxO1NQX4fKZ2Vxw6NQ5ueX8WkzKtuCnf/gUl1Ocu1/eC4vDCQ9frugD1z0VhP5TVJbF8ytxerUbO5qjcFHcY6Ek+HxyvmdOKMAZlS78x+83UbnW4+5X96Kphzo+lAXOBRviiqo8uINBfByQr7z82lnVOL/WgV+8tBVXPrYON/1xB7rIkHupUyfSFr+KUYchM+zsZAB9feRetmBeCv2S5PabIP1i+hPUFlhPsWxy2+b13t0MWO/EMhzrCVZFp80ei3PGZ6EnTvvTNueBB9x8rCgfi9PlBPqlpxiZDLgB5v4bG6muaAKBrhhWfNwMh8+FIifg8jhx2YJKGp0dR6OzSVg6bwx8Nu4LsuHSUVWWjR9fTKM3GrF8fXY+smmkIiTRIi8pz6wvxIOX1WGsnWNT/BIf/u3SehF/6YkFyKH4Ywq9+P4Ftaj2O3DzBRNw38U1yDXuvbCQyxGp2fz4MqYF3T1JdEZSCCUonPLeHUmiK5KA7nLhzq9MwAnFNJTm+JSPmpp83PvlSjG6vmRRDc6vy8KFJ1OZrp6M204ZA7+T0+XLtBYsOr5UjEQf/Rqn4RBGLH0vaGBbWLqjwulSY6YG3k1l2rqzE6t2h1Fd4BGhM6gOJ/t0PPZqIz7aG0WQ4qxr6MBjb+xFW1yH12XtdT43KSe3BoeNTK3FirfX7sd9f9mFxiCP+I+NhjBLlZ3lQDISw+a2mDg3a7YGsL41Jgww58SmaTh7UjZWbe5AjM6huyAHF9Z58MSKHXh9ewhdZKwb94XwyCt7sJvyz4I/4MKvGB4ctO2ZksZL1i7AuLIc/HCJvJq07HjSL9Smue3mlubhnjPH4rjafDx01SQ8fHEVxhfYKYznVqRQXOjBD0iPPU56id1jV9fj7FoPrj+zGmdUefHFmWVCZy0ax1cGSbdR25pAeuVnV0zEgxdVYwqlJaVaMdIZcB0kLu6QgIveHY2Gp1fnIBHsQXOPDp/fg1oX8OKaFqxY14F5M0qweLIPFlKYZaXZ+M5Z5Qi1BvHnjQFU0mhmTilF1qWqrKn0i8ukL6/aj6aYBUXF1DjOrUBnczde2hBAHY3yrjs+H/GeGN7Z3E4GNUnKuB2vfdqBHpk1whRqNihpl4m5yeWI9sQRsmqYV5PNpaLdLVgwuYCOQYaLjHWh34WLT65AtZbAik8CqKofixtOzKe9rTj3C5VYMtGDl9e04u1dESylUefE3EPcUx4A0gadCkD/YoIHnQN/jhMTx9CotTUsylZf5EFzSwjb2qPpstJKkob5RaRYHvzqhF73s8vl8pyJdI4sKbS29yBMhl3UGx/kmEDlokN9vC2AsNuNH3y5Cl8Y54WLOwVUz9yBYnKz3ZiQZ8f7W7toy4LJFZTnriDe389GOn2ueSTCNcXrjOmvGE3w+Wb5oaVcNUjLQUlxNm4hfRQMkD5aH0BJ3RhcT518vu5jd9ox67giLDspHys3tKDL6cF3F5XCa7VCczpxM+1n6w7hZdIJusuOCOm/bR1xrN7ege2dMexuIp21thUNnXFxLEu2Fzce78fKTwOIejxYdmop/AdcjVKMRI7CWbagmozpPZfV434arV5AI8RfrdyPTt2G1t3tuINGUB/uoFEZKdS3GmlkNtYLjRTgvPoCBFtoJPb2Hrz0YTN+8qft+NueqEixpjwHN9Ho8ulXt+O1HUFSmDpOqstHy95O/P7jNnywrQO/+bAVdZU5cCXivQb4/U9b8erGDkREKunG9Y+iJ5LUUAI4YWIePGTQLJqdlL8bK1a3ycvSlOSmLc24n0aPL/y9CU+9K/NQnu3EqTUerFi1D6t2dGDlumZxWfTMenkZ+KjQWzwdVpsNi0+pxANfrcN/LKlFqqMDv17Lhgk0orWjJxJHIsk79K2T1n2duJPq/Q5yYvl8g1i+sS1EoRTXNFR9dzuqyDtiQKA9iO/+rgEN3cB1p4/Dj86rQl0uT6qSVTqpxg+0dWB1ICHi53nsCIWToH6SQvEZseD4ujzEAx344+pWfET65bmPWmiUmocCccWOZC4Rwz2/34Y/kC549J39yM/JQq6LBgb5bvitCTz97n48T4OF/1rbCVs0jq2BGHUi27GdDPHu/V14iTrm28kAs3Tr8SjufX47HaMZj63cB6/PiWzjSppiZDPgBpiFs7Ujiuc+2I//fm8vfkhC+trWkBhleLwOXH9WFe4lo3D3xbU4vZqML/UaORe5PjsCHT0IxaXgRWJJdMf4kq2O/Lws+DVg2/4obdGoh0YxXhp91ozz444l4ymtOiw9aQy8NCpyaobg8sgmw1KIRpOxfTjk5VU5Mtq1qwNtmhMnlTpQQcbV192NNe3iLo1ILRRJIE7ROW6gIwRd0+CnzOZlaVhMo+OfUP7uuqgWswrtyKLesMzJUUBkWZZPT6Wwmjohz1Kn4Oev7MDtz+9El7BLFoSjCfjIONmprvrDMy/lSJprnf8oTmaHgdeNYxxLzBy00Qj8Zyu2Y/kfGxCh0fC184rhIRtspTr/QrUHb2zqpA0p0t09CeQYs/AVis8Cy1tOjoMGEn78cEkdteFa/MsXi+Aif49TRBG3Q7aHEqwlEKTOPmOlphEkubO4nDitLgd1ZT5x6XlHqxxISDh1cZ2QfkmXsVcoisYw6xRqn6RP+F7xIDQzxSBwVNRTNwnUqq2deH9rN3Z1JsSkArKZWDirFHPybHjgzzvwkxca8XpjUAog/QTDCXiyyDBYhY8QZr73SDKJjzY04fXmFJafU44skWMLUvEUNja04Z4Xd+DuF7bTiLkBy1/YhX2GIIuEeSp/rwHhJTmLNJ7yPqx07C//emMR3AJ0MrAxvLM9hIVTC3AqjYTf3hhAjNKUxt1ChswqKlHcG8pxw0qtJxjW0UMdiN++tRt3c/7Iff93W/HERwHaRVb5UbvsqfN9Kh0N+7rx3rYu/G1nGNGE2RnR8cn+MAoKvBhf6BDx5D46HHYrSsbmYvn51Vh+numqcPv5VZhPSkTCadMvObkn1ZlII7MuBxazltxOGx9duN0tYfx1SxfyqRPmstOoo9CD8dnA36msXLtctWt3dCHpycK8Mpcxw4DzmoJGHTTN6GiYTjEa4fNuSDEtTDkzpYG/37p1RwD3km65+8VG3PUn7sjuwO4e2Y56dyBYJo0VODQrQrEE5kwbg++dXYHw3g78Zn2HDMzcSezFf2K1D73pKUY8R8UAswY8QK+RkFlpFOvUUojZbBhb5MG0MW4KoIgU+UNSmJWVBbh4RgGmjMvBsjMrMb/SLWQzEU/iqVd3oNvnw9dn54lndz/Y3IbKklxMHeMgJWyFL9uF6TVecZxYMoUoGbo5lX5Mr86Gl/x6Zdy4Zyh90utsVITxMrYZoe7Jpvz1kw7Ujy/EOdVOvLmls7d5cPM5cWYZrpxVgFm1+bjypEJsbmzH9rYwPtofwfwp+fDabSJ/x1XloCLjstKAK36RtJEmLXg0K8yuYejN5eqNLVjdruNb51TjnEk5OK7cizNmj8UPzh0HW1s7rntqo3D/6xem+wTPre8S+eXJJVMqvCjy2qiz5MTkch9Ksm3ifr+weka9DTSpRBKXnl6Lf503FtMrfDihPg+Lp+Ziy64uBKM65tb50dnUhcYuvqfGdWBBqLUTz24I4n9/qQaXz/RTOT2YNzkfP1pSjSk+EkQBxx3g86AYRkiZ5efHJ5Z6MYVkZBq1h1KvFR9u60BucQ6mFbngpPabm63h+GoPdb7lnty65P7Sw/zNyXbAHk3g12/twQOv7cKLpC9iQufIF2zwxMi68mzMpONU++2UgtzTaJ5iRXYzTQ/FSGbADXCMen/BqPnYDQsXOzYFOl59fy82BG34IY2qloz34u+NnehmiSZZ27ipBY+/14JTyBgs/1IFHMEoNjZF0NWTQCShIxlJ4N9X7MSMmcWYW2zHpm1teOidVpx+fCm+TyO1W04egyiNvFlwI6EY/rSmBfPnluCGOfliVrbMA+dG/mbmjX/Zmw19BzUQEd2AY+/f04ktMRsiTR3yERfehwOI9ZSPonH5uO3MMrQ0tOCxVW1IUQfgl9T4Pgla8B3KG+fv+BIn2kXrNXq9RwNKmFPv6uFHIwy/PlC+kwnc99w2PP9JN5bMr6S8jcM5NW68vr4Je0IJyjsZvKScwJWkdX78Qk7oSmHhCRX4PhnqE0vtNIr24btfrsZ5dfySFDruQHcoMrBQh+2vH+yBu4iOeW4VvnlKMT5esw+PvtsM3WnHbBrlvruJFB1sIj7XAXc4fvVqAx5+vxWnzCEZObca187KxyqSi81BeZ9Y1Ae7o5h3xdBEyCz99ZCx7KKNZWdXySs+1B7OrHLjky1tePS9VpxK+ojb77+eXIJET0zoA24fbWEpQ/w8AHdAO0lP8QS/MOm+XH8WvkXpfe9LVfgBtZGfXlSNCWTA+SmI1z5uRofLi++QHIs5prRvWw/9GCKoU8PjtPiqjWLkY0nqKf2NN97EDXc9jbJFN5JE8XDm88GKjF+txrqfn6+Tpk1aKtPs8GxbfrbWZrWQuqT4pCjttM5xeUYrPzPHMfkeJb9MgZ+t5Wn6mugq6IjEdWg2c5vik6XhHLPCtWt8V0Uej19Hyc/rcu/WKfQy7yBUs1jKI8rcmXnje8sJ2s9O+6QvEXNcG+6+djJWv70Nv9kk72fzHksXT4Rz527c8267yLtGxxH3tAU845afF5Rp86idy8SPIcmUM49xIMIo8D+NZBv+8n+RW3ciCmpmG6EHIspgGJIYlZsf8E/nRZJpaNioxvmxK/rjehaX+wlZM/3h/fhckGGnys4M12hfrfd+Mu2bUSZZBkpRs+NvD1yO4y79MTwFlUboP4Z8bEseMyE6BuwDccncSgHl5Xn40cIC3PbrLWiTk0oNaA+qOxZnfiaT97EZMiJzmM4nc7hzwehWG1Y9cAUmLr4dvuLaI8ZXDF3S7YCkn+SJr5ix3As5o9PKukm0Vdrm9ktRhL/QSbTCcyxYh9mpwXOLZiMaIz++HXXJgmrMy4/j27/jeRc6igu8+D+X1eBPLzfg+QbSHXRUIY+UpoMVBu3P7dBp5xA+Jj97TGnzsfq1X8XwIVPXhgN7MLH9L3jq8YcNnzQDe4ZZeEnxO4TxlR4suFK05C8LqdvOccis2TQyjqYhkksnX7J12CiMTSnHt4l9ZCpWEcYKX/yRl5O2XbSPkywy78HwL+/itsv0J40fg+dumo4XbpqBF79Fjpe0/Wda/uclFci2c/Oj1EngRd5FfiRsWGvGF6DemcAbjfJRHoYXbMTYsXHlfNlJSYtyUiSOxx0FzpsIozxzY+MuwkBXO2Mel9ccmnaA8e0PKxKnQ+bPwXXNeeY/TqIfIm1Co7rJcmiyTIZLn5uD7DgAiC6VUS6+f8uXA1l+WHWldCvqK7OxcUsH2sn4mlcluMMmlrw3KVOWqSzaj+/PmWkpRi+9Z59lntqJ02EXbdTNuoScbA9SVlhm2J/ljmVJ7Mb7kEyZbYVffmPK1uqdHcgq8OMP356Fv942G7+8qg6tjQG8tSss2hzHcZLh5bbDybHu4HbIiXGYeUxOUzHyGdAR8FCEeyJspCvynEIhS0/jh4Q9GkugsT2S1t4Gvf0XisPvS85xADtaY7Rt+BP8HLAlFsf+II04B7jByNEjZ+sfGwEPRWQZ/rkR8IHIM8NJ06kRVzkY7uyIcyP8D9/5+DyoEbDicPALOIT4kfp0ujWU5zpFJzFC+mFHW1R07pXMjB4GZwQ8RImQkd2yP4xN+4LYzG5/EJuaQrQMUeM40Pj2gSoy0BVFAzUibmFcrYYJQAsZ7qZQkioxXdmKo4u4aC6qm5e6uFIijC/7kL86E4rBQHbu6ZdEMRpNYCvpls2kc3YGYr0jZ4WiP6PCAEvxp5EY90BlO+GmYvjJsP4Y0SS0Yqj4vv7mfqpne+zo01nis8h34cx181ehONawFGboEaFraDgsHq9QKA7OiDDAPBISjv8ylzwkMhqF2QykCZVr6VCGjXF6S4QY26Zql4bW3F+uS/Wfud/QRZaYlmZ9GXUlQsS6fGJWxBF+YrVP/KFBOpeMeUYY9jHLlZnv/k6hOBxpWeFJgMa6IVNS/tLb/JdGSiP/8kuDpIqVfpnpKBTMsDfAplD7PBoK3Vwc2uYphkLIpaCb4k7RUF7oEi/zMBtB77hJ3DeU92mko3XaNidOCCfiUexMPzFZY5hUIxU5mUrCn+1AroO7DnKGsXD8J9ZlffJVs4pCJzTe5h2FGxpwvRf5nfBqYg5qn9wZqk7+kxyMzXPBJ2aYmrHMmArFwZESZUqKaPAoznXAY5PywxMvzXYiYos2kpasXhk0nPilONleO8bwq9vEfgrFCDDA1Dag2zRcfTo/a+sm2WYzybOxrfA4eNau/NYmx+MZEgvmluHMWg+bUvHHDWRUYXfilnPHYVyuRiXnGpDl1zQr1RV1JozqsFKn4uL5FTihWKPKk55Dpaa8Pje+ubAM+S4z9zJv/B1o/hRjOp86ZkwpxpIp2RklVSiOgBCUtGQVFXpx06Jy+MXX2aTW4CbBEy89/IY2MqiGr4jPW+JpDpJFGZ/T0uEv8OHmhcXg/qA03orRzrA3wCzHY4uyMNGrY+2ekGgD40pzcOv5tXjg8no8cFkdrj+xEFnkz48P/H1LJ86bXSBGdqMPHZOqc+BPxLCjPS5OPs95HzvGgxvPq8Xys0rgSsoeOz9//eGuMC6aUwjz88msTgYbfgazvsoPhCPYJybAsXqzoLYsBz9YXIsbxRdrmBQsNgtWb+7Agin5YvQi8z8USqEY0hgiwgu+2jK9Ng+xQDd2BeXz5NxCfF4nrju7Bvd/tQo+43l6DuGmMr3Wjzu+Mh5XzfLDJq7GyXRamrqRyvFhdiF3fhWKYWiAzUs/pmMLPLk8Fy1tIewJkx+NfE+elIvm3e346Yvb8dt1HThtbglOKOdXqevYurcbjoJcTPLzpSCZ5mjSyXNqcrF1dyfao6RMSJtMm1CAZQuK4aZ6LPXbSSDYUMm6Xd3YjepKP4q46gYZ83wnrRoWTs7G2sagfC0gDUUWzCjCtXPzxbPPYzyacTpJtCm8qS2ITlcW5hZpYF1IqYhQheKQkJwZK+ItbCdWOvHmVjKeJFg82i0pysbt51XCQw2ovMAhbtcIY01/F36hDIuPyxWPPvrd8pWnZmr8fvjNbQnMn5Az0p72VHxOhv0ImD+rN7POh8bdQfCHlCw0cnv2rV14/P0mbGoK4+2NbWiKQlz2YXq6I9japWNamVdelh5NWDTMHOfGhu1BUiZy7NjRFcHDK3bgjZ0RQxgMVUKV09ocxD6LA5Pz+RMwQ6Oycv0uVGdZ0dAcpi2Z1300srhvRSPWGq/CMse6TCKawKaWBKaO84HfhSIuFY66E6/4LMguqMSf68ZYtxU7O2LitgwTS8Txn6814tn13eJtbGJmPv1z527brg78lGSxoTMppVAE8Rp/czuFDXvDmFCeDY/x0RnF6GZYGmA2DiYplwN1Xgu2tPN7WvlPR4KKtXBGMS6aW4RvnTUOwV1teG+3/Cqwjbqeje1xlBY6RLMwWs7owO1EuZbEpq4kKRNSM3T2d+0LYncX1Vi6SnuxJmLY3qmjYgwb4KFRSfk+B+ypBPaHjOvipAA37Q2hKWxcju5TDikPeztjKMnLyvg0oVJ+iiMh9UJebhZsyTgCJF8sS6x62tqi+LQlChocG7qIIvLcE1pftzMIstUHticLv6hDxx4K9Gc74VXf+1UQw9IAM6YRdmfZwR/LCybT4x6eUDS9OhcnT/CjnoyHzWmDz81vnqYCU4lbQzHxYXo2QqPpkqTHa4c9kUQ3P54oyn14JcCzu5uDMfFdXWnYjn1d9d5qMPDR+bbQue5JZOSF82YoQjFfrF9QIBSHx62Jd46LwIxwhaI/QpzIsZjk+Ej240lE+8gMbxiyRnBcgbGdIa5pdO4eWoQsak4NXtJRCsWwlIJMpSx+xbbYJCwIh6K499lN+MbTn+DGZ7Yi7vGKryWJLwRRPL79wh8R4I3exjMaMLUKL/oMFeU6B/VWowFvC8PVP2CQ4I6XeAxEbslfoyzil37kFsdJx+Pzzf5iW0ZQKA6OkA9D4HlBLq1fTOT776Tj7iytGRZZilemkJlyyM/ZEyTDsjOoGO0M+25YNJlC0mYVPUoh3qycWcA1/sIPjX66e7BmXxhleQ5YU/LLJrk0IubPHMq3t46ehhCJUQ1R2T181kWxWR3wpTOpHsSWqBJjm+oy12WjXnvCqKXBqyvOEbtoPAHNboNbPOIhZ7LI3EpkPPY382qBl8oc5E800skXcTN3UCj6I+RDyk8knoKDP0AiPqaSITq0aVx0oVWjI8+BMhohY5qbHCdFHUUfyWIqlkAnf1ZMMeoZ9gZYD0axJ6qjIou/RKTDm5OFW8+qxLxKD3KzHJhRV4BFddl4Z3MXD3uR1K0YX+RCW2dMGJjRRKIrgoCuocJlWmDqqFAvJddjh9fBn3i0wi/WSUmIjowdE4rsaAvI7ywPJvxCFKa9O44E5TPP2duLQBYptTyPBredO15UBq8TLlrnUD7DFfkOBIIRJEjnDXuBVxwTuKvG8tPe0YOkZjNe5iKxsYxRO8mmzinLYK7HgWw3rwMel0byJ7/CZrYt81OfzLgCF0LhGHqoM6xQDHt9pKXiWL07jpqKLFhSFoTJIK9tjuHrZ47H75ZNxZ1nleC9D/bi8Q/aYaORneZ1YFyWBev3BI0mNnqMsCUZx4bmJKZWukTnI0UjwjNOrsKzS6fi5i8WoLgwF7+8cRruPH2MqJasPDfKkMC6lqiRwuDB+eWz1dweRVfKSkaVJ4ZRmUjRXXduNf6wdAoumZyNyZOK8Nt/mYIr5/o5FBa7hqo8Oz7dGUR8dPW3FJ8bw2BSp6+lI4KQbkNRDj9SRGaZ5LB+Uim1mSm477xS2KxOPHnTNDxyUSXYBn/7KxOFLC4cl4X5M0rxP8um4MLjckRy/EWkGjLAO/YH0SW/568Y5Qy7zxEeOGrVMaEmH7eckIvv/LYBraRlWVXzawjNC5Gkow10lJTn48Ez/LjiiW0Is4IWsSmWMcIaKohy8j91Ggbqc4T8XtsvzirDxeOsuPWPOxFOikOIY2XWqjnanD2tBMsmarjqmUZRieybOQP9SMgyUP3+k58j5NG4eVTuNFxwWjVmaCH8+NX94Lmp7CfPIpeCY9IWnXP+QrQv34cnlozF0ic2oYWUnkyH4n7G860+Rzh6MNuDqRu+dnYNxnYEcOfKgJjEyX5JljmWy1454O+Cs7+8MSJlUcJRxPe3nXZ876JarHqnAX9u5MealAyNVITuMxjZnyMkId66uwtNVgdm8qsoRfPg3qaceCO/02s4qpNTJuXj/61pI+MrfZl0VY1wyJiv2hSA3e9Brd8ulAcrAf4oOF9+lk762TUbFkzIxYrVrWR8BldMhJ4SP7SgrLy/sQUFY7JRnCU7BTL/VA7qJPD5tlEkfmaTu2AnTSzAmk3tCFBnwzzfyngqjoQpIWyKV24IoIw6+SUu9pfGWbORfjHlTTiSRdGW5AQr0ZYonJcijPYpKPCi3B7Hm7vI+IrUFaOdYScHLOSZjltDIhLHI6/sQkM3TxaSvdLecANuNjzzd0NDK/5nbafhK8mINrKh8vd0h/Hvr+xFwHiuom9dsZ/ZHdHx+pq9eGlLmIwZK57BuzJCuRMKTOST/ppbgvj5yibEUnS2M/LPf8YOsgdK5W3cHcDTq9rEBBgzMLN3qlAcGiF12LanA4++RfJmkfd5pSRlyJ3hDvAzt+mPRS4RjeH+FbsRotEzBYhUFKObkdERI2HetT+ILW0xw+NARDOg0q7Z0o5W8W19swGwYTZWRwE8ut3c2Ik9wUPdhOJ60ZFM6vhwcwe6Rd3wj/QfCqQob+t2dqElkup9FrMXcVplflnHfdrYjt1Bnh9vlkGhODzSmKbREzrWNHZRp5Xl6PO1A06zuTWEdc0RsfdnT0ExEhkRBli0F9LEvJQNJAOxmRZ3ORAS42GKPxqVsqyng5fb9DOWotp43ayng+1zbBHKkf7Nr14doMiMPJthIp7cRbiD7KFQ9EHOHhHSY2ynkZIlJemzwHpHpiNTGFW9fsUhGTG3IvjbvaxpD940TF8ON/6EFeLiH3yPkYg0XlxeWX5ZB2mkX1okeLQsY8j7W/3jDxZ8R008AEJ5PVSe2Jtzb5aAt6Tn0CmHYmgidImQGykraVn6/LDMplPgNJUMKqQFGtaIBmIItLnMpDfMdOY2/Ylww390IMt9pPL21omxHHL1Y+RNrIrfNOn8pvOe9hO+YqlQHI7+MpMpR6b/Z+Wf3V8x8hj2BlihUCgUiuGIMsAKhUKhUAwC4nOWvRdEaJ23pZOzg5UbHCfgEyPW2TMdJpz5Rxtp1y/OIDsj5wY8PU4+AjSU83wodziGUzmUU065o+8kcoX1w6GwJJMp/c233sS1tz+EwuMvpcjyix38PK2cMqzuVwwOpNT5fhEtd638b3grpyK3bLI8G+Tf95TyuWIDN9QuaFC+KMMWm4Y1/3Ub6s5aBldusRkiML9kNOTRLFj/q++ietENyMovM2bTG4hiqnaiUCgMLMZ7GEkv93Q2YbZ9E5567CEZloElnkzqn366Gf92x50IhSPCWgvlaGpIxaCik1Ht6QkjHOkRL5OwWK3wZLnh0DSY73gfypM6xLiXshcKhWB3usQbhGRuh5fJ0i10HsIhOBxO8U5ffjmJQqFQHJwMBUGrCxachttuusHwSGNJpFJ6NJEiBZ9CZzQJGhEjxd/N7bXAStMMJknqEMUTOsKxFHriCWFsHRoZYacVTrICQ3lWZaYEJYx3c9us/Bwy+1C+xchx6MPl4G5pUq4I42sbonWuUCiGAqwsSEfQP78W2anpqMzPkkEZWGjEyzEVCoVCoVAcQ9QsaIVCoVAoBgFlgBUKhUKhGASUAVYoFAqFYhBQBlihUCgUikFAGWCFQqFQKI45wP8HMQvAws4DfEcAAAAASUVORK5CYII=;" vertex="1" parent="1">
          <mxGeometry x="289" y="580" width="480" height="61" as="geometry" />
        </mxCell>
        <mxCell id="zRWtBp2NT59PFULqCnVe-5" value="ALP包头" style="rounded=1;whiteSpace=wrap;html=1;fillColor=#f8cecc;strokeColor=#b85450;" vertex="1" parent="1">
          <mxGeometry x="380" y="260" width="120" height="60" as="geometry" />
        </mxCell>
        <mxCell id="zRWtBp2NT59PFULqCnVe-6" value="基本包头" style="rounded=1;whiteSpace=wrap;html=1;fillColor=#f8cecc;strokeColor=#b85450;" vertex="1" parent="1">
          <mxGeometry x="580" y="260" width="120" height="60" as="geometry" />
        </mxCell>
        <mxCell id="zRWtBp2NT59PFULqCnVe-7" value="附加包头" style="rounded=1;whiteSpace=wrap;html=1;fillColor=#dae8fc;strokeColor=#6c8ebf;dashed=1;" vertex="1" parent="1">
          <mxGeometry x="700" y="260" width="120" height="60" as="geometry" />
        </mxCell>
        <mxCell id="zRWtBp2NT59PFULqCnVe-8" value="可选包头" style="rounded=1;whiteSpace=wrap;html=1;fillColor=#dae8fc;strokeColor=#6c8ebf;dashed=1;" vertex="1" parent="1">
          <mxGeometry x="820" y="260" width="120" height="60" as="geometry" />
        </mxCell>
        <mxCell id="zRWtBp2NT59PFULqCnVe-9" value="" style="shape=singleArrow;whiteSpace=wrap;html=1;" vertex="1" parent="1">
          <mxGeometry x="510" y="275" width="60" height="30" as="geometry" />
        </mxCell>
        <mxCell id="zRWtBp2NT59PFULqCnVe-10" value="" style="shape=curlyBracket;whiteSpace=wrap;html=1;rounded=1;flipH=1;labelPosition=right;verticalLabelPosition=middle;align=left;verticalAlign=middle;" vertex="1" parent="1">
          <mxGeometry x="790" y="500" width="20" height="120" as="geometry" />
        </mxCell>
        <mxCell id="zRWtBp2NT59PFULqCnVe-11" value="基本包头" style="text;html=1;align=center;verticalAlign=middle;resizable=0;points=[];autosize=1;strokeColor=none;fillColor=none;" vertex="1" parent="1">
          <mxGeometry x="810" y="545" width="70" height="30" as="geometry" />
        </mxCell>
        <mxCell id="zRWtBp2NT59PFULqCnVe-12" value="" style="shape=image;verticalLabelPosition=bottom;labelBackgroundColor=default;verticalAlign=top;aspect=fixed;imageAspect=0;image=data:image/png,iVBORw0KGgoAAAANSUhEUgAAAfEAAADoCAYAAAD/nN2aAAAAAXNSR0IArs4c6QAAAARnQU1BAACxjwv8YQUAAAAJcEhZcwAADsMAAA7DAcdvqGQAAL3RSURBVHhe7F0HgFXF1f5ef2/f2957A5beBGmCKIigYm/RGGMvMSamafxNTDXV9GISY+zGEntHBEUQkN5722V739fb/c+ZuXcLoCBSdmG+9+aWqWdmzpwzM3fuXJNGgIKCgoKCgkKfg1k/KygoKCgoKPQxKCWuoKCgoKDQR6GUuIKCgoKCQh/FSavEeSmAWg6goKBwpNAb5Ykh5w5E26fZK/QtnLRK3GQyCaMYWUGhd6Avt8PeTjvLOoUTE2o6XUFB4bjDUIJ9UZEzzcagoLeCaTxQ2Srl3vdx0r5iZmTbGI3HYrEDMrmCgsKxQTweF+3QZrPpNr0fBs1Wq7VPKMRIJIJoNAqLxSLKua8ocbPZLGhW2B8n/XvinP1gMIgHH/wtli9fDmZpWSR0pTqpCgrHDOFIFKFgAIkej972enkDJDERjUXg9weQnJhIt71UZghxJsW8r8OHdq8XdpsVaWnpuhInt96ozFkOE1kWswVfu+PrOOOMM3QHhe44qZW4kXUvMfV5sy/AVvMQJBUOIfs42Zpg1hlfQUHhyOFArYqbordmE1o3fYSCM24UOqU36sPu4Hw0bf4YvsqVKDjzNpIXPKUu3XoLekh3kxk1i56EK28IkotHkoXodshy7oV0C9KpQOs+fg6//NZluOXW24S9oLk3djqOE5QSJ0glfiGqcs5HWsV4wUHsphhFQeHYgNtb646laFj2Mvpf/gAJamp7faD51Sx/HW2b5mHAl35N8sLcO2WGEHMkz2hEu+PVn8NTNhGZQ07X7XX0NrJZBtOJy3PXG3/Aj2+YghtJiZvJ1ixYo3evQTiWOKkXthlMINmFGYNG4HF9AQiPxsVZGWWUOdpGdJo1ao+i3cXpvo+0P0MT8uRdr6RZliWXr5xhZNA5btgLwvcJ0zsMjTA7r8NRIBShPOjkKnRBrU5nCOHBnCG6ePwno4qmN0MKJdmajbNC3wW3OVGLomPdh0ZZLDt0iNmDXgdZliYq3U6lKKx1+95azt3JoutQTEOM+x6dTb2X0n0coDSVjv1YQvFIn4BS4CcIWJn0xTan0yyUYW9ViAaYvD5Txnp56vRyKzfauux8iEsFglLiCn0avXYkoaCgcORg9NVVc98PSokr9EkYylsNxBUUFE5mKCWucGggbRnX4ojEYohEydA5GtMXzHR2kw2IyS95SRA+DqBsZdgun2K6jP+GZ+Mk7DkO/Uy/eFwTmz+Uplulp4OAoxLpUTimm/NgbPCjR6tfy/i1eBxRPZ8xfbGjDE/2FD7K9nSOicVBRI9uF4ka7l2G3emgU6FwOOgsfzZ0H9PrIcJlzGWum5jwo5e5CChP+0P6E1d6vPHuPC2McP5MkC9xPCQYXjvjJ16MSn40eCyu2zNvcd6Mdsb5lTym51V3j8Y4PPvpivPTIF0OPpTt3kZk+jFJl2gTbC/TZxp5sxuRvm4n2gCHFeGpLPV8xZhOEVbmR8Yh7bgtfxbdPXCI3k4mqM1eKPsdXh/OP+8CVOXORuoA+YqZQhcEi9A/JScZV43LQlmyFVosgh01Pry6qBZ7wxqJhm7CwSi/ztEyC0vDBy+xke58L6+M8F1ufCtWK9NfpM9naux8wdGWFqfj9un5yAs04svPVIskxehcD87+u0OyuYaUdA8uGp+LAak2+Brb8Me396Kd4xQ/BtFKXtNKM/G90zKghaNYv70Z/13RiIhmRk5+Cq4ZnYYg0RL2BrFktw+BpiDSBmZgalkisp1m1LeG4CPhzDtimX0deGZJPSrbokxg5wyCQk9w7bTu+AQNy15E/8se2K+cOsWUsDZh6phCnF6egFQ7UNUcQpiqLSfdjmVL9uKtbV746V7yA4Wjk8FLPUFuZE+qE7lZHkwfk4vyuB9/mFuN1oju/SD1Vb3idbRvmoeKK38LE7/79BngPLAPPScYPDAHlwx0o50UWcPedmz0xlCzsw2NFgcumpiN4bkueGiY1UL8NG9NNQJpaZhZkYx0B9DUGkYH8RhH6E6woa26Ef9Y1IQo5eeAPMZt0GzGrtd+BXfZOGQOnqo77A+704YLJ+ZjRK4Tdiqbqno/nv+gEu1JSbhufBZKUqn9h2PYWtWK5e0WTOuXiCyPBR3tYTRHjDyakUl18+wHO7HFZ8IFU4oxLMuBRHMce5rCiJuopZssSE20YuHHu/DOzhAsByo/suJXzL599em45dZbkGAzwW7lV/l0dwU1Elc4OAwF11LdjH/NrUF6rgdtu5rx57crURlikbRPi+IWJgQoXbOcYcFCP1bQnUqaoQfj92uFLd1T85T2nd70CxKA/akTkZsst14MBUKoDWqwkmLtjEjACNgtnU6Y0NzQjoff3I2Q04lZp2RjeolT9ymFDyNK9Fx6Sg4mlidi9aoq/OvjBkTiZhSWZOD+mVl4dcFO/OrFrfjflgCuO7sUAzwa3l+4B48sbsPoQgdenLcDv3xpK35JfnabPfjH9YMwKd/epYgUPjdYMQnDPyrHdxfuwCtU/qfmWPCPt7ZTfWzBQ4ta8JVLBuPuaZmgvlQXDljsuqVe6S67lZSDDcML3bBTWE6nJ18dGTALcF901JgifG+sE798eQvxyjasjNjxjTPywOwdDgbw+Lu7sawRGJRmwsPvbMfcnQF8/Eklnl7ZgVP6ufDG/F2Cx5gPf/lONRwuO6ykBI+Ecgv6Q3hi7m40mhzobwvh92/uwp4Q0F7Xhl+/vBtJ+anw1TbjL/Nq8fGKavx9cRNK8zxYuaIKv6C8/PKlLfgVnZ/f6EWi24pgMIIn3tyB7X4LBiXH8Mf/bZX+XtyMp1a1ITuF2oaetsLnh1LiCocEjXrOZosVVjqHqVcfiVGP3WY5IAOxouapv3A0hhCZuBAs3ExJkZMU4+k0lmZhikRMuQnlJqVPNE5xUy8/HIuJeAyY7C5cNz0XiRYZfm9dB9bVhWVYpofSCXNcwrNMrTuM0YnZbCEhrWFnnQ+bWuO4eFIOkihNDsGhNepwZOenoTQSQl2E8kAR2W1mxCjSU8rT4fGHUdsag8thRX11Kx5aWI0gx0l+rDztSDFxuThtVFaUzssf7UWlyYmzypJAgwiFL4DunSAub+YxjerVYbfARaPH7VsaML86iIkDMlHsZiag+iSNGSE+C0ejCNG5hwlHBb+x5ttR1YaVlX4ayeoJ8G6NR3jHRsGDzAPEL7MHp6Ouso3ahwku4pc1q2vx3MZWxIUiNlOHwoQYESPyaCX+sphho7OJp83ZnfLvdBCfkQm3evHo4gaEBBt/cZrNFL+NRu081c8DeBuVr5UIJys4qZMRorbPbZD53Eo0cZrcpG00QubOkNNuI/4HNm5vxMamqMiPg+uL2qiJRt+ivqj9uOi8dVM9Xt/qExu4KBwelBJXOChYvQnpQ0KN25phpKbUhQad+IoFrYWU/akjc3ALjVLvv6gEAzMsQrbwjGa/knRcNSkTBXnJ+NbFFfjO2flIsYvYQM0dU07Jw52zynDvuUXol+1EWaYLbo8Tt84sxWklHlx+WjEuHZUKJwlEFio8qsnLTsYPrqjA3WfkwEVKvnunYH9I+0ggjBdohJ1emIaJNHqO6/YsRC8cm4k5axpBOlgHj8s01HuDyCnPxLenFSDHSX4p8b3V7djTwcKJw+tpcvp0ySNGEwk2FsiqpR1BiLJmfus2XuYyp5F0lsuK5rYg2sUMEVBQlIKbiXe+dnYZvk5nw9wxswxfm1WK0ZmknqQe71IkfNNZ90cOnXwZj2FnRxgTJpThllNS4TLHKe04Vu9qhzfCPkV3kkPofKWDLsW9iEdaxB12DM6wo8UbJWv28MUZTXRnRVuX7V1Swj9Om/6ic8MuTI84ibOsDYnkJBfyE01o4ecaAuyBjGgbso260twodmpEe4zy3xVW4fNBiRaFg+LTtpNkO3bjhikUPXXb43T/pdPzYW5owT/e2YkF9Sb85PL+KEu0YMyIPPz4kjJcNSYbUwtd2LHXh7GjcnBBhVs06lNGFeCmCjuenb8b68MJ+PtV/TAs1wlLKIL/La9DM0m415buxWvr2hDUhUpKRhIml7iwblcQUycV4XKKS4CHEPtA0isuxP2WHQ34pF7DxeMy4SDBSoGQnJKE/GgrFteTWidvhmDihrJ0TS2eXNGG8eML8JdrB+Pq0akItwWwsS1M7nr5UKDcDDdKs1wozUvEDWcVwlfVhCdWtSJi+FE4LHTnQaleCKR5C6mjl5OTiLtmFyHD34E/v78HtWKdBlCztw1PzNuD/5B5hOwN8x8yj86rwtomUljdpSAFEjFLRuGrIw4LRfv8+7vwfmUYX76gAn++ugJnliegprIdNRHuTnapQ4MMmfdOW+SkEX9lOnH66FycRm1E2OrK8YujK30rjZZLMxMEP5dlJZBxImE/rSF9p6c4hDv7mzg0E/2SrKLjLl0lXVYavZdkelCa7cFlE3KR4zA8HAm6T04oJa5wRCCEDLXDtJxkzBiQiMH9snD9mcUYnGpFAHYMy7Bhxcq9eGlzB5rafXh1RS1eWVWP1Q0a+qeSoiZhPH5ACqrrA2iLaPhoUzNMJC3Wb2mj+7ic5iQhxSta43FDyGjwU1wvL63D66tr8ElDFEUpdmFviI5PBTlHQiG8uaYV5f2zcFoej8bNmHZqBuYtriXBTmq5u1xh//4gHn97K773v93YG7PjlnP74/eXl1EebWI6UfozIz8jAf1ISFXkUzkkW9HqiyLJxeXDHQ+FIwnNbEFheiK+e3F/TEqP4/5nt+Gjal6VxqJNg91pRW6aE3npjv1NqgMenV2OiO47JEge8Ld48fPnNuCnb9XAnpaEH105GPfPykcWKTWDFObyA5NlQn6mG/1zPchzWRE3yw7tEcsDdwaY4QlWhw3l2W70y/HQmfg6NwGuA3wRlNt/RloC+fEIv4PzqE3zNJmgieOS8Zmt1CnIofhI0XNTZSVvuCkcHpQSV/jCEIMEaqxiajuFRsJtfry+pBovLa3G0/N24vZ/rcHruwOIkgdfOI5gOIqgLnD4mTg/W+Op592kwLNS7bDQKNrusCDUEUYH+ZOijAyfhDyQgfkyGo7JuIiIMGn6JBJqhy7MNKzZVIc1bWZcPj4LSR4Xxnoi+LiGp/eMCXYZGceZl+qC06JhxYZa3P3kevxxQT3yyrJw1/RcJJB/IZBoRL90Yx3eWVWHNz6pxnef2wFHfjq+O7MIBU7Oyf4zBAqfH8xzon6iEXy0vg6/f7cK9qxUXDDYA7veoeQ6c7udGFyQiCGFST1NAZ8TkengSA6ZYY4IWEEOyHMhHIxiztJK3PHoRjy/qQOTxhbg6lHJxP9MD/PK/nQZPPnJxnq8vbIBzyyuwrqGSNejgCMBkaxMO9ARwJw1lBZ1uN9eXY+3VjWiMbx/YvwK2qbtTbqfOjz1QS1qo+zCueC4yJCfcCCM91fXCX+PfdwIL3XYhS95UjgMKCWucIigpnighma0TxKcxTkJCIfDSM5yItUWR3sgCl8ohqjdjuJkuxBLLIXkOFoaYxqa16fPXVqFWncSbppciGuHJ+F3b+xBQ1AqPSMMM6x4r5SuBTkcHxu+JrAw6z7takAnU4chWEwI+AJ4fnkT+vXLxFWTsrHsk1qEeBEOaeQu/7KDUl6SiFKPlQZ5ZoSCYby0YDceXtqGgvQEJNsM3yZYyN1soTPR0dbix/rqELLTPShw66vwFb44REHK0uSy3rO1AQ8vb8eFZxRjYg4P8YhvqPybGrx4a0U9XltW19MsZ1OPbe0cR+fDEB1kx/8jrVl0RtXiJowdlo5EYiq2amv14u+v78B7u0IYQG2H2K8Tkgu57XVvf5rgMQvl20RKcVU9P1ziHBxhegnclsyUltVC6XGaZLpahqTNuGS/PKPGpq6pHWtrQ8ihkXkydXwF9EJmdyvRzqvdN/mMMb/C4UIpcYVDBr/vHdPbLZ94MxRjc4e83GRMKXFiz952bA878e3ZxehPo2pPggOXjMmBmxeckVwVzVkIsrjovbNyFJtL0PWIgRnYvakab25txcsfVeKT6oh4fsih2B+cVpR57GJKz0kWLNTYiI0kiAYRH9nzhh9COh4ALAxjpKAT7CYxBU7kY/XmBmwK2zElI4Y3dgaFxjY7LOBBGsciVghTOFeCB5eNSRcKmzepYPAmHev2tKI+oI+xKWkqFhEvl0syKfjh+Q5U1bVjV0ccB17Pr3AoYBZgwwfe/ETAZoGLLami3vhgJz5otODGswtRns6v9MkFWmZWGkJxSGXU3chvgMvNVgSonpmXZCfvKICiZV7KSEnGFaOTiB/kym5WZeFIHEt2eREm3jGyx6zMjMX3grfpVnRomU6650kp5mfGp61d+fyQbUMmQ2nSjSgeMpwmlycnw2XGbU+WFbdHLjvpn1e2J6d4cNFgjxhtsz+xfobCxulaxEcJcJsVV0eE7pMTlh8R9OuTFuFwBM88/V+0J1bAlV6g2yoY4MbJ8KS6MWt0DkZkO2An7eryODGwMBFDi5Jx0ZhMbF1bh/VNQWyoDmLwoGzMptHG5LJEbNtahwWVQWTmpuDcoenIcdsQCkWRRPFNLE9CshWobQ4gOScVV4xKx8iyFEwclIbpQ9NQ7oxhJY1kvSTZyotSMbncg+amDrTaEnDesBSkuMwIkvBLTPVgfGkikoiu2iY/arz8akuXYDCeb7sTHZh2Sg6mEF0euxkBbwjV7WEafVvRsKMRyxqjKC1JwXljM1GezK/KkJgljbynJYzsVCc8SXYMpvwWp7kwdmAaSqxh/OujOhSWpWP6iHQU00g9TBKqIMeDCvJ3xcRsBGpb8NC8auzyGqvYFQ6EYEs1/NUbkT5k2gHLSYwAxd+EEQMycPbwNGS5raTEzWj3BtDojWADjf5OG5GFySXEC1YTaoivAqT5ZHTd4tT5gcGXJcVpOJvqr8hjEQpnD/FxKEb+D1JdHTVbEGrchYyhMw6hbo1EzeiX44SFOrgji5NQnJmA04dnIljTgGdWtyJmpQ7l8AycXpFM/G1BAhHhD4WRmpOCmaPSkJ9ghZvyFgyGsbejJ59/Oiht8te6ZSHsqQVwZ5bo9vuDF7OdTmU4qSwJLp4WoKD1DX5oiQk4d0w2xuU5kEAdoLhGaZPdOUPSqdPkoI4SkJzqEo8vBhck44JTslBDbWptexxTRuVgYj9q6w6r6Lg0tgfRFu4q3k/NA1m3bl2MicNLMGbMGOqzyZH+IWX5JIHasY2yr3ZsOwj08rCQQksjASJ6z9SIrNzz1wUTv6Pd7gsjwtPQpMR4QVESjWZjkShaSIqyT4fLhkQbufPCGfLDu0uRFxpomMSz7cEDMxFtaMF2avQcLY/Wzx+fjzc+rkRDIA6Hw0Yj+jha/VHYnHYSCCxIaGRAfkNxjot6+ERXJBhDW4hXl3e1dK5nHsGYSfilUyeC70kOweuLiJGCiYSDjUZuvPOX22UnBU80EY38ziwr8Ubyx1OA/Nw90W2nvMn3lFs7IuL93KREG1zkzmGsPJ1OSfMIhd/1baFy4XhZ+HSJLYXuYC76rB3bGHLExzAhKYE6WNT54xEq16M/EKaOHo/wTGKDESdpFJ7FNcqepf6nlTzzQgLF5yHe5BEo74XQRB0CY4T7Wfg8O7aJXMo/SJfBS4yTleIkvqURKbWfRm9YtAXOexrxEz984dfGZP6i0KykvG08Gpa8xIOP1gCPcGXsnwmeBiO+PJQd27ig0jx2Sp9nJExUHlSOHWFELRZkUieHR9mcqFmLwR83iw4Fj8p52p2LgOlhEcEj8nZqN2GKI9Vjg5Vio/6RaB/tvhAoS5zbzjQPCLJXO7Z9Nog9FBQOAm4xZHgKub49hEZSXI3tEdS2BVHTGkQ1nVnoiS0fyTtPt0VJefMrYa26MuXXeHj03UDCgMM2+6JoI2VcTyOJRgofdntw+7g0MV3YTm7tgQhsrgSYo0H49F3hQqEIWvy8oYoZ4VAMDTSCZlrqadTdRsK6geJtbIugjZS4mHrsZljZ8z7nERq117eFRNja1jB8xsIa8hMWQptGPSRd2E8Txd1A+W0ietieBTzJW/j9lPeWIJUFKXCWZ5TfDvJTT3E2ES11XC4UnuNv0JUBPx9X+KKQ9cPHDqqDehrKNRI/1dGZ9J9QjqQf4KNOI9ddPRm9ekWYTwPHGKA6byDeaaY65HCHosA/P3T6iRfCNMrnDVxaif7a1pDgYd7ERfghmpuJt5ifOR+cvw7qiXj9lFfmMZHnIClw7p3oGTySoGi5HER7IlNHhjc9ikdiqCOeZprYvoFo9nE9sD9qx9xm6pjvqW3UUZ4ayF+Ye9UUH3cCGsgPtw+utwDlX3TUxBTZUcjDSQSlxBUOGboI0s/6NQke/skG2c3orCX9iKO852vhLm2EoTjCHX7M2R3Gty8fhIduGoq/3TgEXxmeiLdWNFJv3whLcZKR4YWN/usGcutfmoqZIzMxa2RGN0P3IzIxc3gG+vHezzwy53h0ejp/wo7jkel09yMcBA1dZ2lvgGNga553kG5GeGGEq8LhYt8SNMrXKGPBH919iEvd/bNgOPNZjKYP4v+LoHvUnXSz6bISfoQTH+S50/CPzjxDZNgdcXRLvyt6YdF5lvZd5c33kha+6NY2dCv90Hkp7xh803Wn8PnBtaCgcHxBjTgajuDfb2zF1x/ZgB8+txU/enYLfvN+FWrE6lU2nw1DgPCxiUYCW2q82Fzt62G21NC51otGGsFIga+goKDQt6EkmcJxB4+KGbxauKktjOrWEKrbeDUSsSc/yxP6+SBq3JiRo3NLewi7G9kEu0xDALsa/HQOok1/bU1BQUGhr0MpcYVeBNLArIyFQjYuaBzO1rqi/1TwYjnS82LRHN12LYLSQZ0ATWd3GauCgoJC34dS4grHH/oou/MZnK5hxbPl7iNwHpWTMhcKXRi243seWetKW5y0zlfKpPLfx4/CiQe93rm+u/hDN+xCJ17cKN0Mp84LYXc82IOTJsKYcrqRPGrkwTD7EibefxeG3XXLowxKqRsV+9Cmn6WdQZduz04McanfdLNW+OJQSlzhuEPobUNZd1faOoRyF76YXeU1rzhPS7HBJTiY3Ej+hUNRBMP8ickYIiwPyT7NbRYbUBgxGOgUKAonBpgFuEr11c5mmwVZifom32QVjkTFJi5d0JCaZBWvdhmccLx4gnc7jEWBpCQHPFZBLtsKesNkRI50xZjuMYvPAItHTeRygOZyFCAo0I088mtm+em8C6OgAhrRxJvVdC9iu90Kt53fDmE/FEoEl/EYnWyFLw6lxBX6BESb1wV0nCTXaacW4Lxy/YtlJEmcyQn46VeH4u83DsXfbhiCc0vsZG/C6FEFuGKIRwwK2GPn79hIP4VjBFZw/MCEXxVMzEjEjZNzkeWgGreY0b8kGXdfMRh3TUgXr/oZyjrqcuPec4uR6RIxCLtjDaEEifbRI3Nx5ZAkcc+8WZyfhFvOH4AfnJUDt1lqRn5nvKh/Lu6YmIp4jL9wz1QfC7oFVfKSwB+duXpGOYamyE6Sw2nF2GFZ+MU1g3BRhVO8XS5gs2L25BJMzreK98NlXqVTt+gUviCUElfoExA6l4QYi7NJp+ZjsNmP51a2wC+GX8CYIZnYsq4azyxksxeLq8Mk0GOYt7QGCWW5uHigu1PgGXJE4cQB8weziDPZg5snZ2Lhilqsa+QhKysOE1JSEjAkizcw0bUJwVvXjkc2+3HPuUVItR0frcLbxw4ZlovpmXE8vaQB7fw9ceqsMlsnOGwYmZsAm/RKedSwYmU19rgz8PXxaUL5HwuIdERSRFfchK+e2w9t26sxZ3uAbHg2gPeQAEryElHk4S1dGCaEfEG8tqIBk08rwSnpxtYxXM5kjg3pJwWUElfoE5AKWEMmb81a4cK8DW0IkkDhX0JSAsakxLF4ZwcWbGrBkm3taOX9WQjxcBSvLG3EjIkFqEg0RmHyuZ3CiYVo3IzLzyhCsLIZG5gBSLnwrnqbdrRia3NI99UF5oXaXY1YEnDjutEpYmcywR7dn+seJYhkKH5XEnU6xqdi/qomtPEGKOxIPdWdlR1YWxUkP3QvLPXZIy2Gtz6qwsBRBRiXQQqTp6q7kXn0aKb0qTPEHY5Jdj/mVgbF7oisloP8EZYtraj2642OCdbny70tfry4xoevzyxEgqBNN2o+/YhBKXGFvgESADHNjLPG5SHW2Io9Pu7XS5VcXpqKQYUp+O1XhuAHs/KQ4rSQGGFBIYVJe3MH1kUcuHh4SudnHhVOLLDySstNwXlFFiza7RUzNgxWfPyRk+7QVaU4WkgxzdvYjKnjclCcIJ8zy/GirjSPInhXwUljcpHY0YH1zfJzoiJtnWZJg/TbdTYh5vfj/eo4rhifKT7Sc7Qh6YjDZLHimqm5WLKxQXzfX9hT+XUvYz52GrLjc+XeVvgz0jG9mKfa2Ua1wSMJpcQV+ghIUCQ4MLnIge17/YjSvfHbsK4G33xiE/74UT1Kh+TjjxfkwaqHYvAe7Ntrghhenopku26pcEKBn4UPLEuDzc9b3cpp9M+CoaDj1Mmrr/cj4vFgTLYxcU04SjqG1ZcYOpPRrDZMKEtCVY1XbN97aDCJT5BurPRjYHEqshM4IMenu+r5OpIgPS1ItqcnYUKWCZur9RkCxqcmZzhoCAQjqGyO4cwBieLbAnJ7WYUjBVWaCn0GaUkOZHpMaOQPpDB4So4MT5nyfucLVtXhZy/sREJ5Dk7LsgjJI2QNHdpbw0hPdSLRoVj+RAR/CGVAnhte4oNAWLf8LBBPCN5gXdMRQT3d9M8RK9yE3dGcTpexmuB0WlCSbkF9a4zSkqPWg+pgDkx+vC0hOFMcSHNbuhTq0QLHT/QV5XjgNIVR30YEMJ2d6X4GAew1EhffUeiX7xEdavlKncKRgpJoCn0GTodNfAJVfEVNPLcUk+ZkugRgdXUL3tsRRnG6PuRmr7rIMDksSLTw0ib2rXBiwYIUN4szrm1Z30IJy79u181wB5CHmEIEsp0JngSb+ILZ0UR3zrNZrPA45ToN48caWXYedCP+0k5Y63YmvrFbkGzj2QPZDo4eOEETla9V0C/poyuRGZ02YS98CjsD3NZEMVN4u9sGMXEgI2FnhSMApcQV+gw6aIgVCGtw2VmACEkg/yxE2Ep6Q4D87W7Qh2Pkj+2F71AU7TRqFyuUFU4smGKoaeHPxZphFR8xMfiB61ryCXMCv5PNnT8Gr/aW7uymwReIdD2mYb4RPHbkIePmz/fyV70Al1XeMyQ1OshO2vOBjXQVR5bckRjaeFm4ng95PFrQxBfKNOosOW1Eb4+EDPqMK9nCpLLvQtQfgV/PqDwqHAkoJa7QZ9DmDaEpoCFVjLgMgWHCgBIPUsyaWMxktdphb2/GB/rrRQIk1JNSHGhrD8MXkgviFE4s8PvfO+uCcDmspGRIgRBzcD2LmhYahZUKncWTGLLne7oSA3KPDdnkf1eDfNbL9myOJjj+YDiCvc0xpCXSCJcJEQpOzhPxqnO+liNwmRO2F+5070l1ItYeQatPeDyqWtHozOyt9yGkWZHuYWoI4sAtkC6JYPbG5SdnythNOMBkNYvvo++uDcoCVziiUEpcoc/A5A9h/u4gSvMSYBOyQIPVYcMVp/fDwzcPxVcn5uLycSl4bUEdizopfEiImGn0MCDfiWWbGtHKA3R9JKZw4oDXSm3e2YSQ045MnvYV/GFCnEbmE0ZmY2JhAnILUnHBsOQe33Znb/nZHpg7vPiwiphD8AyHPHowRqjmaBwf7WxFTp4HTk5R2JsRIxoGDszA9MHJSE734IJRGZ07uTFf86r2IcVurN3ehGqv4HT9d5To5vIgmuLNXnxQG0dFnovSkYpc5IXK/NzTstGfOiPDB2bhzNIE6iuxq4SDOlZFqRa8vq5JfENd0ng0S/jkglLiCn0CLFvNNNqes7ga1swUFHrks+1IKIxfPb0W1z+6Ga+sbsALH9ehPibFGQsYvnKkuFFhDuC5NW1CQHJkR2uqVOE4gbR4W10rXt4dw2klbskw/I/FsHZrA77/n9W49oltmLO1Q4wUufZZEbGGGleRhrkf70WVX74AdSw4g9PgWf/Fy6rR5k7EwDQz0cWKmDqdRNaeyhb8+rkNuPLfm/Hy+nb4o+RZEKYh5nTh9CwznlpUjwhL8GNBMCEej+LR96sxaUiWfB1OH1XHqQ3OX1aD6/+6Ct95tRKfVPulYtHpyspNRUJdA+bsCYtqUTiyUEpcoY9ASA201LfiX6t9uGJCNpwkRFgoRKIxtAeiaPPHEOYNYISS5jC885UFXz4tC68u2IOdPopFOOjTgQonFKwWE16YuxMJZdmYlC2HrqwWA8E4OvxR4pEYOvhdLuIBUf+kzFNyMjExoQP/XkXKXcRCOMqKxuhA8jns9eMvHzbiitMLkG7Rp83JORSOEz9H0UE0e4l+Y/IoHgMuOL0Iq5fvxrIWnsLmHB5lUDuTD6uAnZtq8KLXja8McYny5cRZl/uCVLZcvmT8xtsBFMRBHY4bxyTigTcrETaTuhEZOeoUn1RQSlyhT6BzCpLM6lXVeG5XDF+ekAEPCW5dInf6MWAy2XDx1ALsXFuJt7YHpaXuV+FEhIaoz4/fvL4bZQNzcGqu/EDHp9V3VlEGrquw4Gev74VX7l5yzGEmxbZjSy3+sDyAKybnIMPOI3I5IyDfwJCKnTsciJtxxvgipNTV4eHl7czgIo5jgs5HUBpeeXsjdrgycPFgN3hbpX3BZLFxJyXg6kmZeHbOdmxpk50TkadPqQ+Fw4NS4gp9AsZ4QzR/EmjbtzbgqRWtCHV+NkmOwLtD06KYu7QS7+0MiHt2lwLkGIxeFI4tWM/RyURKMeIL4ekFe7G+iYatXNFkOnVQJ0xoa2zDXz+sR3tI8tA+fcBjAkEz8WXNnkY8trgJ7dSZ4NXdEl1Eiysa8i5fV4P/riMFrtvt23E9KqDCMyhh6jRqcx9+wu0qSPdssy+kTdgfxLMfVWF9Ywzc1xaZ5dG4uFA4UlBKnCF6uzrEBd0fjxat8KmQz9/IkMATypr+wWAMEY1Y2LA7ANoDPKrp5t7pTdVv70L3+jiMuuF6FcGkwonFNPjCMbIipcP2+0TJ7BAk3gjTyPDIgOI5XJlBwZjmQMh4HCStpYOeMf3Mm9nwV/z4vtPboYKiMSTd4cg3PVkyfAA6gnGxgO1AMXG5R2MxqgNuf11+xHf9TeYDdKp6wqDv81N58kEpcQPEmF+EwRWOLoTI2ldw6cLk0+QBCxspcLp8cAxSoX9aKIXjA2pzX7DZGR01We/6ufN+//qWfsyd7gfyczDIFBiHR7xIsjN9/V6HoI3PupjupNNIVb8/KPaTZ0YYfbr+YPJOECEpkZDX8ijLb18IG0E/Xel0SmPk6WDgzlcXTxxe6Z4cUEq8O7h7KLnvEJhMQUHhyEFvcX1OWhtdfxalvVRqiIVpRCWTJ0jUp8APNhw+juB+geyw8I2wUvgUmKi3c1J3cjj7HR1ezJ59IXanTUNKv1Opg8pTPop3FBSOBoTA2adxsVrp2LUCDStfQ/mFPyCb3teR3p9uE+pXvYP2bQtQfvGPYaZRZm9Dl3BnJW5G5Tu/R0LxqciomCTteik6KSNFXvnu3/Dda8/CLbfeggSbCXYrj/51dwWlxDn7Xq8Pt9xyC5au3w2zw012ZE9MwhPsCgoKRxjUwPZvWSZEgz4E2huRmFnMkolsRCPsNdhXVPJIMeRtRbCjBYnZpXL0KByEc+8AyzI+67T5GqoQgRV2dwocDqd431soxN5EswEmnIiLtjfgO9/5Nr70pSvgtpuVEt8HSolT9qOxOCqr61DT2IZAJE73/Fak4CDpSUFB4agiHidhHY0gGAqJd4utFpCC4WeovbgNkuwIR2IIBINwuphms64UexPNUo6xnGPT4fOjtcNPg3IbkpISkUBK0WbpreUsp/2ZtKK8XORkJJMStyglvg9OaiVuMDaXQIAaY0cojkA4Bn5r6SQuFgWFYw5eIx7ldkcdaP6RnIaZNGLnc9FeCJYQTDPvAMffM7eQEudXqbjzIdFbZIhU4jESbBGikwcqvDuchcrXxdPTvBUqkdylyHuP7OPZUF4M53JY4KEOh5OUuI06eMwVvbqDdwyhRuLcAKkEIsTggYhGZ97li+2YeU7qolFQOGZgJc6vhYnvalO7M0a03cV0b5PZLDdYGcbjvMrbBLMxeyCUIBPLMkR4PW5gGg2Q/hZlzHsrcHlzh4MVOH/1TZR1J7HsenzBdEtymC6eQjfBST072bkTtt3oPblx0itxBvf8eS0bMzi/WSqLRDGIgsKxguw4y1bHrU9OpQunXgshJ0jBaKzEiXKxj4mO3kW6FPH84RSmM8banGAWnSUehe+rEKX78QXTwDSRIdq4w0F6XPCEQapS4hJKietQxaCgoHCi49PkXF9QiEppHxhKiSsoKCgoKPRR9L4XGxUUFBQUFBQOCUqJKygoKCgo9FGo6XQFhUMGL2Cifq/eZHiFrPjOsnhWx3f6kiDxUQ1jjXLXAi1uap/3uV5X89RjO67PBbst+uQz0SKpoeNByOIPX4g9wHV/Rr741siheuapoPD5oZS4gsIhortC7WjYhTfeeA+twRhs7nTMOG8GWqvaMWx4Ieo3L8ErH2zCxHMvxpC8ROGfX5Ph8J9XUW1f9wHe+2gDx4DCEVMxY1wFbPz+1TGGyDvRHg00Y84bb2B3oxc2hwezv3Q1sh1dyvlTQeF7ChpNrJK2cHmIsMe7g6Kg0DehptMVFA4VQsdoqNvwIa6/8jos9eZg+vRpKLY34vYLp+G2P78ilNV/fvJ13HrLDfj5Iy8h2PnK7edX4IzsgnJsfv5PuO222/DQyx8jcjxe4eXOh3422xLgie/Fvbfdjju/dx/2+Ek5H8p+Cj3yrmH3wufx48fniTLVyE3pbwWFw4NS4goKnwcxH1565HeYtzuKS8+djn79+mH65bfgwR/ehLhTTqPPuvoWXHTp1bh81hmwC+XEmorPnx/u5HwMGpIolSgdj7eyM1scyMnJQwLTwcQcIkFdsxhxNGxZiru+9QNs2d0qbMzsdJjlo6BwssPyI4J+raCg8Bkw8VdxIh149amH8O7Hq7Gj1o9BgwciKy0JqQUlSNY8yLDVY83eEIYNq0B2djbyM1MR9Tbgw7lzsXLtelS1BOEIVWHeh0tQ3RZFXl4WLBR3NBLGJ/PewJKV67Bp4yZs3LQRGzdsRMCWgpqlz+D1pdXoP+lCXDZtJKykCDuad2PO2/OwbvNWWFMLkOa2ddOnGiJtNXhnzntYu34j9tQ3o3H3FixdsQqV9SHkFWbCypt8kM94PILqLasw54NFlOYmBLRkZKe7KS5yJcUbDjRh0fz5WL56LSprO5BVmAtv1Vo89ujLCLpS8dU7vobWVR9g4SersHlbDbJKC+DkXU80orFxD95/fz7WbNgCU2I60j12bFz8Jm6/4Wa8sWIXErOLkJloRX5pKRxcCHpXRUFB4dBxWCNx7lUro8xJZ3i4aE/CxNPPQqo1ivn/fRDnzZqJq+56AKt2BnHZ7LGwORLw8m++hUsvuRQPPPk2wnENJosVy1/6Pa649FJcccMN+M73vo9bv3olLrrkSjy/eCci/r34yXeuxXlXfA1VIQ/WvP5XXH7JJbj9ez/Ee6t29pyuJjoaNn6Am750CV5eVY/mFS9h9qW3YE1lOzvptNKI3WLDtqXP4yqK55ILL8c37r0fP/r+nbhw9nm47++vIkr+4tEA3vvXvZh1w+/gTE3D0z+/AefOOh+vbawX8fjrtuKnd1yJ3z+1BPXr38HVF5yD7/z2FbG7mk4Mzw1A827FPXfei00+O2zUOWA0bl2E2790BZ6esxXNa97AV66+Ee+ur0dicgoyXLwvognu1CSkpSSLTkwX7cooo0x3c1CQJwUFhUNAPB4XJuRr1p7+zXe1sqxEbmHCZJSO0v72ynItRhrurzeO1Xgset73/6b5ojLMKw9cpjlJ3+WMPF9bunm9dvPZAzRY3NpNv31L2/HubzQXuSUPv0CrDsa16vf/qqU5TNqUL/9Uaw6EtX99fQzPAWjn3v0fzeer1+770gTNkz1Ae3NjvVa5/HHNZrJoV/3oeS3C9BEBBp0rX/ydlmY1aRkVp2kf7WrVKj95WRuYYdFSSsZpi6tCWri9TrvtrGLNbCvQ3ti8W7t2fI7Iy/W/fleLxkLai7+7SXNbU7S/fbBWq9s4X7v87Mnal3/4lLbxg0e1PKLXlVGifVxVpz3+x69rjy/YQmE4XSqnSKv2s69O0VxJZdrzn2zVNi16QivNSNDOufNvmr+jRvv2TMq72aZd/rMXyH+sk14FBYXPD/VMXEHhc0CLRhEKAZd+62d4552Xcfct5yM3IxGNO1fiu9+8A5tao0Krd4Huuj03TsouRH5mFo18E8lJQzQSJVuT+OAH33NYi41u6N/e1oyw+KqXDroINu7BwhUrEPG14rHf/QS/+Oc7GFLRH+0tu8XX9zicASuNxi1mDSmZhSjISEJ2YT8U5iajrakKW7bXwupJx70PPoVf338TXvrRr9HIm1MTtEgEsbAPH7w1H76YFRarBZkVU/Dftz7A4z+6CmIinv6xcABP/fRu3P33bZgwtEjkgWOItlZh8ZL1CIfa8N8//gq///dbSM8vg9lXibZYF4n6Ft4KCgpfAEqJKyh8Dmj+Jrz+0qPY1gL0G3EmfvG3/2H+m09hYr90+Cu3YsW2Vuy3WLv7vaHButnlT7gSt335DJj2LsMLL8/Ff556A67S8fjud29DhstGfmUgcaRwQq3bnbj45h/gL39/AivWb8DLD34Ddp6XpsQ7V8HrJ+Gf/haTGRaLla6p88Af7aAOycaF7+EvpGizLroeQ1OcMgCD/IfDYTq3YyNPr+vWHFaeSQnHomioq0T9prdw1wOPISQ6HPxFL+khbrZixo134e//ehJLV6zGK//4KTL4SxY6fTp5Aur1MgWFw4NS4goKnwNmGiUve/d1vPDG+wjyp+9MFlLmU3HplAq488sxuDSFfHWqPLpk5aQrNmFI0VG4eIyGpAxytjrTcfbE2fjGN2+FtWkLPKOuwkcL3sMVk8rl6FZXnHx0pmahoKAUoZYaPPPUM2jxR+Bt2IU3331ffNu6U+ELpSivGRrFEQj64ff5kJSejoryPPgaN+NnP/kF9rQ4cPrEfgjwFAP7pSGy2ebCiHEjYDWF8cbjf8HG+jaEfaTQV62Bl/2QsSUk4s7f/w0Xji3GG7//IR5btJ3sTbAlZqK0PAcINODpx15CnS+AtpptmPveW+gwWeFO9ogYotEIWprr4IvI+BQUFD4/lBJXUPgc4EVjLnMb/nTv1/H9B5/Cpk0bseCNZ/HfT4K47y//wQBbLZZvbBJKadf6Lahr9iMWDqJybwt44tzbUIdtmzegckc1RRZFfeUuMktw87e+i/++tRALFizAgnmv4ftfvxEPPvUeamt3YuXaNhHf3o3rUBdKxXfv+g4GJFrx2t++jwuvuBo3fffXyB8yTnyq8UCo37oGb89bgA/mvY1NNWZceOO9OLXQTq3fAZuNOxRt+Mmtt2FnIEuo/Y9feRLrmyO49Jbv49wRhdi+4H+47KJLcMNNX8frS3eghWj2EUGxYAC7WlNwzzcupazU4Ye33IIle+oQt2fgtm/cg+HZSfjw8Qdw8SVfwu3/9yv4skcgxeFCxZDhcFDHZsEzf8JdP30IrQHOnVLjCgqHA7Vjm4LCIYK3DtXCfuzaux1puaVY8eqzWLKzERZLMs6//CuoKHJj28p38OKcVeTbRP7NGH/W5Ti12ITnn/0far1hUpxOZGd50NLQiDCNnC32FMw8ayRuO3MGPmro4ERkYgJOXPH172BkgUdO0cdtGHfORZgyvAQNG97Fk2+uhsmeiitvvBF5/OI2hxUDcKnN1732V5x56R1ImXAFfnbzTOysrEFWxem49oIJTJ3ws2PJ23hp4Wac+9VvoiC4Gv965j0MPuV8zJjaX0QVba/GU8+8gAZfDFMuvgyjcxLw6nPPYlutHI8nDZqE01xVeGvlbpF88ejTcPGZE8SucvXbFuK51xYhasvAhZdfihLKNxMYC/kx97mnsMbvxJXXXINCN1MiaVZQUPh8UEpcQeEQYbQUVjfdlpsR5DVPYcvmRGfyxAvA+F7ay1VnhqriXcpEOPp761bj27fei3jpKShKtYkEtHgLHv7zPzD5rsfx7+9dDKdVhpOpy7QEDDKMW51Idl/78p9x5uV3InnclZj71tMo8uhhyRjPyQX0uLqe5esXbM+Xetyd15SGCE/uHEa8aKb76S5OpB0f+HEC+5GeutNoRKmgoHB4UNPpCgqHCNZBQg+Js1RK0pC6Fu9HG9f8qQ+pmvhanqU9HYRhW+mioWH9Yry4ZDMGnnomvvzlL+PLV1+Nc06dgrGnXoBvfGkqHMZiMD0OI06Broh6IB72Y/XW1eiIAC2N1di+o1rsVc4KmMEUGHF1RmFciLSEje6gw7gW4TiH0p/hldEZp7A0HPS86+hy7/KhoKBweFAjcQWF4wTZ9GhMG4uiZedC/PHfbyKkv/WZUzEZ11x6JtI8TlJ4rOzYnvwLrffpqs9ozuH6jfjN3x5DE2tx8p9TOgY333IFUuxGXAoKCicClBJXUDhO6Nn05DUr2J5T9QZ43Ev2h6jEOQ4OcSB0HxUrKCj0bZy0XXIWdqr/onA8IaaVhcLmM/8O0hyF8j00BSz19D5+xZD+0MIrHDo6O069UJ4oOXfi46QdiRvZVqMSBQWFLwKWJSxHjHNvwr5y7mD3Cn0PJ/10umJiBYXeg77UHrvTytd9kWYDSv71XRyWEj+MIAoKCgoKCgqfEwfrYJ300+kMvq6trUVHe7tuo6CgcKwR5Y/LhMNwuxOoUeqWvRzRWAzBYFDSLNY19F5wkQYCAQT8flitViQlJfXuEbhOGx9zcnMFvQr746SeTjey7vP5cNONN2DxsrUwWe3CTkFB4RiCJHWUFHjI3w53SkafUeKRkB+hgBeelGy6641EE02sDJk0OvnbmxGJxmF1JMCdwB2P3gwi2KSJXRJ/8fMf44orrpS2auq/B5QSJ3i9Xsw+/0LsSjwNSaVjyCZOPG+sHFZQUDjqoKbWvmc1mta+g9Jzvyfkd28Hy4iGte+hY/vHKD//XqLZ3Pvo7i7CSPlVvvdXJBSNRtqA8bqEi4tzrwPRLUgnmve+/y/84mvn4MabbxGUshJXirwLajqdwEr8vNkXYm/ObKT0H8eOwl4xioLCsQF/Oa1t5zLUL38R/S97gGxYUEu33oyaFa+hddN8VFz5a6LX0uto7pRzfLKYsOu1X8BdNgFZg04XVmLbXKEUha9eA4NulsG73vgDfnDDFNx8y+3gT+2bua/UF5jjGOGkfU+8e29OMIzkGYHubgoKCscAZmqAosnJdtd3mp8UoYLcbgOD3gIpy2TZyuKlezoZlMo9/HsfDPkrj/zZWiDC36unMu4+AFM4iZV4TzBjS8ZQyltB4XiAd6pj9D0BLdWiGSb++HuvRJeYNyg0Bios7nqryGP6xOfx6RyOmRAlJc5f4VcyuieUEldQUFBQUOijUEpcQUFBQUGhj0IpcQUFBQUFhT4KpcQVjgnEghT+0TlO99nJDuSn2uGxyBf6LGKxStfCFfFk9ECPR6W3Tuxz2xNGXGT4W9pWqwV5qZRuig02pkI8DzQhPdGOvBQ7shKtsJpiIpwIS148ThtyyS0nmUySFWZ+b5XdFY4rNKocLR6H02Wj+nQgO8ku6imbGMrEFdetjri+eFMWl8tCPOdEXrKNd2mBhaWfqGoNmRRHLtUxx5NHflIdvErm4PUs/Rw6PzBZgieJH/nlrhxKN4/aQYKZ72U74A/hZBItudRGsnR66IREt434VNrlMx+nOVCQ5hTtKJno7Z7n/aG7HQqp1CYyKG3B82TyqL3w7hlmvf1kJdnInsqL2oOHaSI7Wf5ME9FDhvOUTf7s+oLFTPZPJpvqqJNuMrkUzmWVZXJIOERvJxMsPyLo1yctwpEInnn6v2hPrIArvUC3VTiykItRXG4nrplWhEEZVrg9DkwZlInTBiWjflcHmkmwyUVCBFKW4kq/7Wq9hjt3BQzHA73r2lME5xcm4aYz8pBsJ8GZlYhpgzJwSpEDm3f5UFqSjCmn5ODbM4pQZApjAdkZi2dys9yYOS4PXxmRgsb2ECqbQ4gJQcvCad80Fb4Igi3V8FdvRPqQaYe8eCkj04PzJhTi7lmFKLLH0eyPobY1jChXj6glyQeDBmbh5klZIkxJcQpmVaRhQJIJq2sCZGPF0P5JuHRqCe6cmg1bIIpmXwh1FNf+fNUTHTVbEGrchYyhMw6RZsmVDo8TN8wsFjQkJDpx+pAsnDYgCbW7O9AKC4aVJ+GqM0tw84QMWIMRNHhDcKa4cc7EQtwzMxeWYBQO6mBmkZIdPCgL55fb8NE2L3dNCfvTYfBr65aFsKcWwJ1ZorvsD4vNghH90/C1c8pxxbAkNLWFUd0UQDzBgfEDMnHfpeWYnGNHY0cIIasDZ4zIwnfOKUYOdYDjDqn4s1MTcP6YbPgbW1ETBIZRfNeeXYobxySjrjmKdFL43HE6a1IhCiJerKyPUAf5AOVHVq1bF2Pi8BKMGTMGNouJOl9m1fS6QY3EFY4BWIDwaAg4Z0ox+ke9eOyDvXh1SS0eW9qAJOqNOwQnCskrRJAp3rOVamKZqlTNGo+GhS95PJCg7d6zt1jtuG5GMZq31eKZj+vwv4V78fJWL4rTbIiFo1i2oRFPvF+FPQEzzppSji8PThAjJY52V1UbXlzfhs07mvHuujaEeHksQajxQx09KBwdUP1U723F62tbYHUBHy1rwAfbOxBkjugm5ROTPbj99Fx8tKQSLy+rw/Pzq/BufRzlKRbJbIhi8eoGfLQriMR4BK+ursOqupB0OgqIES+fR+2gItSGhz6oxutLa/H4J41IIaVms3A7ieDD1U1YsicISzSMF1fWYUNDBFt3tODdNW1wJZixeF0jXlleh9dW1OGxd/dgeU1IbxdfHJFQFB+sasSW1hjMPh9eWdME0rsItvvx2uJa1Jts2LGnGW9taMO23a14cU0zYlRYG7c14dVltXiV6Hp1WQ0eWViHqN2CaDSOBSsbsL42DFssireoDl4jP298Uot/v1sJ0t8KXwBKiSscA1ALJ8GlWWzon+mk0YMDaTaz6Hl3tHjx1qZWhEn6CEWtxREh/+mk2NMTbUK5x+XwgtwpJgqT5rEhzcUOmthCMs4Kdz/pRXGxIOe/04HBaQ7kpjpB8o+sNVRVNuP9qhDvfyGnVSmO+t11+M8GH268YADGpFtFevzWEKdJJ+FPbIzR7adwfCDefabyZx4yd3amNKqjrlqRKk2DOzEBpdRhy/fYxWYhJvK/dk011niZscgPx2G8HsZBqJ4tzDtGtEcInZ0+GkkOynIhndsBMyD92xs68PbmFkSpDXDSvKEJg0fQJrrhfAleFLaacLcSQ/Ko1BYL47VVzaKTbPj4IuCytfA0uKCXR74yTi5ZK7cBcc1+qA0zXborX7Md+7cRbXUNbVhZHRauoo1xXuho5tE0G6qMtsY2vL/NJ9qhwuFBZ5XPB/FMRxllPocRgodGOR/v6kDhwFzcf0EJxuQ7SShoWL+9HQ2kjBkmUvRnj83G6UPScdmkYtw3Ox8FbhoxURwmuw2XTynCl8j9+plluHNGPi4fl4X+qTaKfd/0CHymfywQwPzKIM6aXIJ7puehNNmGOEm8T7a0IUwCR/dNo/IInnxzJ1Z12HD3xSUocotY9Z+ISigAea3/uqWpzLE0hjrjn5wVEfVCZ2lvwITWlnZsaNZw7bn9cftpWciiDqAWj+KjbX4RjxGWLmR48Zd8IdM6QobjI2OmtOfvbEdxRT5+eUkpTslxihH4uu0daOTnAOypG+IivLSWapB4NcYjdg3W5ARMLEhAnJdysFv39A7TcJlJw9AQJpqiMepck+E0O+kxwoiyInvqCPPaA/aTneHG0GwHXcs4+M9xsr8YtXWOK68oDYM8Zrpmt27xKdPDHAyHpcTFyEQZZQ7V6D/u3X+wqBK/n1eD1IIM/Pzqgfj2jDxkaxG0kqDgwdXkCcXoF/XjnRV1eGr+XqT2y8VNE9PB63aGDMzGuWVWvPhhJZ5c3IzJI3Ng8wVQ65NSYN90DTsW2E++uQNPr27D2DEF+OM1A3Ht2HTAG4SfvAnq2D+ZgM+Hn72yA8HUNHx/ZgF4xpWbkXDW/SnTuwxVywHshbWosxDxyG9f3Ir3asK4cGoZ/vyVCswelITG1qBQKuyPsV/4HvdHwHAa9OMR64JFe/Dg3Gqkl2ThV18ZhO9Mz0VqLII2UnDSH9PVLWyPOMyYMDQL54/JwlfPKMKwNGsnjzL2C3MYRjRGQkKiG7PH5uCCsbm4YAybLGTae6bB4NmCYRUZ5I/9ZuPKybnIMtoOU637cya4cM6puTh/bB5unpyNBCt70OPoFqcyXeZgOCwlrqDwucB8qAsFMwmqNxdW4ptPbMZr2wKYNqYQv726P0Zn20kQWHDmkCSkpiTjglPzMHtMKtata8D2lqiYjsvKdMFEXftQzIwWbwD1fur5UzfeFyGBdwBmF3YiWROCHV78883tuPu5HVjVBnz17DL84qJS5DgswguvDGZ/HKaxqhm/ensvCgfm4euTM2HnaLhHfPD2pNALQbWKxoY2/ObZTfjhG5WoNznwvUsG4IczcsS0ueTMY1W5ktMssSheWbgHdz62Ga9vD2D6+CL8jtrByEwbP9khP3LUui+YSrbfUd2BNXvasWhjE+pDchZLzE4cgtA/NMh4wsEQ1u5uwxo2e9i0o0MfOfcAtY/qOi9W72onv+3YXhdEhKMwyOGskJ9oOIJ1u9qwdmcrPtrRIdYHCG9HjO6TD0qJKxx1CGFEDTgWt+KUfolIoB56TUM7/vziFtz7aiXiScn4yug02M1WZCYAS9dU4T/z9+DR+VX40+s78J9PmhCIm7BhUzMCThcGZFiRlU4KPRjA5saQiPtTQbLBbLJjTL8EmGI8ZdmIn/53E/6wuBGl/TJxfoVLX21OENGwIjdjzdpq/HlRC06fWIzLBrvZQaEPgVmCq5Of7yZ7PBiU70I8FsdHK/bie0+sx5NbQpg+rgDjUqXyMFT50YRQVMRb8bgZEwclkyKX7eAP/9uM+17fA6Qm4cpRqXDoHd4DQbQliqapNYiqpiApwxaxqE0qb1Lmn9UWDgMx6jTvbaa0hAmgsilEnWhZZl2ge0q2tT0k/TYGMX9VA7a26TNkbPRDjOqgmvxUkvlwbTNqgpLeQ5k2VjgwlBJXODagBswrvgeUJCPfKScLLSSsPllXize2+mEXq8bCqGo34ZxTM+GymWHjhTJWG6YNSxfv0dbVt+H9HUGMH5WHc8rceOj1rVjXEpP7K++DrudJlJLZjFPKU+EmfyxIo5EoXl9Uiw0NURApun+iSb/mE5MzZ9FuvLgzhEtGZcFJtPCiu654FY4vZD2I8SpVh6hprhvpSNDgSXZidJ4DdqcF44vdYjLIbLYg4A/j4Xcq0ayZSWHqlU4wwos4jEiPMERngf79iR/zbDIB3ntg0ao6zKV24LTIkakE+WbvTJcwkiw9CmEsNLLd0RqmGw7VFfKLoDM9kZA46mlzGzDu+WhA7v0g7PmWvLV7A9hFSnzM4HSkUtuVPggiIukn3O5Hla7EFQ4fSokrHANIYcStNyU1BbeflYeiRBqRUK88Lc2NssQ4XljTjCAp+RcX1mDIqCLcNysfp1Wk4pppJUgM+mgkDgwbmo+JSREs3NaK5Tva4ExKxIB0W7f4Px1D+mXjxomp8JBA4QU4pQWJsPi9eGWbT6z65RW1Ho8Njjh1CvjH8ZGA/M9rO7CkOkwNpUtAqqm/XgC9vnnq2Wm3wEr1Y7MSH5BFPB6nzp8Fl47NgZ2URyxuwhlj83HZCA9sekdsxIAUVG2rwcfN8hk0h3E4LDBZzXCRUhWLt4xEjhCMGJm3klwefOu8AmQ5zWKRWnqmGwUeDf9b20LtQGbPwW9wUG/SRdeczzjRbif/FuJGN7E92zHM1EnlTDBfHgneFAqconHaqDwofasoC+ECzWKB2yrLnBd5crnZqcys1H74HW6+j8tVdlTGmZiWZUZ9VObHTvHxhjEOE9WBIL5rKl21qcOH2uyFECZhrTZ7OZowRAA19ngIi/eGMXVkDiaRkh5blID5C3fjA7JjZdpY78WC6hDGlaVgYIEHu9btxes7gySwaARNAmT64AyU57gwqNCDgXkeTOrnwY6dbWjmd00/RQ7wa0jtXh92BK04d3QOJlSkoCLZhMfm7MEOXxzZhem4blwGkhJsGJrvQU1tO9ooPpYr4VAYa/YGSUhFsbWBRjwsMBWOCj7/Zi8a+g3IxqXDktHcGkJmlhvDy1Mwrn8qxlekIQlhvL+2FVHiu+317QglJOH8kZk4lRR4UTyA386phU/sR2DDxdMLMTzdgtqOOMpyEuGIBbGzJXpQOj7PZi9CZcmmALspjHm7gzh3XB4m9Ceai91454NdWES8b3e6cPHkfAzLMKOB+HNArhtaKIissiycV+FBXXMY+USjOxbGVmL8Qy0rZuhD2ezF4aLymFSAAlccTREzBlB7q65qh5aWhJun5sIaCLEWR2kKdZ1Sk3DhkCQE/BEkpbowvIzKfkAaTqXyH5PnxPzVdaijOC6eWkyddaDBr6GC2lhTkxeNNApnykW5fFoWyH7/zV5Y6evuCtyZ4n7hyQvOfgcJ+PPPuwBVubOROmA8W+quCkcEXJ7U6nirTB4Fs1IVnxXU7bknzwpcvjZEdvQPyXdTaHRlEava45oZF0zKx+b11VjdEBGfn+YlQkOH5yOrqREfN+rTdd3QnbXFNf351RYWHfys1E4jHU6RBw4hsmfBwPc26iyYKAET0cMx8DRslMJbaFTC7gpHHlzOrTs+QcOyF9H/sgeoLg5S0nrd8jNWZhUxVjSC6JXGaxtsxFtixCjsNap/GY4/G+rgkbvgOeKLCPGmHiczAisKfg/7YGRUr3gd7ZvmoeLK34o4PxsUPxNC3sLUDoj9KF3+vKZsEzabifhatpMwjV7jnAdBEtHD0+xMP4UTSo/A/Ul+H/uQlDjFyQF2vfYruMvGIXPwVN1hf/BoOhLlEtXLg9Kz8awAxRHit0joxy6cLL/fHdVH1QeClcqY/hSO2x1Bj5LrhfN8UNrJedcbf8C3rz4dt9x6CxKojFheHEqWTxaoYYXCMQC3OFaSLIyI5UjY2WwW6sxb4SQlza4sP6VoIJCFQ7hbhHIXQsPpwDkjM/DVM/IxiUZbo2ikfvboAswuAJaRUg+EogiQ5OtuQpEoguGYFDwkwHhq0kFxcrwcv0iIOgcmkkROElIOnupjegRBJin45SWNxMmffq/QC0CVxBvv8LQ516kwNuInqldRx3Qtpm+FV6kweNqZ3dnNwXyoiz+uV1ZSDrvkDzZCOQrXIwyOlIyMnxSSoIfSpbOJeFG0AKJX8D8ZB7cROjP/cdsRduSfw4h1JEcB3E7tpCyZBoMOUY5mSY+gWZQ3d3T08hT3Os0iPxyeaBb1JKfSDXfZrrvRrjd7hcPD0eECBYXuENJQiAFh+NcJumShIXrk+rnznn3SWfT9A0H86NntqIELV59egBum5iHbEsK/P6iDMzMFd80uw7fOK+9h7jqXzrPL8ZVT0+AUe60zjLQpTr4Wf06He/c9aTBGCtJeD6bQa9BZJaLauJ742qgvOgs3vjbcpb1w4LM4STvpLnlAuAg/fHEkIdPis0yD7/kkxbC4FXTo9p3+erpJd2nE9RGGTEMvC5GOtBNuwl1cEohuYdHNnq9FuK7w/F47H/lneOKTESdbKxw+lBJX6BPg9s6v4/zpxS349hOb8O0nN+PZVS3oiAAdZP/Qu7vJ7Opp3tsjzs+v5MVCSlIoKCiceFBKXKGPgHvv3H0Xl2IqVXbk9bk4fpZIDt0NP3/nx3XGo04FBQWFEw1KiSv0EZBa5lU+pLnlIjWpmVlZ81G/6bTvtBMQ2l6Gk57EvcIJhG7VLi/3PXYt05KQduLqePbyRNJ6+p0n+gkel3b6qRPHlV4dXSQwgUzvvnTxNVvq18ZZXigcQSglrtCH0MWurJbF18sIrMh57C2vu45sx34MsSHUPd3sL3AU+jo6FR/XNp253mP6NIxhrR86IXlDt+vydEwhUqUD0y7fsRY3ZMurudkIH2KVOl/zany+Ev9jSHO3kupMlz+KIi67tz+yMIzIj/QqQ7Nn6a3rrPCFcVhKvHtFKaPMsTAG39FBCASr3YZJQ1KQzIvMhQ2QkmhDdpINmWSS7CRYzDaMHZCEBMu+EqNrZK7MiWEYeq3SBW/mk4zReXZhx68yJibYkeYwZnFk3RcWJqHMY6FrYSXPdDiWRqZMJFssGD8oDbkuk3idknW1y2VDeoJZvFrGP35kNKoiGclWqeIFjhHNIrnOe8DjTsAZgzzi9TGyEXug8yeCPXadLLpP9CRgeJGzU8lwZ5v9ijiMszIHNQfDYSnxzlWHyihzjIwholkUOD0uXDY5Fy5/GF7R1ScBkpeKn11RgR9fVoGfXDYAp6RZSRhGEXB6cMuUbCTZWIBQXOKnePhEM3Sg+hUvMmLYkBycVeRCbVsEFrsVM8YV4pfXDsE9kzN0pcMwoaY1gnOmlGBqkVT2B4r3aBsG03jx6fnIjoXRFOb9CEyYMDIXP/rSYDxwTj4SrTz6lh2QxrAdd8wsQpZTKk/usBwo3qNh6CDoTctKwnWTMtHYECTlDSQmJ+DKacX4y43DcOVAt+hgsNdAJIrs/Ex8dUyyLF8RWj92i1eZzzYHg5pOV+gjkMoaFiuumFoI755GzNsdIEXNdhZMHuDBn5/fgO89vRHffXIj5tfwftLA+nU1WB5y4ZYJabDzdo/8I8EnBKDCCQMh6kjJ5Zdk4pJ+dry0vB61fhohRmJYvLYB65uiSHTwq07CozjGvAH87YO9mH1mGYakGCPyY80XZpx3eglSW9vw6hav2MyFN2ZZvbkJi3f6iWbeR4F/rPiAql31eG5HHHefXYAE5mOxoLMLhzJy+7wQI0KRShwWhwPfo47FOx9XYkOz3JDJ7w1izvJGNEYAp5gZI0KJWP4+/9wVNYjmZeNK8aEh4V3HkafzZIVS4gp9AoaQrhiQjUnJJJh3BYQYYJOZl4Sp+Q4MzE8QO2+1BWMw3ijj08er6lE4KA+TcuwygJTWCicUSGFbbLhpajY2rG8UI1pjFOP1RdAWlgqH0Tm6IQUYJwX00rYIbpySBRdJQ3723MkjR5FJROzxONLyU3FhiRVzNrTzvkMEps2EQCCGVp/xbXF5MEZmG9bXwpeZjvP7uY42mQKSBjmPddbkIlirG7HNK3c45KT5OX17RwQ+OgtaBfTZg3AUb33ShPOnlyDfznXA8YiTwhGCUuIKfQJCWJgsmD02C/VVrdTrl0KFBUWy04qtNNK6fGZ/PHZDBcbnOoVwM4ReNBDEkkYN55+Srn/msUvUKJwgoAovKc3AaHcMq+tDB9cRrIHYEC+s2NGKwYOyMSSZxSGNOZlHjjKLcPQxOp4zNgeBuhZUBVgBcvoHS5i/PxDBezuCOHdMDpJ4/+GjrBFFCtThMdld+NKp6ViytUUuWCNaxU+UY0+IDV64/dF1S5sXO+MuXFCRLPIsKT7KBXwSQSlxhb4BavnOZCeGZViwvU4KaTa8OeqWzQ3401s7ceu/1uODdgt+eVkJ0iz8DJHHA7yCVkNtbRCluYlIdojYFE4wxGMaBpYmI9ARRht/8u4gkCqER+sa/I0B1FvsOCXfLpSLVD2GObIQfEv8yMZs5w/uuLCrJiiUm/gfNEmKwWzG3mof8nI8yPZIPhcREw6kUL8ojBiT8xIxwBmm9heVFpzmwZIzxRENxVDbEsH4fm4atRv2+lnhC0MpcYU+ARZOqW4HEp2Ar1NI85M63o9dfoihvSOIf724DavMiZhWxJ8oJUHJe6PTVTAYRUKSHcl2i5Q9SoicUOC1EcXpLoRjcTK6RhPKjQ781zWdYSUuDJCS8ZJlXrpT7NV/tCBoEInL0avTYUVOkgm+kKRLTEF3p4tvxF8qfb5m8rjjEQ5EYHbbkJpgZRt+MnDUYJBUmJZA5UNlFaSbHul9VqeJVAzVhy8YQ1ZGAiw0hDfiUzgyUEpcoW+AhIaFtDV/UOHT5ZUJkXAEK3cH4XJI1ma/htDg/ZytSnufoDDBLpY8cG0bta4rP4MDDCf9njlEOAvNzd8jNx9TgWgx8YdWumg1NLGgyaC58ywhp6H12QIKazdTD5YuxVOiowU9bvH1MLqWZHKiwprA13xjzGFIBw4mjHDmj9WYwV1rAZlJhSMApcQV+gS4zTfSEKAtoCEpoSfb8mcTpehgaUFMHfJj0a6QcDNEBX8SkRfZdMT1xTdHc+iicMxhMsWxrY46b+ILZcJG1j0rF/kXduIsNF7nm9YETSiXdm8EXcvfjjzEM2Jh5L0/HEZlC5Dk7Oo8yE4Iq+ou6mQG2EYuJuPV62bucITjaKVOK/uX713w1dHD9gYfpWNFspNuOpWwfuZ73Y4p2ZcOK3WUQh1hBDj/up3CkYFS4gp9BsGOEKr8GjJ5hxcpjWEloX3NOaWYXpyAaCSGotwUtO2ux7bOKT9+7mlCeoYLe+t8aPXLqb/9xYxCXwZ/ZrSyxi+mqJ3GugddW0SoqvnTnzzoDUd5ypo/+clT0NKDOdWBfFMMy/cEpC4iu6PNHRx/jDqV1c1BZKfYhXJmalhV85lYGSY7f0JVrv4WMwrkic98mZ6dgOYGP+raJD/rWTk60CPvqPejPm5FVrK47SojIiFCXuxErKCdO9VEpAxFZ7sFmZTHT3Z0wCo2XjqaxJ58UEpcoU+AnwNaIiG8tqoFxcXJSBRyQG5T6QsAk8fm4RvnlGCgJ4w31neIMCwsxFSezYYxBTa8s6oeXvU1sxMSJlIgG7fVo8piRz+xepGUB+mLONnPHJ+HfHME9Q4PrhuXDqsYibOiESExqCgF9ZVNWNYYZUYT9keTS+QUPwnfeAyvrW5AWmEyUoUkZnszYkTDmJG5ODXLjO1hK66alItk3glNnz2KEQ9PLk/AR6tq0UQDcVad8nf06OaOcNTnw8sb/BhZmiwVB+eDaDIlOHH11Bz4mv1ILs7EJUMSWa9LkJckch+YFMXL61pgEYqeFfzRLOGTC0qJK/QZsKD+ZE01dpvcGJUnh1vxGAnCBbvxkxe346H3KzGHN8zoFBEsZID8whSYahrx1nYeniucqNB8QfxrcSumDkuDix+fkJ05Hsf8ZXvxi5e24kcv7cCTy1sgnr4IHhET1Dh7YCKenFeDVnI4moqwO0Q6pBh3bm7AonYrzujvlBsXEU381tjaDXX4zSvbcN//duDhRY1o56EudT7Yh4eGwgPgx5Or26VeZ3MU0Rm9FsNzc/eg38A8ZHDzIwee0YoFgnhu/h78+IUt+Plru/HmVi8pFnYkV8rjkIHpWLu0EmvajjqpJyWUElfoExCDF5JYUX8QD39QjaHDcjEi3UZSQU4xxkhYR2MsUkg4kx39BTLSkvGlwQ48/GEt2sRAix0oMsODwgkDE0mzVav34kOvHVcOS4VYuE38wO8406BX7BjGe3wb/BGjALMmFqBp517Mqw4LfwJHmTUkD8qzFo3iyfcqkdU/H6fl2gUvc+eC2T1GBIuPtPANg84OVwJuPz0Dj7y3B3VhPR5xPIqgzoOm8djaBF9TG375cSuumZyLTLFPOneG+LO/1KHWjShH+rMCH1yagampYfx5SbPohHcN0RWOFJQSV+gTYEFhnBtqOvDEogbkFiYjrfPjJj1FGduaTDaMLrXj2fl7sb01JgS37rCPb4UTAaJ+ozG8s6gSq3ykQLIcop7lsq+eYMVYVpqCaFUTnlnWhijvXiKm2Y8tzES0t8WHf8+rhjsnCbkus9Bzkj8lPWL6nQyN0XHqQA/e+WAPltWERSdA5Pmog9uLkZAJWzfV4L9rfRhdngSb2GzmACDrpCQXStwx/G1uNXxRXdVQNLKLonCkcFhKXC6uUEaZY2j0hm8c29t8eHdNE1qNd4J1GP7Zo8Y7W61owK72qBBB0lp3E0aPW5kTxFAlsyKOxbFySzOWk6Jjq06V2M0vY8/OFry/x6/vV84ejgNP0I8VZMgXxJxVTagNyilzdtsXvLHRwtUNWN8cFYKbl+cdK5oN0B0niL117Xhvc4fo/IiZg/38a/C2+/HO+ma0hPheDNE5NEHONewbRpkDm4PhsJS47AGeQEZmSr+WDb7zXpleYUS18DPBbnbM3zw6kW5cZT3D0F9sDyn87mPPC+W67pXpFYZ/Jt6u80B1eQhGMAHzg4hANGO2kti/vuX4nO3pxEH4t4+fQzeHH16kzWdWbN3djF+nu0l8olReSp5mu07/h2A625DMssC+fg5k6NDtXm6pylPnbN+zbXUZSkm0UZmOjENe7hvf/ob997gXQXranSzmYDgsJX5CgspK9nnkUXCfQq8BsbM49oS8Zzfpvi9kIxBGt5E4UFwKxxesEb5gm9OrtHvtCs74FGEouELY6+f9vXwqxCipB718/UXp34dPO2mStuK2271At8tPg6RVomcKhxD4oNiH5v0gy76HEbYHg6RYPov/guV6gkMp8e4Q3UbJZAoKCscWutgWx74it1lWGCPO3oju07HGlZBwQpOyjWF6F0S5CtqVND4YTFRQva8GjyE4+x0dXsyefSGqMs9CSr9TxRJLbpikzxUUFI4BeKzYunMlmla9jn4X3keSqReOL1hUCu0ib/m6dvU7aNuyAP0v+QnMxlR+b4LQg1S6RDtPg+9++/dwl4xBxsBJ0p0zoa8m710gwgXtwO53/4ZvX3Mmbr31NiTYTHL7115H7/GDUuKUfZ8/gLvvvgcfLlggXkFhBa676mcFBYWjjXA4Qm3Rh+QkuSUYC2ox/arL896naIjmSBS+9nYkpabJhWY6zb0OXIBEVzvR6m1vg9XuRGpaKiwW8UY3GZ3m3kQ6F6egx4TvfP8HuOD88+Cxm5US3wcntRI3sh6L02g8EEGrPwxfMIoIv2980paKgsKxQE8pHKcGx00uGuVXAc38tU3x+lV3Yd075HYXFUxvhOjld7lNRDDpQ7FNKtPdmyBEGR2Yzkgsho4Q0ww47VY4bWbxERYmuVORyxC9BBqsVLAelx3JCTZ4nFbYBb29q4yPJ5QSF2cgEInBG4ojEI6K1ybYpYupFRQUjix6ti3erIftpBI3wUyCmhWibIN80TU/drxwIEnJsoI7ICwwpBKXCqa36BhBslgcZpZKnMo5ECW6IxrsdhOcVpNU4kY581E8Kz++MCQwg/e8d1FngxW4y85fMmQapZsCNw2lxEXj5NF4MBqnnqrcj1syyUlbNAoKxxTidX8y1PQEWBlKhag79EKw3GB6o0JJkrIhRWnmvcF12cEP5noHeOEddza408EyjlWk/CCMzWKUtVSMkuLj32GSXTpZjkybxWyGg3pJ4nOxOq0KEietEjeyLRiXrmWD5L2dZONk5iFHvlBQUDjKEO2Rm5y4ob9QhsKp94LlhdTfgmZ+10eQTIfepGQ6RTyXK13ztqiGwjae4/dGmqUSZ7qk4af3rMClXe+h9XjjpF/YZkAVg4KCwhfBgSTI8VY1hyrV+oJKVIr7wFBKXEFBQUFBoY/CrJ8VFBQUFA4TPBZS4yGF4wE1Elc4YcCsbEy5CabWWZttDCaXzr13Wo5JFjTKDPBBkCuWGhn52WdaUXrt6WY0a36uKK70OIVrz+C9DpJyIpMu5LX+fPQgdLPfTi8ibBc/KCicqDgsJa70vkKvBfOmLrjjsaj8OAP9eAWueNGmrwj1fTSSvD0w7T287gPee5oXX/F7zKzOD0UZHm9wbsUbInpd8neoPy3vn4XunToFhb6Kg/GwGokrnBDoYmNWACGseOlh/HXuDuQkO+A3uzBtygj4o6W48twRQon1VtHemQ9dMzc37oU5IRspCVZpz0pNXkmQPxnCOGqoq6lGWmYu7FYN7/znAfz+pc245+e/wdRhucJP71RsPB0tz9WbF+GnP3oQ2xrbMXTWdfjZN66Cm99l/iy6ZfZF/hktTdUwubJEuXE4pdAVTlSoZ+IKJwZ0Ic7nT174E8697xXccfeP8MAvfoHvXDMDL/76+3hhTaX0QALd8N7b0KloTBrCbVX48R3fwyc7W6TiPoAS4px0z42vYQO+8c2foa4jQnchLHjlJbz39ot4b81e4d5b9ZihwIlC5FWMR39HM+bNfR8rNu9BlPf2Pli3i5xlOWgIte/Fz7/1f1i6vUU49da6VlA4ElBKXOGEgFB+9I9HA3j84T+iPajBZY2JEVjhwHF44Lc/QzmNyjtFOtnHYjGxQxhP3XaCLjlMLBYlNzKdZ/YXR8y4Jj/xOIWna94oiMNofE/uvPuYuCcjotTj4/SkHfvV4+L0yS5u0MLh6OdvbsCDd92Ify3cSOEovKBRENdJd4w/Lk2Qil9DW91OfO/Kq/HW5joRXyzuxO2/+SeefOYF3HneMD08/Q06dXr2pVO6cR6IRkE3XwsPwk+n0eNhI8qG0yQj8iCTEv5E3rrlX7iJMxtZDtKNAnBWTGbYnZZuajsu88N55rIlGyNuDifSF4E1+Frq8Ye7bsY/560iNwon7DnartgUFE4kqOl0hRMCkotJYUQCuPuioXjwzZ0oHz4V3/3Zr3HBaYORnhhH1e4gSsoyhOKo374cD/37v2jxh5A/ehpuvuJ8JJPi0OJR7NmwAA/+5ilY0hPhbWmEPxwDbAmYPHkCNiz8AE1hM6Zefg1sW9/FnJXVKBh3If7vK1PxzuN/wMuLdyB98Fm4/64vIz3BCi3iw/IPXsXTryxCxGzDtCtuwKxxg7BzwfP43X9eg1ezY+rFVyKy7Fks2hnCrBv/D1eO9+Du66/H356fi5ArE5dccinOv+pGXHnGYFRtWo5nn38eNc1++GI5uPPer2NYYQbizetw5SXX4H8frIY1ox+uu2wW+pXkYfPadQiQopt2/f24ftoARINeLHju73h2SaXYAWvWDffgrOE5sJpNiIQa8efv/xDLatuQWD4Gl4zIwnOvvInE4rH49j23o8BtF8pTqFBS4Gvffwp/fGqu2Kq4YtxkNC5fhKaohgnn34zrL54Il0VDzfY1eP65l7CzrhntYQe+fPM3cfroIrCKjoW9WPr683hy3lqEOxoxdOa1FG4qEu1m/OW2abjrH/Mx8aaf4+n7LsOjDz6IzW1RjJlxGW750gzYqQ5r9yzG737+BKJ2oPyMa3Dd9Hzc/7Vb8bdn3kEoIQsXUbnN/tJNuHrGSNhE50AQr6BwYoGVuIJCnwcNuWg0SCaqbXrv71qm0876Rpj+p87UHnp9pRYIRYSf2g0faDMG5WiXfucfWuP2j7SJZWnalb94mdxi2vZ5D2slqVat+LRbtFZfu/ajqydoFotTu+p7P9PW71qv3TmzQoPJpg2YMFu77/6famOLUjWzPVGbcelV2v2/+o12SkEipenUHnh2jRYjWj56/Adafk6R9s931mnzn7hXy8oboj06b5sWbNiqXTk6TYPFohWOPlt74LuXkjqHltD/LG1zc0hrW/mYlp9k1ky5o7S5GxsE3Rvf/4eWl56hfe8f72gb3v6VyFvp6TdpzUHOV0zb/dqPNKsZmmvkJVpVS5Ds/Np3pvcX/m57aAH1T8Lai7/5upaanK89/sFO7b3f3aRZE8u1x95dL8Kz+fChuzUXxWFLzdC+fNf92vQh2RTeoX3zkfmCBvrr55gWDjRpt88cLOJPyBis/fT3v9amDs2hPCVpP35mgbZnxUvaKYUp2uxv/FvbuPRJrTjFomUMOEtbVhvQYpGA9uKvb9FSswdoH23v0O6dNUgzWVO1v7y5UYtS3H+6eapmoXin3PxzrcUf0J796XXa1x54UmsNMp1RrX7Vq9qgHLt2y5/maO0bX9FSEtO1+x75UGtcRumkWTRz3mhtzvp6qgOmVRoFhRMRajpd4QSDGQPOuBkL5v5PjDD5a1hbl76NWy+ajp/9411EoyG89ugv8e7GMIYNKUFHMA63x4K3H34INdEo5j7/Ina1RDFk/BA4nW6MHzMKTgQpXDH6Z6TDaqfhnMmCyV+6Ez/67k2YPrIAcYoz/7RLcf+3v4EZI/KIhiD21FUh2rEVP//VQ/DaclGYSqN8dwrQshX/e+VthGjka7ORV5MD5371u/jm7dcjwQH4a2vQ2BYSU/y8PSZPMURpdMuwxKxwm6LYtmUTli7YJOwaN21DQygmruWRgvDUtphpdyApxWjiGtqr1uL3Dz2GWGISSsuL0H/UMJg6tuPu3z5CrnKoarFZRZm5+52Jn9xzF2ZNKCP7MNZsrRFxSMMwwWxxIj85Vdyd9427cc83voP7b7sECaZ2PPvfZ9AUIgosNrTt2YyVizegncra21SFhtoO+BrW44E/PAFTykCUlybg+l/9Bb9+8Fc4c3Qh1aD8PCaD3ylY+TqNwrPPwC+/fRWSuPwjfjz0259gU4MTwyoy0W5PQDo68OJTT6IpEOaBCYXkcjP2RCX01sUACgpfEEqJK5wgkAKbXyvbsGUL+k84D++sqsH7z/4Z04Znk+Bvwh8fehAbqttRuaWOfPqw4N3n8Njz8zDp4q/hntvPgRa2YNCIfiKevZW1Qgk0t7QiZnaiuF8B6QFSDqwfSCG47FY605CVFQbpBxspF6E6uj2dCjZUorbRh2D7Xrz0zKOYv8aP2+++FxdOqRDkCiXNYR02mOwO8UEKtjDi0N/wFn44TZ4yfv3tx4GVr2CHPVFYS+XE/qgpc3xsJX49rxitDbtRvbcdDnsaUhJJYbtc4DXvTZu2UmkwyDfFwbE5bRZYrVY4HHIdgXzuLtMSsXYqRUmj3eYmWw0pebkUzoyq7XvhLp2OZ15/DqX4BB9u9SM1hVeKk2citXXbMuyuC1Be+Rm6GWVDp+I7d96EQdku6UePf+OcZ3DFDT/Fy6+uQFuIXxmkzkokgD07NlMZejHvhafx8BML8ZVv34vrLp8Km0XvABBZklKJXvBhLgWFowKlxBVOCPD74AKxEB7545/g1ReCTbnka3h7wSJcOCIb3jYf/IEoPEl2cgvBVjIR9/3wPvzwhz/Et2+/EdkuEyZc+1M8+tPb0DLnMdz5tZvwq5e24Zu/ewJ3f3UyLEIxSNA4Wd7oFl2621AbpJxdiXA4zQhHYhh+zrUinR/edx++fM5kOPhLDsKr7p/p77zka77RjUhHw8b5D2PatAtQmXcmdQTK2auADMaKVlwQDMI6iSKYYHd4QHqbbHlxGI1UvR00xiakpsAhAneNXOXIXCeDIPsHHF9n14KuOhMk6LaklLksUrMz0bTtHZw/43x82JyHS6+aAC1CDnpBOT2p1EHQ0LpnBZauayYbipcXr+mLBI3oysafgysmDcOqdx/BLx55S7ibTRYkUHimMXXgNFGuPyBz51cuRJLDqgeVORD11O2soHCiQSlxhRMChojmc/PKp3HXH19CO384mWziJifSExIwedZsDCrJxClTpiDRAix85Hd46qNV2L15GX7/1z+hgbz7Grfg6effws/nvIf/+/59eOm1F3DXlWcgUUx9k1rgBEjJaPztTDrztHd3aPo9Kw1rxgBMGNkPZn8tHvrVb/DJlj345K2H8fgb7yAolJX0KeLztSEq5sNl+KS0PDgddmhBPxp3rcTc5avx3nPPoqpNE8qvcdd2SUosDK8vJMJk5BQIxRXu8KJ60yJ8uL6K158J8Ert7NKROHv6KHi9Daja60dzdTVipBC/dMW5kNmTao//IhvxOPmVY3RpoaPbsNZQ42FfkLyYUL19NyIRE8afNh6757+OLdUdcNnsCFbvRjDICp7i7PAjsf9EzBxTQvmrxY9/+H/YvLcOH739DJ5dtBGi1rhM6GzzpOGuP/wBk0tteOLXP8JrK/fC5EjE+NOnUqcqhhf+/H28vnIHdq98F3995EnAnQmXw0XxBtC0aw3mLl4tPr3ZRamCwokFy48I+rWCQt+Frle0WATLV36MUFszXvnvS1i1biWe+udT0IZfiAfv/wZyk2woGDQK6ZEmfLhgLl559kWsq43iytvuxpB0G9a+8jvc8493SGE+jX8//C/88x8P4a9//RvWt9uRbarFv//1Aqrb/fBFnBicG8Vf/vE0GnxhUsqJOKUkjl///hE0B2LwwYIZsy7CjInj0bzlY8z7YB5eevktmAom4dqrLkHzinfxh4dfQJMvhlA0CVrNXLz+4TZo0QCSi0di6tSxCG/diqXLl2DlziBmX3ABSlwteOe9RWgLxVFSMQIdW1agujWEwlPGYfygItjTM7B3wUKsXrcEqxvTMCq3Bn/552to9IfRXh/A+JkzcM6ZE1C/dB5e+5homv8Rhp11N/7yk68iwWZGPNyCf/ziZ1iwcS/8wQhSqefy7isvY3dzEKaAA2ecNRXZKTSUJ7DC55X8C196HHPXV8JscaFlzyd45PGXUXjaDfjdj25Hlt2L99+Zh/pgCBl5ZbC012B7VSsy8wbizOkTcdqpI7Bn80rMe/ddvPDym0gomoBrzpkM395P8OCv/ontTR0IhSw47expaFj8Npas34hPVm/FKdNmYtrUGUipWYk5iz7Gi08/g22RItxx243Iy8+CfxuV29LFWLHLjwsuOh+l2cmi/9X1CEBB4cSBesVM4YQAs7FQLDzS83vhTnCjoaoSfl4UZnIgNz8bDiu/2MRTxiZEI0HU1dYhEjchNTMbiQkO4dayaykum34h5u9qFP7YaFoUmi0Jv3z2TVw5Mp/6CxopLTsSPXa0t3pljFYbKT1SZK0dsj9BI9ys3DxSjiYEO5pQ30wjWqsDOVlZsJNdoL0FDS3t5Je1i43sogiHJW12VxKyM1MRC3SgrqEZ1sQ0ZKclApEQ6urrYHKlkjJNQHNjLbyk5HILsmGjvPMz+0BrK+pa2+BJy4Ej1oHGVn0kDTPSs3OQ6LIj7G1CdWMHTGYrMnMLaKTMZWcmpRxBXdVe6pAwFSbY7HbEKE0eyJpgRUZ2FhKcVorJzBbidb5fXTMd9z67CNf8/Bn8/KpxNIo2IyUjFyluq+hQNdbVI2xzITs9Fb6WBrT548jMzobLLicBA95m1JOyNtscyMvNhoXyEQ60Uz6bEeNEKL5UChtqb0YgwoRZkJZF+XDaoIU7UFXbJGYAMnLy4XbIXe2iAR9q6xtho3LLonIzVLdS4gonIpQSVzjh0MXS8qmtfJ4r9I4csdNFd7aXyp+nt2OY+9fv4GtPNOK/D99LioY9Ag0b38cN3/87fv3MG7hwVCGHkAG7gxUE+RWnfZqUtBNXZHQ3spSxGH7lnYEDxdHDj3CWU84MERv9OZyRnlBadNE9JumP86pbGNDpkb71axGXLBu2Y1cJeR+LeHH/FWfggZeX4+oHnsWj91wGi3DnNNhb9/Ay1gNQI9Ftir6TNiMjPaDTYdDbzZ29y+j1dETkMlUJYaGgcEJBPRNXOOHAikMavpGiu1N86xddfjotyMmEzJIKFCRsw7+efwdz3p2DOXPew6Illbj1G7/EzKH57FF6N4wRj7hml252umGf8rqnfwnpvi86/elmPz/Cqpu77mz4lWdh0emny19PO2GEZ+HSdc3+9TNfGn75hmc8dq+ag/fW7obFYsHHbzyLeSt2yKVxpJA5ZM/wHK7rWhp21E3nRTd3vuv0axjdjoPs4y7CCw+GH8Of7qagcALisEbihxFEQaFXo/tYraN+B9ZsrSY7KfzzCgaitDiVrgxFwL5PdqWgoblqKzbuboTZbBIL/LKKK9CvIP2kLxkFhSMJ2UH9dKjpdAUFwv7NwFDUfOYJK+kumhM1KsP/wRrYiQgehUt05Z07ON2nyk/GclFQOB5Q0+kKCgQx/dpN8fBCL3FP5266SoEhykkvlG7l1jVToaCgcKygRuIKCgoKCgp9FGokrqCgoKCg0EehlLiCgoKCgkIfxWGuThdHrF27Fu1tbeLxmHoapqBwbMHNUDy752ux2EzYkOmNkGKGV/yLn/h4jEFzLwUXpdgEh+jUi1bJOYWjD8lsdqcTo0aOEh8i+ix8ISVeWlqKhlgazI4EYa+goHDswAol2LiLLkxwpBV129Sm96kaIZbowB8/jnY0IdxWg8TCkYjHI4Z+7Dz2FsT8rQi37IUrf4ghV3uAV+OrxXwKRxZCuUKLRhCt34RdO7YgJydH2H0aDvs9cQ7Ur/8guM/+KRKy+ZvDCgoKRx9SaXAbNJst2D3nL2J1eOGZt4ovuVGD7m26sAtMGtHcsGEeaj9+FiNveRTRsFent/cR3bZ9GfYufAqDv/IHLvDeW64KJxaI1cLeZmx67GZsX7sYednZusOB8QWV+EC4zvyhUuIKCscI3O5Yl4hmazajau4/xFtw+affwq1ZKJvur8r1OhCxTRvmo3bZixh+wz8RDfk6M9Xb6G7bsQzV1NkY+OUHIT4Hx50k3U1B4WjAUMdhXyu2PnE7Nq5ejJL8zx6JH9bCNpEQpyXSk4kqKCgcI1CTY3UiFYrREHvv82XR6RfCSRo+CoWtPxPnD7f0ZvUoZjcUjhu6+OfY4nilK/qyerrBKLeRz8bhrU43m8SzLQEeBij0GRiMebwYVOGLQag6PnReyPYnF7jRrxeOwpkmSVcn4XQk3mOaWX4II6x7FQRJgmRJ/9EiUbXFvgFZR0ZdkTkKdWa0E7Hwk64OQYerV8wUFBQUegsMha6U+r449r08o/PZVR98LVz40GuglPhJBtnT62JQBQWF4wdDWUtlIa7kX1ceJzsM5dkbwLTEyegSlB8EiavjjcNS4pwZaXr2HJU5sInF4oiSMc7MCAfydyBDB/73sPv8pis8f23KLb6THe/mfnDTmYf4Z4djf4bfLnt5v2/emRbDXhrjXrrTodOvMvsbOuxnt6+hg17O0sTomu0/Dw8evuniO8Polj3sPs10tRt53dO+i3c0nY8M//saI6/Mu3zP/vaN44DlIWTd/nk4kobVgLimi5QEC1LdFiQ5+KtwcVgs3E73DyONJO7AbodqDiVvh5P/fcMc7H5/w4VPNYvEBCuSXGYkkkmm8nGYjw7v0mEfu67y5Qcp/MSnJD8ZpxS52EHYGwtJe4Y78uZgOKzV6Vy4HKh/+SA4p/8A7iy1Ov2AoKKN2204oyIFKU7iAlJmQRIYqze2oCYY5+628CaPBKMq9F64GCkzn+geOv0x2F7Ugm7PXulWBNGjYch4+MoMh9OCKUOzcU6xDT9+dSfaItyb5EDSnXkSJn4I07NvZ7aaMWZAKrISzIgFwli0sRUtMemrW1KwOCmvA9PgsWgI+UN4f0s7QpTf7KxkjMp1irgrK9tRFzfD3xJESm4ShpE9tU9EWBDHubkA9mgI87e0oT0sy6CrWAShCgwqE7PZjN1idXocBVNvlZZ8pLKU/KDBajOjX2EKylNsJPyonIMhrKoKIIU6ctubg+TNGFFwGLrrKmx5Jnu24tueTpJH5RVZCIEm/p3ga/YqvYsjncxo3DAf9ctfxNDr/4lI2MecJ9y6w2Q1YXS/NOS75bP+QCCCFdua0WFzYWJZEpLs5IfSD3iDWN8BDMtxwk58xIvIw4JmGaeDeG75dmpvfmBU/zTkUXwWcg9H5VJAptJioXLc1YT1TWTZmW+gfedK7P34GQy6+rfk7RAeTh4y9FLi8iI6SwqSMHlwKpJiETQGNaQmW9HREYE1HMPzS+sQoBLS9PJlcI11tlEiV1jrlaS3aHnPjp1HCXaVvth7tzoU+dbrulsIEZtRd9JChtWPwlK/NOLim046OmnqFgeD/OrBxJmqgDpZ7MDQw9itOGNEDmYPT0OWLY4P1zdiwdombGiNCB86yfTngJ0xC3SjQPdH97yAUiQq/XbJRjp0J0aAQtM1d6SiUQ3TphTjlvFZWLt8G34+r0X3xrkiwkWkDBnvkUDY24rNT9yGZZ8swtDSPN32wNA5QeFoQDARcebm6iDOP70I145IQXWNDx3EFFzhosqZmXWG5vd82V42BmYsYUuGYZwJ3S4ZBrOKsByvzqTMuEUZToqG7zXkZCVi+oh0lGfYhJ/u4Rh8bwi/7ohTHrbXBjBiaC7uu7AcZ5VRb5Q1Qjdw73hAeSbuuaAUs0rt2FTtJ+aPo2xAFr49LRNNrT5sqgthzKgi/N/Z+ci0mdDWFqDOjAU3zihCqTuOTVUd2Lw3gNKB2fjz1QMwItMmi0DhkCF4R1Y30tM8uOPCfphRnoC9de3YtLcDtrRE3HNFBS4awBs0cfPXPetnUdwG/3wK9qsTKRl1w5BiNTvFDpuF7j47ugNCo1HynoYgxgzPww3jU9DQ5IeXdGwkFMb2hjAumFqECykPO+r8aCE+2hs04caZpRhgjWFzlRdbqjuwqbIDSake9CN+12IxVNb50G9ANr55ZhZqa2V5bN7rRTw5CdPKqDwOg87DBZch9wsGEj0/Pi8fddvr8fe5lXjiwyr88/1qBNxujM1zEElctuy5izhu46Ktih9b6OXP3oQ/wzA6YyDDdtwhYHtCt4oUMqjz3ohZhhBSRXcXnQnR0WdXGU7UP5+EDYND6zRwGDqLOKQjW3XecfhUqqMz+rnFjBH7ZBcRUyiKdxdXYwsNeNzxIJ6YU4X1LZEeSkvQo4fSYxTHTjAJdOiuwGVeOQ+CkM4gwl634J8nyYPp/UnWURyrVtdgk1/OBjFkekyJvBehdLdjDaXEjzJMLDxqO7CbGKCu2Y9tpAy9QokzI9FZcp480b2crhauwl4cyYIZnP3zNFuMGJDdhbJmJhXhpCJlv3zPl44kJ742OQsRdqT7nTub8PiKRtCgRID1sGyOFA03oE8R3rztZB3lYeVuP41oNJw7NhsZNJKjgbNgZY7c6rBjekkimmikvqfRjy0tIQTjVlw7tQBVG+uwZKcXu2ra8e/5e7DNG6GAGrz+CHbs8aE5EkdTWxA7GwJkOvD753egLTUFt4zLhJOj53QOolgUuoPqw2XHnRf3Q56vDf94rwqrqkPYTeX71sIq/HdFK+wOFquCu4T/OPGU4DFxZ/AQ85vkE75myGv2xKJR2vO98MvXIgYTHO4EfHlCNtwW6f55wTJ2L9G7uzmMgD+MLaTEA8THsUgMe0gBV/rp3OLH1uYIvL4I1lOn0RsGGlsD2EXhdjX4sYvCvEoj2Rov878JdY0BbGsKUVuhNtkQwq7GoPD7xrzdWFBL4/fDoPPzoysRV4oH3zwnH9s31WLONh+1JzPsVjPipLxeW1CJZS1x2G0yBL+GZ7eaYOc3g8hCKmI6sCyge55552se0VrNMg0+WqgTZeUwug3LD7qlK438moRf6UaWehvjuB02pkXyiEiP7anyOR3mCZ4FIlI73eWVCTaydJAnCyl6So0dhPyQEL5hJZpIepDRYLPbcdnpBRicaqWwLE3YhwSTw53AGCXA/MVp0l937KRaGHa3irQtIg4hIUU4WTbMtzyq5nKUCciQ7G4le7ugSfIwp2e12XHFWYXon2KjOjARXwXRSLJPpEUHLlcRF0NUBpvjA6XEjyIMxcNVzQ2HC5utuqqbrsiR75nh3KR0Jw9Kx2kDkpHjYpYiNzqYqXGPKvFQozNjcHkqJvZLgosbGIVhth9YkiKm44Zm2UX8ZjokU+/2a2eXY3RBAqYMSkNRspUaADUuTpbCWSw2jCxPxrhiD0iei4RE8+kirhNyyogaQiSMFz+pR2peKiYVOUVjFqEo2MD+GbC2d6CqQzI6B9BIorDQmTQqF0Mofc6LKRjERzt9COtT59In/UTSeiOJh1Ht05Cd7BQNnmUB51Xh4DB4bsKYIkzLMuF/y1sQJjv5workwzXUqdrYGhM2LOzsbgfxSLrgvbwE8kkO7JaRkoAJg1IxrtQj+C07K1Hw0uiiBFhZ4ZPw6peXhFRioIIcNyZVEN9SeJcnAddNK8aU8kScOiAV/dJ5RuXz1R/nQrQVJlhc87S6Lq7Igd3MzLPSmc4yfpl/yZMOuxWIhrCJFTTnSIRhdxmIR5dxkt5plhCW7Ql22h9dcLtlRRjH4MFZGJ6oYeF2L2IGTfohFAhh4ZY2RDQzjQgdOP+0Ilw7pRA/uLwfppW6YOG9Z7junDZMGZ2Hr52ZjSEDsvCTqwfhV5eXY2i6HSMG5uCXdP+bS4tR5uGYzRhanoGfXVyIiv6Z+PlVA/GnK/tjbI5NxMV/O/UapozNx42TC/DdC8px5ehUJFDZsuwYWZGDBy8vRmFuCu67qgJ//XI/DEm3cjAixoTB/dNw6cR83DKzHPeelYcsfk5G9oV5ybjrvP44o9iN688uwx++OhjXjkwkcswYOzwH0wckYmhFJr40PhvpDq5jEaM4yqtu11R4/OPcCJYiw3uLjxmehcsnFeBbF/bDzZMyxCO9pCQXLjq9BF+dlI7xw/Px4FeG4AezcuGxczD6UZ7GDM3FHTOL8c3zy3HN+AxMHpiKsnQHTh2SjVlE1zAqp2tOy0KyEJyUqtmCGWMK8eC1Q3DPGVlI5PVFTA/RcbwGGnqrUDg66FapVMH8Y4jtMUWFC7YUgrSsOA1XjExCCw0nygoz8EtqIGUeM5LT3PgZMcxfLinBhdRAvkSj4HsvG4Brh3sopBlTTyvFV4cmklCw4I6LK/DbK8px2Smp1JsPYW8wIqbCm2jkG4hQWiI5UuTUUGeMycUVYwtw/+UVokFFSSj0oLcHJJ1m6rFu3lqPhXVxzByRToyt21MjmlDixHvrmklxG7kkgRAL44mPG+DKScWDNwzC1aPTxOKdtVuaUR+TYQ2wMJbCTUN+vxxMStPwxoYm+KLkSG5dsSp8FlhZ8qhjdBnVaUcQNTRiFWXH/CZ4zoQo8cWcTR2i8WdmJuGe2fmItYWQmp6IX107AKemksSiOEI06i0rycT95xQizaaJ++EjcnHPWSTUbDbceEF//OXqAbh8Qi5uGJeHW8/ph/vPzoYlGkatP0QdtRhaifd8IdHb+5yQAfgoap4ujAVNglGkM0FecB6FQtfd2V9RXgpG57r00Zv013WUo67BQ7MxLMkiOjeG67FAPG7GgBwnouE4mqnNm3j0TPUjZAP9WGdsru6AnzrbN80qg6u6AX96ayf+uawN37x8IKYV2BGOxTCgXya+OjkPU8tSMTolhsfnV8Gcmozvnl+CAY4wHp5bTe0vDZcPTxHK99aZhZhYnIopWcA/5lShye3BvbOKkEuDhhilfcGZxTjF4sdf39mJP8+vxxlTynDdqFSUlKTjlhn5FDYFpxXY8Mx7e9CenIKvjE6BjWgdMCAb09M1PDt/F/7y9m4gn/hmRg7cThppn1aA2eRv2qh0rFxei7lVYVw5pQBZVN4LV1ZhRXMIK9fV4J/zqlEfIoXIZaAbrnwpK0UFiTISewtwKZEVi5Gpp+ahPO7Fo3OI5neqMWp0Ea4bk4FJI3Jw3YRMTB+YBndbG/69uBFjR+ZgDHVwmEeyczNw58QUvD1/Jx76sAFnn1aMMZkW4tcYPmK6GiNYtqEGf59Tg1aWQ4SK0jTEGlvx7IpWTCaeH5tBcRG4U3AM2acHlBI/jpCMClicDlx1WjZam0JIcFiwrdoLd24arhqeimgkisW7AzRyNmPT+mrc8+QmPL89jFGlNAJKTsBVpIAXrWrEoi1NeLcyggyE8MzCBniDYRoVR2kgEsGGKi8aAyRI9XbAca3bWI3vPrMRz+8IY2hhMpyCAWWPcj8YjYjc4mFSAKSsi6lHPynfTp0EDcXUAXG1tWJ9c1wyFHtnYUoKfd2qStzx5Basa7Pgtgv746Fr+uP0Qrtgep70En5Jyp4+Ih93nlNOpgy/u7QUSxdX4a1N7ZwkR6YbhYOBeUqL21FIIyRfOIbwPrtFGOXuJcVqsVlw9cwS1K6pw0LiudcW7sKCJhu+d34hEkmLdHhDWEOKxEvKgsc+rS1+LKkMUoePBD51Dldsa0UowYRAczvue3YDHvigCYWFqUgJE++1RxAMR0kReVHnjQu6ZPrG4bPR3UtKWhJumlFKvEGGFNodRHN/OTTq9MgnHllPHJOPO4iP7mB/Z+chhTQMtTJ2Ff7Yp83lxHVnl5K/MtwyLkvwrBiJHhN01YfHyotJuTPBdqLR0L/L3US9klJSnmOz41hQE4SLZMMO6gAvadJw6aRMOCnM8hV78PzGDrSGA3hlWRPW72zHJ3v8sPj9eG1tEzZWt2MhKc10UqZ7Kxvwh3n1MFPn+oUlDdhR246H3iMlT52dkWkOpKZ5cOFAN5ZV+cU8dktjB97b5sf5lFbz9gb8jhSdFgzguSX12FLrxXJKJzvVBSfJkymnZKCsIA23n9sPX5tRAHMgiCbNCmeAOgSvb8M2v4aPllZjRYMP87Z1wORwIMclZZGVeMNqscBOaXbrbx0U/FzbTrJz6sAUDC3LxV00mr6eeifNTQEi34R3523Hm1UhbNnZhLe3d+CTna2o9VlRlmTlHiEKCpOowxkjWQm0e/3Y2h6DLxBFgzdKbcMsHk1YqI5sdG0Ixs3bGjF3Zwc+2taMmoAZmY7P/sLYsYAoM4XjCOKN1MQEFHhMxEDymXgg6Mf9/16Lx9e3wUeCdH19APFAGDs64nDYTWjuiCDBaRXPi7jx26ysfDU0+6OwWqlBEONJlutSyiy4jbYRoga2h4QsPwuqI4b1OPlZEjkYHg4AIQIpMn6utHpDHdZ0mHHhmEwkOsw4Y0gylm5oRYzcJOhMvWUW/B4HsLuyBd97dA3u+l8VtJRk/PiKwTiz2PjyHfmlEdvc5VX4zStb8JvXtuCOf21E7uhC/OPqMvHsXXoz4lb4TFAdmk1RtAfl88t9V37LjqNc8Z3o8mBKsRP1JLgsut0yUswpeUkoIsFlrHkQMVDd80hXPgfUEKbO5bYaUh6UzrY6EpokzJqJR800ckykOue6F/wkhsddkHGJy0MCe21pbMNf39iG375K5rVtePC1HdjcJmcYZH46J9rxwZJKPEj+2PzxzSq0RNiWOxHCWcQXCQTwz9e347evbMX9b+3p3BVLz+lRgyw5Kmeml0bem5qDsNgtSHLxWJYdmQLOiWyI/DpgTpIDKWap3Lj7ZUEEm5qiSCalzB1voQS57RLp/Izb6CxxNfG9BIdkvqDY2SpKtcMXdN/QFqAOgAYaiCPN7UKKU/dD4OfW2+qIxgQnMoiZxIwGT/OQfOH2zTXAj/rMJitKks2Yv3g3lek2/IbK/vuPb8D3XtiJBs0iZJJ49MbBKAoePfOMAytJpoFpY/N5IGacKFK73Y5sSwz/e38bfk3p/vrlrfjWo+vxiw/qEKWy5fRE3iktEYZKUpBP+dm9uxURuw251CE02axIJdfKRpK1XIY6QdyREmc24pLKTjhL+0QqOMPeeKRzrMHFqHC8QExlJ0ZzUKtxEBPxCu4Vu9qxalcHNu71oSUkG58QLvSXz/OYmehMDqFWL/6zpAXTJhVgfL90zCgw4/GP6hElBjX4SSzw4DA60zGEEBdxSYa00IGfLzL0YPvBYFp2D/uD+B/1+vOLMzBrZDYS21uxsomahx5YTHkSwhEzZo1NI2HD9Gr4eFUV7nhiMzYFrDi7PAE2ttZT5EUtDioLl82GltZWPLqgCelFmZiayz1dbuifRpnCvmBF+wmNdpLSqXPo1kes3cD146KOG9c7f6o4zWUlwcXla0JTMCZmV2J0L2tcr89uxc+XworqlcWi5C32b3BZF/8dfr2JVMSfFY6DeqxOu1WcHXYSxMKV3enIRoSRHVgnubvIb2VNmxhVWkUbY3f2xUzH8Uk/bXtbsbqDw5O9keGjCkkzK8rlq+qxO2rF1P7JMInHS9Jw2fJa1IHFSTRqjpGisaOfizpVgna52KueZIVPtOEucC6MtqfHpF/JrIkrjoL8iH4LWQhdHgpjZyiKjlAEXpMF5W69U0Fu3EHwN/pQLaMhcB1TaYl0pIlTx6KyjTrzIzOQyOVPsszpsGHkwAxk6gNVGVynVwSjg3EmCPkj6NKpltafCn7sVlqaSp2LMJoovckDk+Gkzo6L6tpJnaJJA9PgMtLQITlaxs+01O1txn83+XHRGSX4zrQ8zFmwA+/tDgmlKCjlsuECogBxwescUt7Lg+yAMATnGzfHGEqJH1XIWmWG4OdvRsNhw3dxEkUzRqciTCPjxrgVX5nEzxpNCEVjyMxNw8x+LhGWmUfyozwLMNOTsnZrYbywrBGBcBgPvbQNL2/xiTDCC/2sCXY4aKiRwNM+FFgG56PhiyFT+VSIxMUYgs6krImxV22ox3q/BddOSMWitS0IsRv9WZFzzvjIDX1ASQbKkmWj44V5dXU+bGsKYg+NJrhTb6QsU5cNhZ/P52Q6xLPVqlaxgkfhUKFrz/c/rsLydiuunMDTrsRtXPdkePTiSXZhUrEbHQEfllRFcGp5EuLimZ+GglQbdu9oxU4anXGlcH3YaNTnojrnhUC5iTZ4aGTWL0c+VzTqjKuI65PD8IFt7aQkmYPtpEHZj/zpXg4CY0Qp/NNBHxBJ0D2PApnL5GuZbKWLfxE52VE58CuO7TELzhmbhURqK4IqLgc9rPBMfrxCgR59MKVC2BPNnD9/czt+8lY1hp5SjK+OThHvtAfDMUTJz6iKdGRZIli8vg6f1MYxc1wGbNQwTM4ETEzT8OjHzaI+NNL2vGkNj3T5feYY5SdKFcHtTdyTG7vza2FsL5DqQil17oLhOE4ZkInd21uwrSWK+rpWvLHehyljM5BBepzl06lFTjz+cS38HAelwaPpWITj5PjkbEEkEsOClXUoHZyP75+Th4psF04bmY+pmUBjhDfWEaJKrFLnN2XCRBfXaYQceClOJGZCWV4yJlWkoMjFb/EThH/qwFBaohtPCUcp/yEqnwB1OJLTPbi0woOG9iDeX+fFrDNKcfNEkjWZCbhwQiEKrWF08Dog1nB0ihKNESKYi4DLiOku6peN6WkR/OejarywqBobmuPI5udIHIAIjEbNGJSTiElDUpEjRigmMVPKe1qEiRYRF+WBy0Hypzgcc1h+RNCvDxmcHcaf//RXWMtOh92dqtso9ADzgsWMfvnJuHRsJpJjUWxuDiGFBGG6x44LphaiyOfF+9u92NEYwdSJBTifGGbcgHSMSTfh2U8aEbbaMGVoBiaWuLCWRughkxVjB2dgkBtY3RjFxePzMDiLhGqeB2Mp3BkDklFb3YrGMLU5lxOXULqjMl2oa/aiIWbGaYOzxGrUNZUdiJjsOHVwOsWlidF/g18qTEOAGuDeaEF+Es4flwUb9dbrvRG0ecPQEhKQGfDiqTWtcLjsGFqRiouGp8MViWJXfRgNvhimjM7CuLJEGlHwyldKf3Qeik0+PLKkERaib3C/NJw7KBH1jQGx+Uxmkh1TxhTh4sEJePfDXXh1h58aC4s+JkwnSEGA66lt53I6a0gqGaPbymLi96mX7g5gzJBMzOiXKJSDJ8GGEhKWp+baMH9jC4IkYHfUMN/lID0aQczuxKzBHjzyTiXqgnKEHaSR2anEMzMGpKCC+IxfWxyQbEF9UwBhUijnjUhFS50Xu9vjqChLxZklCdi8ux2VYQtmjMjEKXlu+DsC2NlMDEn08vRroGEXfDUbkTVqNo365cYd+4E6fCW5SZg1MhP5CcDWvQE0+yKIW63oX5iKC0ZlIJ2E/NZaP0JkN7I0DWcPToG/xYv6qAkZ3MYSHbjwtALkh7yYXxlEQbYH04imwenUUami9hCIIchTy7pS3Reh1lp0VK1D5vAZdGdIvSMEPb2GunYs2eXHiCE5YkQ+tDQZI4o86GjowNLKgFCQq6lt5pamYxq5j8xz4Z3FlVhG9caj14yidMwemAg7DZmt1BOzpSdhSpkHJhqR2qJRuDKScXqJGx63HeZIBM1mO84rtKPN6caYMlKazhD+Na8GzdT2uKu1aVcbwskpOJfKckiBhxR8Dd7c6Ic7KxHXnJKOKJV1cQopOpcHE6iuHZSuJR7Bkg3NWN0Swej+GZhEvGJpacNTy5sRt9sx69R8lLnNyKDOQyBswswRaUggzZzktmIbyx1S4qOIFmu7Fwsqqb2LkqEicjowm2TiqEy76LQV5bhxSv9UjO2XihkkE+t2NGJZbQg7qzpQRZ21KSQX+U2Kmh31YjAzalgeTs93wkWyiZ+7DytPQznxrod4o7HeTwMnomVUNsmnZIwn2TW+PAWT+iWjsrINtX7qAJISH0f38dY2+NIzcVq+XXRo+RH5CJJbBR6Ky2NFU4Of2gvzh+SlI4FYOIimNW/g5ptvQFZqom57YNBgSXSnPxeMKQ+1Y9tBQF21OI1GxhOTuPT3ZZlBjbELN8LtJPD2krJjt5R0N4ZnO0TvegONhngDKbvbiQnFCcK/RoK2sk1DIQkhMym2dn8QJYVpiLX70ErCiLudPJVUYY/i9wsbYCduG04M7/AFsKTSh4SkBIzKd8NG6YaoQZPsRUEaxUUhW1sDWFPllyMbUtrdwc+PhpFwSeH5b0JdvQ9bGoLi1aQMWxx7WsJISU3AUIrbzhkhb3FS9ot3eJGews9KgWFFiVQGxJxkv24PL8TRkJPjwYB0BzUwKSLZiAPd15Bw20YdG7lal0FHeaHAoHI60I5tsgzFkS9gJiE7rDgZyfxeOFkHiGfWkKCkQZgoTh5NJKa4cAppyjgpxS27WlBH9SV4gNx4hJGT5UEFjdB37W1Hu92B1GgYe3wahpQkI5UX51IkOxtDYmMhnuoNUx2v2eVFYVEyPKSkV1J9R8RQhXjebDm0Hduo8zuE6E7nLUjpPk4jnw272+C12DCalBxvgMjBYv4QtvlM6J9OSkqSrBs6kpA20wh0214vanxxDOb4nJKfWOxt39OGKrKXcnd/Go7ejm3dwXJBCn9+RszUMe1i9GwMIxlEHrcTarpUd/zKFzuxBYdjiUzXFA/Pl3GexaYv5JdP4lU8ca+hdGA+/j3Ng4v+tVVsOsWjZB4Nk6uMXPxNYmEYz6RFxCieOzn6aJq88WM9HslKMSHp5el/zgfTxXmhS2HYC7/Vwjd8zfwm60m/53B0xeGMfQpkKAlet8NhhR+mT0Dmh2cZpHyQ4XiGkC84Ts4L38vVQeSDnDqD0zXPUowZnouE9lYs3EMMT355g6HS/jkoC7XinT1B8BN1XrsQ59dhia/1wbhgBeqLivxxNbA7rx8x6vFI4PPs2KaU+FGELFkqK2JOwVd8y0e+IDdxz7fMCXxB3Gc0KCHYBENQWI6HI2OG5QYpGB8YOiwfF2VG8Mu5tQgwFxGKClJwRq4ZT65shY18GfEZzCWnVZlnOX6KRydM+hFeOv0a4FWgIk1hz43XcGc+4EYk7Tmfwo9Oq96mhKvIg7iWjC7tJC1C0PBZuMt79sPFIuz4wJEpdIHK5IBKnApUlCEZoyq47IWdcGPBpIs9vUhFHUgmo7iY88iBCp3LnW35wHXF8YlA5MC+WJBLUAiyNvyyF0NxcDpiglKvc5NQ4vNIib/0mUqcaRV0kZFxM9+JhtLJNyIUHUQqInF5T7dd4HRF2tKPKAvBULIN7Mvr3XEslHgnqZwn+gl6hKWsKy5roYA7IcuR/YoLA+SH88iWIh62EncM9mtGjEbm/YYU4tGzPJj1t83wRrmNkg/ds9zVTIbvDhEHHWQZS7p6+iCIONhW+NbP0hfniZ2E7BJWXW5d6Oa/88q45jsj3z1h5LmrnOje0LDd0Bma/3QZNtvwwFcGIV7XgKeWNiNA/t0OF84Y5sErC6qpI9szPBFPSXSVzAFpEXwlefSLQm272msgGyULW14pyitJuccpr8mee7vciHQW42lrdjOEi3SSQtfYrYgFGccjwlP8/Qfl4GeX98c9F5Tj7vNLcdnABMzb3CamjzhsjxWr9OO4RRoiLr4meqiLn5PqQFG6C8XpThrp9zQFqU44aBTO/jl9PTo6c69f0tkznzJekWKPPMg49ODiXvqVbj3OMlIRL93oIRQOBlFeRrmJGtfLXZQr8xC7S78G2K/kTalOWTAKL3o8zJcczqhvoUz1MIIP5a2oN6M+ORYO26MeybCY02P/TIiwenyCV0X6+6dDJ+FX0M/0kJ3MKxt5z2H4IO0Nvtdp6iVgUkTb4mth6CjIEw1JgOkVVj0g7URW+CD+0ldX9liJasjPT8O5Az3YE7HhivFZ+lsEXeBwrOD0GKUdRSL9kC2n35mGYYx7PnSn1bjQzwJdMUv/XY5d/vX0dOfOtNmCj51B5H13I93EQZxlecmftKIz/+lsjUXw5LxKRJJT8K3z++H7JD9nDUjAe0trUUsKXEYl4xDhCLJs2Mj77md53ZX/Ywk1Eu+T0EcF1Ghy0xMwpjRRjGT9Pj8WbmoH7zIpxIHksc8GVb/ZacOp5SlI4a3buGL3CcdT4Eu2tIhn1gzZ4zyUyBWOGqgKDjQS7/UgnuXp9IaDTKf3Bhyb6fRjATkC5le9Eqzy1TALteGOYExnGSr/k6g5ixkpUsy8SI3fTedtYhnBiFykJjqenW3p+BSMGomfwODGyJOZgrnourreh5cW1+CFxdV4a12rWEXKDMrdLLnJ/0HAzBwMY+Haery+rA6vLyfD527mrbVNaJXrkuhgMLeCgkJfgDFMi5LObg/G4QtF0R6Q63DYqWuS+OSAGF0TeDYmFuHyiAkT4zUU7NDtMVFfgFLifQ76VE/n8x/JjDYxlWgmazmxw3wqtyc8NPBUo1WffrRSXN2NMSUpJm1OrvauoHACgeWFasMGhDhjYSnAhcLdGSE4+1QRKSXex2D0Ig2IpzG6la6+5U3nmZmVF9aJsbngXL4Xo3Q+k4vsfxrPoiic5Gd5Epb8HJzTkaZ73Ap9HVTB+siD61rUubjpuhD8op+7wPd86m539CB5lqmQZBn3csUln6WdOHdyO/vR+ZzOfC88GI+j+iBEHvVzdyMt+W/kl43wKN2ozRotV16R/ac1YxFOms74xb2wEJey3PmW77rXATv2FujECNL0fHTaGYTKs7EzW2ch9SEoJd5XIRiNDp1neS10bHcQj3LnW7weQYzLg3PpRU65yz9vgsB9UI38sa0UeHwvot03ToUTC8QTvDqd1zqwQGBhJz5NSmdegc6sI4Ue8wTZs9KXlnzoPB1NdHUgJaQikupY0Cyu6F68s0RuRJNJWHE4Ogka2V5wtX7fN8H1s295dCkofRMcttSP7Etv7cKKz59VBuxT920E1qHbCZ7ojJHS5msZTl71VnCeiUIiUXIL2+iZ08vTyGrXVe+HUuInOpgXyfB+wKMH52P24ETJnsKem5wJOXnJGJ1nF4s6ktMTceHYTHis1CR7c3tUODLQhZorxY3rz8xHlo1u6J+R4cbZozIxc1ASxM6t5M9stmHiKTk4Nccu3gtmHcKPb8jpGILpY96kDofDhqtOL8Ig/atr/EGXKcMyMCxD7pkNM+fNhKFDMjCtzE12xmicXfnc92AobqG09QbK73qX57uRyLulspXhRkb6YJBaohvxeh6Vg4lnJuia7farPk5DyAaOg+4742Gf7CbvBDgd3ZXRzeX4Q2dMo86NuyS3HRkJMn89Ke9V1B8ylBI/wSF76MDkCUUYbffjrfXtohfKDM2jr6RkD+65sB8uIuXO+zo0N3dgo9eGu2fmiW0gZSNVOFHBYsyV7MZdZ2Vj3sJq1ISB7II0fPOMXJxSkoTrz+uPB87LR6KFR+VRfLKpHWPHFeGsIqnIBX8cUx4hzqX0zA4rbp1VhD3ra7GuJQpnkguXnV6M75xfjtnlbupwSN/8vvq6za1I65eDq4fy53sJTK+U6H0ORntmsI7izvkF00owPs2CIDVgftVu3LBs/Or64fgZ1Sl/2IhDcD1zmV09oz+evmMUnrlzGC6nNm8zd1dkOmQAgZKydNxzdiGSLdwBkml2qkOymDapBF8ZkSo+R9rbwO+9G+XFMzQx/bqdRiuzp5RiVpmLezXCrq/yA0Mp8RMQorERwwqepUNBWRZuKAGeXNWCsFHlZG+22zB7dAacVtkr55C8ocHGDdVYHEnCtyekiD2SuZmLH7npLK/QhyF5Q9a3xWLFTecWY/0ne7A9SDxB2i/PGcNvXt6On/5vK372Ti2KS9NQKPaUBkJeP55eXI/zp5ehzMk2Mp5jAkpGcqAZ559RBmtNAz5okK9NBDsC+M8bu7CiKQz+cKrIHoNHlJEoXlpUjQGjSjAxy0ry+hjSfFQgaY9GgQvOKkVGSzOeWt2GsGYWymprZTsqO+LIcssZCUM/TRtbjGhdA7752AY8sj6Er10yCF8a6OEJix4wwrDZuaMJb9fE8L1ZBfBQp1545TKldE6fUIopCSH8b20L+O1Tsu5Mqye41mTN8UFnPXlvXAjZotvo/NnJp+Jv3AuvEnxmO/33qSBFPao8A/m8XSxRaApF8PDcKpxyainOLHLIsCKuA1Pf26GU+AkN4kyrFV+elocPVtUjQEzKSprBg6ixgzLRUt2MXV7+5IIBucxt4fI6jDq1BAOTqMF+RvtQ6FsQQpHA9c2X+QOyMDMlijm7eA9zAgnn1Tva0B6TW17Wt4WwdmsTdpOFVH4mtDZ4sbzNhBsnpiEqdgo8FsKP0yYlwrNHucm4ssKON9d2yK1I2dnEn5iUFO4H0i4Rbwjv7wriuinZsHMIfYfDvghjJJxdnIGLCqx4l7+7T3kUuad/Q1NIfGJY+BJW1KZNNjTsrcVzq1vR0BHGG3O24d3aOMoL+RM1+5QF3wojXVatrsF/d8Xxg/OK4aY64G/Jn3pqMSlwP34zrwa+GPvTA7Em/xTIHc9kDUVjMQRDUTL8uSQ5ymdw5yAcIbdwVHxohOPkMLyHfDAc0b+Pr4mtfQN8b8wGkd9QRK7XCFG8AQoveJ3uLQlu3DErF1owgmCUu3jE2+Egnl7egsumFCDPLtPoq1BK/ASEbH+yMbkzUzEtw4wNNbwhtuR3Zuy0rBQMcYfwwbaA2OlK8DAZEY5Mc4cfu8MOnF3uFo1BNNPPaKAKfQOyDnV1bLFg1rA0VO5pQ4eod50N+BDT4Ehw4szyBLy8pBbeTqXHszVxLN8TwKhBWci1is+fHQMwfUQ3mVMHZsDW4kUNKQD5GqVUIZ8FzvG6Si/ySjMwmDumfVjycfWQTsMlk3PRWNmE2hDVCT+nporj8tm3MNiKPxe6YqdX1D87m0lZ+imS5sYQxccxHhjCPwVYt7YaT+4M477zCjD11ELMTArjTx/UwUsK/KCFT2AvRiqaxYqrphXj2xf0wwNf7o/RGTQaZvJJIZdXZOKuc8tx/xWD8IPp2Ugy8wJLM84cV4SHbh2NH05NQ9xswUXT++ORr4/EdUOTRIdsCHVG77+4CBVFSfjlTcPx2A0DMSTVAovHhZtnlaAi3Ynrzy7HlWNSRcePn7fs2tuGYHISTuf1Epz+Z5RDb4ZS4icgurNieaGbur1h1LZSCyFONZk1sUPbzAoP5q5pQahbAxQNTQ+sBWKopx77kBKPUOJGpIfQXhV6MbqPxO0OCypyE7CnISSEdRfnmODJSMRNZ5Xihkl5+M65pSj1sLs0HEVHfRDWJIf4dOmx6Nwx3bxIjdMaXOBGTXMIEe4/MGsK/jRo/xQQiaGmILw2K8pz9tlvtA/BKGuz24kxOU7s2Bvg+Ql2YFcyPTNmtF1WUkZXh32Yk5Iw3OLHK5t83Kf/TPAsM3cO1q6twQchN753ihv//qgWbdSREODIPwvkzGTI9E24fFoZMjva8Lc3d2IejfC/NbMAKTYNFQOzcOMwN56buxN/fGsP/DmZ+PnsAiSYopj/STU2+DUUJlnFc4SXP67E3qhNfCCnol8Gbj2rAGdUpGJCjg3PztmDFpcbV55CCr/dj2cW16A9HMLT83fh5VVt4G9FMSXhQBjVHTGcUpQAHsf0VSglfgJCNGUh9ICcZF5ywos6ZAPiz3qOHpqDdISQnObGsEIP0uxmJCe7UJ5ph5m7wwwKzN8fTkpxwkHxiCfjHKd0VejTkPVopZF4utskv5jFFoJHGBq8NNJ96M2tuP/1SiTkpOKc/m4h/CTIH69qs1uR6bJ1mww92uBn9hZkJFtE8qx8Okk2IPKx36UEBYjTCCzDY6cs7Buwj0BkSEMyf0GQ6q7ZSxb0ZwW5X+tke8qmoYS52thHjCryvNOy8fZHVaj068+5DewThWHBsqT/4DxMtnnx2+VtuOHMXKRYDM8HUyOcAlOnwel249LhTny0uY34Bli4shI/fLsaAZMNs8ZmoaOxAzVhDYFACG8va0G/QZkYS3KJp8mDYiWlBNd9mO55X//NW+vxxCeNqOsI4K21zVhT7cXiqjAKUhLg6CSNZZ/MjehMcKGE42gjk57pgl1svdqjJPoMlBI/YSEbTkeQGZ+fifGUOIGYPtljQ3lJBq49vQDXnJaLAcl2lBen45IRqbCyQGfQif1H+NlUN4HXN9lcwUD3UXOc6tofZmWuW3QH1X80EsOSdfVYVBOCUyw/lrxhKE7+dKMvykrgWHCFnjZ1Mn0BXpCnp8raRUBnWIK01003iBZA/gO8/2hnuL4Ju9UMGytRIx98MplpUCwLQRz18hB+dMMd8aLSTBQF2vHKtoD4ymFXh6ZLSXKEHKWInQ4DB+fgmjIzfje3BvOX1eLtWjPuPCsXqTQwljQIn/pxHxjEUDoW6nykE7+xUuZk45H/b+9M4Kuo7j3+u1uSm4XsGwk7QaQoIloWSVksIPhUrAWkVFwAcUELdrU+61L91FrbWqs+QK21VosCVXjV4somArJVWUyAAEkg+373dd7/f87MzU2EgpQlyTvfZObOnG3+58w553+WmTNBlNS6oVlsKOAOR5ibhLJJ0tDiQn3Yiuw4S6QRwkFF8h9dTJzTAX+elefqg9wJobqO1zegJGr70F5EuFZ5Ob14RIo/GxHloFOhlHgXReR52kqq3bCYbegWJ3Mzj3yt/eQIfvy3Yty/rBgPvFmCbXVe7NpTgafWViMgCiX928xIpMzd2OgTRZt9CwXQOfO5QkcMr+r4SJkdbQggJdFKt5XMZRaRlaGoz3nRF9r7fdhW5qUKkaoL3buN/NhIyTe7+YG3c4G8ClfOR+r8lJ+tlK9ldS/ypcibuuKJRJHsI8dU2ZEyiCf/TY5zNY9/FpAr2KCJWl+NHjMS7LIK55gb94EVoEgL/tFNBGSQnpuMKfkm/GVzLXys6KwmUFEX/uWiLUaCyTD4Z+CFWZjZx4znP6pAnVfab/+8Ep+22HD3lTlIY93LxtLqKxh5jn/D3iCclhgMyufv13P+0pCVlYBsqneqfSFkp9gRbwREYof52/XuoPicrbiAuM0sq5RUSMx6m63Zjn/axEPCWZe/7MjXjNjQOb+K6HX54eYwOA91QmQOUHRRTGiqcqAybEEuNZlFWeKCRBmZP4ofoM2vD6WSqVg0QmQJysux8TbkdjNjQ5GDKu/WzG20ghWdFL6XtHGFFSYl/PkxJ3pk2qnik0qAH3abOaUf5o/KwAXZCSgckoEDVGFvqZEVKQ9f8kNUObnxqKlqxsEmY2L07BKpYEnO4vIWpKTFwG4jM87UVIvz+9I98xPRI57yemY88pJJK4gIGd40ZGTbAYcLuyr80rAzohdArzOAKgcpvWS6K3ocJdwL5WFmiC+Vhah8CyVKW0JmCm67NBnbjziRlWpHz/QYTBqajQzqhnJjhxtEBsa3uXN6pOG63lYsWVeFSq+wEWHx78ebj2Gzw4bpl6aJniybMsavAd87sdGfz+nAuwe8mDWhH8b1iUffnERMHJAMr9+Lf+5oQG7PVFycLRee6kcNjrqSevyrIUj+w6hzasgneYbSfRwzOBMXpNpQeFkuRubHSkXOIlN8+X1wblSwGacFN/xC1HAYSvl8eEE38JuRLKMp1oqsBCvKKjx6o7VzopR4F8fndGHlPidG9utGRUj2XKIJh4N4e10ZVu51iWFVkblp3z0nGd2am/ER9cBE4WhfMhWdEr6VRg7gp8zX76hCMCsF/fg1G1HxhbGjuBHlbiCPKr3aow1YXdSCAFnKPowGs82G0Xkx+N8tVXBF9c7PJqyIOF9yhbWnqBYHYMclpIR4MJ8vz+MB/JDdinWlePdoCBmJ/D64EVOSnOQc3jcJG3dWo4Kf5tZtOhtGUtuCPrxX3Iy8HkmUEtKU0yhM8Swc1h2XZFgRTu6GacMyxIIvccl2zB2bj8E9U3DH1X1x/9R+eOD6AbggMYR6j6EBo6ZGOEg6bKlxYfG6SlS69UYeb+KeS/drtxzFm3s5f9C5/h559OhHK3wN2lOe+8v7JVhXFcbsSf1xV2EG9pU0oJ7uyS5qLC7+rBlXj+mNeeN6YHCMB09+UAmfxt+xB9Ztr8RebwwWTO6DBJcLOw43Y8WWSlSb7SjsnQB/OAbXD8/GyAHpGJpqhsdux4RBqXDUtOCDIjcmj8lHgt8PH4tDaZXcLRa5Nj/WlrSQoheGvOt0qO+Jd3Xo9sYlJeCBa/Px5rv78XkDFUbuTemllG+/vJs8by7PTVYr7ryuLw5sPYz3yv3CvLMONXVZ6Jadqe+JjxreC2PiHPjV2jrKBpQH+FZHBSXuvH7/OX8MKMjGrAEW/OqdY/By3pAuTg1SAKfzPfE21RQd9h+YjfmDbHhkdTkc4j3lE8AahSrojJxU3DM6BYvfLUMlKy22Okme7ojfE29NBw22+EQ8Pr0Xlv2jGNtrg0LR8X2yWc3UCxfJxB7gD0oFbONx83bwcxH8PvbXuodnAPHVRBJSC4dIPt2Q4HvCcvIzPMGAMa3D9Q/XUtIPxyJAcvNxkB3QL3/FUdZpPNJogoU7JHTKm5/C4ZXsOPreABlw2pDWHj6iNyYkuvG7dbWItGPOcTqcCPU9cUUEztYeh0s8kFJ4eQ8MSqPcLcaapKUxzMVZlysIa4wN3xnZHTVFFVhTHqDCJL9gpuia8D3fvK0M6/2JuGVoMqys9Ix8od93mVVkU693j3T8V28LnltbBQ/nG64lzzUk1sH9VXi5JIT5I7PlmuFsrMscLTu3SNIykjFjSBJeX38MlfqDnp0eKpd+lxPPbqrFlG/mokeCWdwfjm+QFJXXH4aPN1ZaFF8eHvfTuZ/Ohblux2+gnI/U4Ck9Vq4BboDp98r49ft5IRgeFic78UfdRooG2/L0AE8B8gOOPB0o4ky3lOPGcfIHeCEZir9PnrMbDpevJ9OCkoh+MrNTMT5Xw1+2Ncj5cBH6+UiJ/xylxLs8MmM2VDvw0oYqmOwx4mEOytnCXCKPOXPHx9mwe18Vlu91ykURuPI+HxW14pwRpl7Jps2lWFuvIYUfbIyiVRlSZUGKI9bswxJqEFZTzScrj3NThUg59I1/qILf+0UlXt3vRnqs/sGTKDjHyorZgtSEMJatP4riuoBY8Y2DisSrkyGUGsnO0vNITNmBGizd5cT4IelI5ykRtjhO/Ni8fSlu6+L8Ei0vH0XOxIGMs4E8kvnOMDeso+sqwy569IJNuqUmYFLfOLz60VGUOUJyBOMrqdN5OO0SGJUuig6OzKPUOvX6safCE+mI66WBoDM6ZuXe0uzG/nq/LAC8sVXEnaIjIfsh4k62/nzdBpe4uVRJkrcj5c2o5UWw28F5gTdNC6GozAkXPzgls4ZUGqfIcWX7GuLqourIHlYNNU6POENR5q2wbCZTCCVlLtT79Qvp7k4lnYQb4Ywbsqfm52zD91zKob+dT2lQXdmE1z+rRxPFke9jNFLdE+xHJGAngOVsI+pX5RZO2hkb+dQ4NjCOjaRxN7uw7LNqVDg5H7Mpp420O//o8nyNvHZ6StwInxKgw8RdcVxE/tUzN28W41haC+S5cCjny6Ps+ZzNFR0MuiWtxfz074+4u/rOZKIerfg9UXg8H8n2Yi/d6jYn4/gKUD4IxUOjp1plCVHFteVMuolanvLtibaStJqwW7GX8SJ/wvSEcYyGpTIkO1UJzy6t90ePP/1x/KldRY0WnvoSzgQyvq3HhlVrGOJM3zowZ0g8Iz24E8OTKmRAp5wfeOs4adCmrJxCtjs9JU5E8oBCoTj3UOE2iqD41btgHblcGoqjdW9UP60KpsNCArYqPoXibMF5jDObPDsVTluJRw81KRSK80B00aPyKMqk6GJ0LIyehfylTZzqxwwpR/2oYyEqUt6xzFHyKhRnGyOrtZ8fOQ6n9YoZv0zPngYUDIA3byxikzKkhUKhOMtEF1cTGoo3iqO0CwppHyn5+m9HwZCLfk1mOCv3o+XILuRd8X2Egz4hruyLn2+5o9MWcNeVoblkG3JHfJd0uPEOdUdLW0XXgnQrZbGwz4Oarcuw/V87MbhPnm53fE7vPXHywnMwL7z0Mg6XHYM3wN9o5QdfdAcKheKswaO6oqzRgcvtRMAXQGJSEiz68wsdd9iXXxUywe/zU50RQGpaOkIBXj2tgz1bo6etx+dFTXUNAsGgMIqzJyAzI128kyyfaGZnHTWtFZ0Rzk1CjVIPPDE+AfNun4t+ualsckJOS4mzF37/zu0LweENwOkPiaXtokQgVOZWKM48snwZpZbLHb/ryw83sRLnRTQ6XMkzhCXB+JBXx2K5+aFJns9juTuGLuQpCf2QoL4JPIEw1XNBBEloKynv+BiL2GSDib+qpuo5xZnDUMecv6y0dYu3IieZF4o9MaetxLk37vXTFgyLrwLxGrUKheIsQ8WMe39canlSi4udMb0lV60ie/PXLtJnFxKHJeN6g/vcYu1+OuZ4sA4UKwJ2BJlJBKGahSgm0TjykfLmhVP461gWkxl2qxlxvKIYCS7Ud0dLa0WnxpgCN8qG3WZBGn86999w2kqcN17xTmyU0VmpMx2wH6BQdCFkOZNqW6xlRb/Un6Uf8XoglcOOWwKlzFx3iCY/1yMkLCvHjiGzTFsJpS0pblbkvLQnf+aFpeSGEv3LhocQWtV3irMAZSteg4+Xi+WRn3/HaSlxxvDGe40yetvs37pXKBRnjuiSxg1mVuJtG87tzzsGbWuIdvFgbUin51/utlKKY25wcGODDlk6XiXNgM87YlorOi9GDhS5St/JqZsTc9pKPJozEIRCoVAoFIp2nOzhyTOixBUKhUKhUJxZWD2fTImf9mIvCoVC8f8VrlxV/0fREVA9cUWXxcja3I41Mjn/ynatfsQPKEWfn0PE/JchGBOR5czC6cAht53x5bjrh0YVIOamT97yPx9ES46wPOMH+Qzzk0l8omrOSBcZ5Y4Xb8X/b0TZPUl5VEpc0TWhbC2VliwAvOKWu6UBTi8/Z0yYrUhJSYEZQXISgxgbuzu3lbhU4oaMrbKeWSVKV4lcQxJ9Fg56UFvfgoSUDCTGyqdgO6ISZ2Q0NIRDATTWNYpX62CLQ0Zq8kkf/olUc/wr4qenAh+TmYzyvw9DoeiIqOF0RdckUilr8DgqsPiR+3HVFUNw+y9+g9deew3PPPUo7pq/APPvvBMbD/nJ2XmowIVeoZ5gyI+NGz5ApUO8eHVGkborOm5hHNuzEV8c85JdCBv+9BDyu+fh1ieXR14TlfsOCgkX8NbgqbnTkJObi4ET56HWbzRUTozRMOGvn3EgrsNb8HFRYySyssGnUHQ+lBJXdFm42vbVFeGW676NBb9dhhkPvY1VS57Cfffdh8d//TR+eOMQbN70KTSbta2eO6eEUfLJm5gz5wm4wia9R3jmYOUlNz7T0FC2E/fc/XOUNgaEfWJSIqxkGZ+YSEmgX/wkCvG8QCIZaRMb3x03TB0lKy9heIry6m59rmr8eN4d2HmkRRqJnaoKFZ0TlXMVXROq17WgG7+892asXFeEwhtuw81TLxcVtlRqZgwc933cf9tk+Py8preGUNAHp9MJp8slV0HTt1DAC5du7g+F4Pe54XK5xSJHxrVY8WnBgHRHmz8ol2Ex/DudDumfvzMQCTuAHW+9gmumz0GZZoKH7H1B/ZpBvwjL5fboPWQNQb9Hyufma4fg87jIDcmqr9PAG3mmnn2rHB5vQF4rHMbRA+tx0+Tv4p9fVsBLfr1ePy685j7UNjViyd2TdBVOoYRDFD/270KA4ijCpT0PY7uFuRNefwBBThc9TtJFFFoYPq9LuOW08vt9wi/HR8gr4i+3gBEvJ8eLzTga0o5DDfi8cIj0c9N94cDlXHj09XxueS23xyff66aN5ZVpSP54Hp3Mmuv2Y+GUyVi8fr9IA7fXKwKScVcoOh9KiSu6KCbUf/EWlq7+XKwONvCKSUiKifQ1BWabHRNnzsOgZKrcK/Zi0XVjMPXGH+DmiaNw+xOvw+ENCndfvPcKRvTvhayc7pi1YBG+fVF/Ou6JOQ+/BKdcegye2v34xdzr8b059+OqSwrwrWn3Yl+VG0WfrMKi+bfjF//9M4weMgDf/t4i7K1sEQqopaYYb658GSW1AYSayrD0j7/C2j0VcJZ9hru+91+YfffPMH3KlXh06Rq4qaGx8dUn8Y1eWcjudyHmL/wxLuufiZz8Hvj5Kx/K+WGKqat8B+6/7z48/OijmDVxCIZecT0+LqoA3LVY9dob2FlahpC7CSteehpLljyPGROHIzs7G+Pv+Q3JRA0FTy1+d9c0jJ9wExbcfB2m3f0YDunyVhZtwrRvDkZWVhbGzr4Hs8cOQ2ZmFgq/+0PUsnZlR/zDStTfgjee/hEG9OqO7Lx+GDN2FHLJbU6PvljEaSvEDWLr6lcwb84dePyhRRjUJx8zFj2FCqePLBkNJdv/gZumXIu771yIof0LMP/xl9HsY0mj8eClhbOR3/ciPPjH19FI981d9SUeumc6ZsxZiFumXoVFv30bHrcT7/39Dazd97m49oaVL+D5Nz+mhgorfbqRbQNVKDoHVOAUii7Jzr/+Uou3StXym/f3Uz2tWxDhcDiy+d112oMzR2sx9lTtnUM+7bOXF2oWa4w2+5evad4g2dcWa9+5KIfCsWhX3PqQ9t7yJ7XceGjJfa/QPi33aQF3vfbgtOFaUq+RWrEroP3Pwqs0c0yK9oe/f6hNGZarJXYfpn2wa4c2c3x/DeZu2r3Prolcu+jtn2t26ljG9LtSO9hIZsFabcGEAVrmJVO0fXVObfkzt2uxKQO11zeUaC0lG7QRvS0abAnajPtf1D5ZeoeIW/Kwm7QmT1DE7zdzL6NrpGjPri/S/vSzKcJ+4h3PaV66Vs2+T7RLsuhaGX21VV80aaFQUHvniduEm0tveVgLhgLassdu0+wWk/bEuwe0o5v+ovVKt2ujZvxUq/OGtaCnSXv8xlHCfe6IG7RPtn2oDc2g9DUnaq/scsk4RaVt/cFPtOE9UjVYY7XvP7BYK9q7VpvwjUzNltRde/b93Zr72CZtcJZNS+43USup/kK7tHeCZrJmac+9VyT8NxZv1MYUZGrj5j2uVVeVaNNG99aS+xRqW0qbta0v/JSfYtBShk3XKp1e7a2n79UW/+8WzRMIUho2aI/dXKhlXjBK23S4Wft0+YOaJTFf+8Oq3ZqnoUy7dhDJTDL9+t3DEVnpv03+UCg6C6onruiSUN5GrD1GTncSLrfsVR+PukM7sfIfnwLWVGRnWpHVdwDMWgBvr34XLa6AGGsVwZhjMHr81biwX18kJdrg93rh8ATQRD3nFR/vgMWWggS7GTc/9jqOlOzBbZNH4547F2DmpBH47I3l2He4kXqAAbgdbnFdiRSQNSPjLfoQf9twkARuwPKXFmP9thKgaT/Wbt+DAMWJXZvsqRg/fix6XHix8BNwOBEM87C3hutm/RC3zJqJxs2r8f6nh4S9u8kBOQMePRLBRV+DRU8g3gc9NfjrS8vhCcWje7YdSbl5SKQ0/GzTR9hX2iQcGa4HF16LYdRzzs5KpDj5Uef0CBseDZBQWyM2HglWK+nLLEy8ejwK+g3BmG8OQMBVhw8/2YOY9Ivw00X3YtrYgVj5u1dQ7QhCC/Kwu0yfnRuXY/uhWiQmJiExqxeWvLUZezb9HZfm8/y9jsmM9/5wO14rz8eNE4Yh1mKG5/A2/O2DHQh5HPjHsqVYtX4vbM4KrN2yldIp4lPkEdrRUauZQtHZUEpc0WXpdfFgpMfKLwAV7T6AsPhEEFfcXG23Vtx+L8/bhmG2pCMxnufL2R0rRwc0fU5YmhifzWS/egi08zZWoYUUkN/dhGanhrj4FOTndUdCrBU9C3ri8N4NqEztg4EFmexDD588cgDRgRNeR70Y3g3ZElA4biIWPPAcPi/ah4dnj4VVXlH6Yzkir1XJV6Q42PSeBbD7d2PTfi9GjOgnrcnCcClgt8KMTVtttLATzc2s7rshKYmvxg6BkNeHgJe/+81IYdlOfHBFPO3NFYkRjhEmb3rkhHDklhRsXFIC6fkw6qrrYbLGomBQD+zYuBra0ELkpcp7pbcr0FJRKj4H2tjYDF/AjJT0bOTlpFM6UKi6G2f5Xjy9dAVWv7gYq7ceEa+Q+10O+ANeaLY4XDZqAm5d8Dj+9eVePPOD71CjRfqTsFyRI4WiU6KUuKJLworW3nss7p1VCBvl8h3rVuNoCz/kxWpF/gV9LhTt3Esd8Fzk5MaRbmkBP+fkbKgRvbTs3j2oFylUhgxUVPVmYWcSPTjGRL3EPshMi4G7ejdWvb9L9EWDLieOlW7DwgU/wsbDfnz7qktg0Xg0wFAXUonGxCWKTw4yYer9x2b2RlysBY2l+1HmikW/ggHIT4mD200NCnbHypAd0/UjIrAJWYZNAfzx/jlY8san+Nb1NyLZplvr17RazbDYLMJfmLSdPyD75wy7MNuy0Ld/Nzpyw+UJwd/SBL/fj6TMNCSnJ+nJIISgP3lx0ZulM+PxNykUNyrYDf2Rc+mDIOXNoxewWDBgYE80HlyPW+f+BF+6sjFlQl+EjQcFBZT+fQfDbjNh38b38Plhuidk6mmoR0OgdVQlIX8wfv/EE0jzl+HRXzyCkjoXEtKpAZWQhOaKoyit9VEaXoBeuWnwOBup4WFGTEyslJOECog0kKMYUkiFonOhlLiiS8IVvslix12/egGLbijE0a0r8JNHluJgeTUcLQ7UlB/AXxc/hj99uh/p+Rdh4Z0zYfUcw5aNR7B71z5SaN2x8PZbkRxnQcDngcfPCiaEJkcLGqoq4PQEEQ764XF5kJg3FHfOugqx1JN98kdz8Mc/v46nfv8U1qzfjmOVLQi4GrH+7VWoqeIh5wAOf/kvHG3yCAWYmNsfyXYLwrWlWLHkKbxVm487plwOq7scD//4XvzPn1/FM4uXoMZNStfjJ6VK6iYUgtvpQt2REo4qwh4nWnysjEIo3l0sGhGb17yBHfuOiQJee3g3issbqRechIy0VGpgNGPNGy9iycoPUE29XKahoRkBLR4LfnYfMuOc2Lp+H/YXF6HFHYPpM+fhGzl2UrJ+ON3cI9fQ4nDAUV+HugYXnYfhbW6R+vs4mjAUcKF4TzGqKkux54sjSKf0mnHVN+GoOISqej8CLRVYs2wlXC7266f034kGbxAXjfsurh3RF81HtuKH9/0Uf37lZTz+/FKU1jjQ0iiH3IMeB3pNuQ2LZo1AyYbleOSZN9HUbRBuuXocYr1V+O3DC/H0i6/i2eeeR5nDBGtMHHLyepHIIWx7Zxl+/+LfqJfPIZHwQn6FonNheZjQjxWKLoSska1xKbjymuswfuxl+PKfK/DhZ9uweeN6bNu3H0PGTcXsqeNht9pQMHQUBmaE8Pbb72BfpQP3/voFzJ1yCazUTd678R2s230MmTm5CAd8cNSUoNEXh+zMJMTYcvGtwosxZMRY9M22oay8EodKK3HtTfNxw/grkOSvRpM5GWOmXI8Jw/ujtsGLi4aNwdiRFyOBetyxafnob49DRWMN7P0n4I6p41A4fjIyTGU4WlmPY/VhTJ/zA4y8MA8717yJbUdcyM7OJOUFVBz9HAFLGvJSY2HNuQCXX9gHeWkWHKp14/JvTcaMa65EbXU18nsNxcTJo5GdkYmCXt1RebAULWkFmDMqA0tXbUBqeg4SQm4kZl+MCVdPwoj+2fhozSrs2F+GSfN/iQfnXSNWc6s6sB1vrdmKhMxsxFFjxOeowJHaILrn5yHksGLCpGGIFcMK3AM3UU++CsuoEVLmsWHwwO7Y/P4aHAvn4cEnf4vJw3ojMS0H5sYyeFN6YOLU7+GKC5JQ67Ri1OgJGD60AEkp3TF67CiEfM2oKj2EJlMGbp87FwMzXXh56XKEu6UhO8mC5D7DkFT/JeqCsXDSvenWfyRmzpiOPvZalFY0oPxYMybP/gEmXtoHZmsMBg66CNX7DqIC8fjJPXciO9VOElNzR/XEFZ0QteyqoksihkeNnE2VsxgA1od6j19btzPnQ8N/Ozt5xAPKujlPRkeKke4uYkyu+NgwjCCHmluLnx5W60UJw71uZziJ8BUDMiIzDrg98mL6iQ47a2ckEGGwlZRRujEcGmHzOR0fLwzd2FG+C1PHTMKG2ni8/MFHmMVz9LrbaG+cBvI5Az1MAd8xNqE/MhbWtDO+oC6IXNc4MPyeDOle7s08QSLP9Pl9haIzoXKtokvC1b2YlxUVv6zc5bm51bzN1s482n87O9oJfSHPjWuxmyh30oGYgzW3txObECnq3LA33Ea714/Fg2TRW7QbfaPrfcWMtzbXMszanRubCIPlpuOIG2nW6k4/Pk4YrA9ZMTub6lDv9UMLB9Dc4pSL44j0EsJE3JsjMkeHz26kzGYj3uyPqiw+En8Rt+wv2u/JNume74scOOALqapQ0TlROVehUJx5fM1YtXIZfAkZ6JFtx4rnn8f2I7Ws3SNPlisUiv8cNZyuUCjOOBqvgCZgjW1UMfKZdtH7FeYKheI/RfXEFQrFGUX2C1hJ08YPBhjH+l51GxSKU+NU+tiqJ65QKBQKRQckHA6LZ0b+HUqJKxQKhULRSVHD6QqFQqFQdFKUElcoFAqFolMC/B8OijBdiuAP1wAAAABJRU5ErkJggg==;" vertex="1" parent="1">
          <mxGeometry x="280" y="680" width="497" height="232" as="geometry" />
        </mxCell>
        <mxCell id="zRWtBp2NT59PFULqCnVe-13" value="" style="shape=curlyBracket;whiteSpace=wrap;html=1;rounded=1;flipH=1;labelPosition=right;verticalLabelPosition=middle;align=left;verticalAlign=middle;" vertex="1" parent="1">
          <mxGeometry x="810" y="695" width="20" height="165" as="geometry" />
        </mxCell>
        <mxCell id="zRWtBp2NT59PFULqCnVe-14" value="附加包头" style="text;html=1;align=center;verticalAlign=middle;resizable=0;points=[];autosize=1;strokeColor=none;fillColor=none;" vertex="1" parent="1">
          <mxGeometry x="850" y="762.5" width="70" height="30" as="geometry" />
        </mxCell>
        <mxCell id="zRWtBp2NT59PFULqCnVe-15" value="" style="shape=image;verticalLabelPosition=bottom;labelBackgroundColor=default;verticalAlign=top;aspect=fixed;imageAspect=0;image=data:image/png,iVBORw0KGgoAAAANSUhEUgAAAeIAAABMCAYAAACxiLSJAAAAAXNSR0IArs4c6QAAAARnQU1BAACxjwv8YQUAAAAJcEhZcwAADsMAAA7DAcdvqGQAAAzuSURBVHhe7d1rjB1lHQbwZ+Zc93rO2fu2pdvSsmV74VZapFhqQREtNRqhYqJWExMRRf1g8IN8ICEhEY1+Ei/RGI1+QCBg4o1KACFBobQKbbcXqCzbdrd76273nN1zn/H9v+/M6W53226b0DMkz2/2PTPzzpzZT5Mn/znvzFiuAiIiIqoK25sTERFRFcwbxFIk+42IiIgugRehF8rTWUE8c2fLsnQjIiKii6cSVc/9LD1XGM/5jbhQKKBcLntrREREdKkkgiPRKGwpbm1Zm1vgVoLYz+MjR47grb4xlFQW+wnNupiIiOjiSEXcVmth/bU9SCaTum++K82zKmJZPNh7AI88n8ZgJuT3enPGMRER0UJZcPDZ7jx2bF2LVFMTwipGFxbEB/bj4eczOJEO+73enEFMRES0cC7uXZXD3VvWINmcQkzVt7Y1d4z0WYO1TNhWkllwwBYREdElK5RdlEoyGNrrOMusithxgIO9+3RFPOBXxF4OW6yIiYiIFsyFg891Z/HJTavR2pREXTyMsB6wNdvsinhWLSzL54hvIiIiWhC5D0lK3hl17yzzPtDDL4PlqrQssRYmIiK6eP7V5PNdVT5HEBMREdHlwCAmIiKqIgYxERFRFTGIiYiIqohBTEREVEUMYiIioipiEBNVmdxbOLOpD++efq/562dtO/t7s5q3XX1U9pdl3fQ6EQUFg5goUBwdnJbrmBD1g7QSoGabTLKvXtf9ZvnMPmqm5vJkn5nHkYmIgoVBTBQk8hQdHZwqWnX4CjX3wrTsSFOraq7+9D6ylzye1pGAln61UlbLJnx98y0RURDMeta0nOSHeuXtS1MYSNve+x78p4Gc+6kgRHRpZpx+hiplr2hvRHdzVJ2PDnr7xjGOMBLlEhpaG7CiJYJ4SMLahG96uoi3jk3h6mUJNNVYkJeXyiHzRTW3VRDnCnj9vQwyebWzPqFVtazf/sLzmej9Jlek7u3O4Y5NPehIpVAbtxEJza1/WRETBYS8p/S2DYvxjZubcHxwEkeGsth4TSe+fWcXrqq3MXxqGhk7hq/fsQwPbuvCpo4wjg5NYbpQ1vO1Pe343rbl+M7mDowMn0bfRAGbr1+Cn+3swY41DfpdqBLAZ2c/EVUXg5ioqvxUdNHcVI+vbW7Hsf4xHD6Vx8CpLJ7dfRLFUBi2qpTT2RLeGZhCrqxOXBWqx8dzGJwsoug6GBnP49DJnDmSStqRyRyOHpvED3f1IxeP44HtK/HpVXXe78lEFCQMYqKqc/RnXUsdFsVt3HpdG5Y2hvXvvGGnjKfeGIIqehdGql4V2n7cpicy2PX2JMrhCL64ZTFaY4xioqBhEBNV0Zk3sriYVhXwaMnCos4mPP6lNbj/5lbUhhycOD6BfZOO/v33glTKnrn0bH4zPjqcQ1FlfbKpDhvaY3qQFxEFB4OYqIoqtavK47GxCfz2tVGU1UoyGcMXbl+Op+6/Frd31UDGWumUvVjquBNTZVVdu7AtGx2piLeBiIKCQUxUVV64qpnckvSnl/rw3af7cWSiqAdvNSRq8NCObmzrius9zxXFlSpYBa98TxZ0yMuft830ElHQMIiJqsqPRlUFtzRgSZ2L3b2DuO/XB/CjFwYxMF1COBTB3RtaEJWQ9faead5wVenr9zfU2qoatvTtUEMThfn3J6KqYRATVZ35pTjRUodNi2vgqJVitoBnXj2O7z97DKN5B4n6mB457T0y67z8e5NdV25VstDVFENEnemnJ6awd6ioR1wTUXAwiImqzvxSbNlh3HljBzpV6avXVTt4dAJ9U2Xs659EQX4nVsF6Xl5Oy14SuLGaKG5d0Qi7VMITrwxgIGdGaBNRcDCIiapKpaX5UxnqIFMC7trYiTXtNWhtjOJj69uQGxnHL/41ipp4FMtVf0ydtVLpdjTG0F4fQci20ZKIYmVrTB8xEgmhPRVHa1McX9myCM1OAT//yzv448GM+X9EFCh8xCVRVZlnQsv51ZCsQUM+i9NWGOu6kqgLuwgVS/j30UlMFl1cuaQRPR1x1Mkj8iwX5ZKDsXQe/+nPYs2yBDobQvCefolMrgz1FUQKBbz2XganpsvqO+Yc9gdzEdH7a6GPuGQQE1WVH8RycppTUS5M65c5yAmouiRchbmorPpVNWzGRKu5CmR/7cxlazX3f0tWMxO8Mvf2YRATXRZ81jTRB4IfiJKY3qIi4WnLpOYSqdIkcOWFDbLNskJ6m0z6T/dJk2XdZZp8eMfWg7f0OhEFCYOYqMpMxWpC1SzLaeknprdN9Vcmvex9o/ImpUqPmkkz/Wa7t+xNRBQscoYSUdVIMJoq1yxLiJoA1YHrLetT1dtHh6ksV9bVvv4x5Hv+VAljs+7vbxoRBQWDmIiIqIoYxERERFXEICYKEBlBbUZRS9MdZtl1vOZvk+b1eetmklHYppkR2f6obCIKKgYxUQBJdp4JUxOxnc01aK6x9Ma2ZBxbelLYujqFGzqjKo8d1NVHsKReXnwotzSpb6j9zJhrIgoyBjFRgOj7gvVYKglQM7DKsm1s27wU23rqUShZ2H7zUjz2mS5Y03m8mwbu296Nh25rg10oY/PGJfjy+iTCcgjJbHMIIgowBjFRgJgXNXghLE/PUoG87cNL8ZFECb9/dRh17Y3YeUsr3GwOu/szePf4BPaOFrH1+k7cmLLw5Csn0HnVYuy8PmlSWDdzbCIKJgYxUYDIpWRzOVk1FcjdK9vw1Y0p/H3PCKZLLlKpWiSiNjrbGrB+UY1+gFahrL5jW1CFM0rFIp59cxw7bl+Gm1rDLIaJPgAYxEQBoiNYp6cLJxTCPTe1I5mfxt6xkg7boZMZDE6VUdsQx7c+sRx3rUtiTXMUew6NYc9wUY/d6jsxgVFEsPOmVvPqRCIKNAYxUcBYcnlazRPJemxYHMfIqTxyUvWqaXRkEj/ZNYCBdAlt7Q148FMr0JCZxI9fOIHxojqhLQvpbBHDGQdrr25CR8Qck4iCi0FMFDAyQlqK4lYVtCkVpOOZIlQO6375PD6cxv6hLAZGcyirPVetaME3t3SgRr8dQn236CKTV1vitehpDulvEVFwMYiJAslCbUweXAnk5H2G+nq1i1RTAx79fDe6nCwe+N1BPH04rc5iG7esa8fHu2ImdB0XOcfRo6/rojzFiYKOZylRoEjgSgOmi44OVtuswlEBu3FdK1Y2hvC/k2kMpYv41V/fQ+/pEkIhW4V0zOyoElhObBl8La82JaJgYxATBZBruTg9PI2cqoQTtREdxvIbcSbroKy263uNVcZmcwUcHS6gVHYwMp43GR4JIRENqe0l9J2SvYkoyBjERIFiKlhbBfCpiQwOj5fQkYqoitc82OPNg4N4dSCP61Y248qEhbpkDVa3RvHS6yfxYl9e385kR1z9AvKx/nEcmvbrayIKKgYxUZB4qSlx7OSLeOKNUSBZi+U15lSdSufwyB968dM9k7jthk7cvaYBjz95AI++fBLT8uhpdYDOpkYsb7TwxOvDepAXEQUbg5goQPz3BuvJsvHy3kE8f6yEu9YlVMpKqlooFh28+N9h/EqF729eHsTuoTxkPJeJYQu3XtOCw/tO4pl3sl59TURBxiAmChQTwjqMVQuXSnj8z0cx1ZLE1pW16oQ12+R+YVs/TcsvoSWEbdywth3XxbJ49LkTyJXlpRFEFHQMYqIAU3mLdDqPX+7qB2prcUVCv85hLtdCU0sdmpwsHvtbP4byKpi9jCaiYGMQEwWZl6bFbAkv7htF30RRr/vMEyylegZGR9N4rvc0JvKmT1/JliUGMlGgMYiJAk4uUbs6TW39vOm5pE8uV9v6krVJXrnArU5vb5mIgotBTBRofpCa34xlmkX6ZoWvN3l9MhFRsDGIiYiIqohBTEREVEUMYiIioipiEBMREVURg5iIiKiKGMRERERVVAli17/7XzPLbmUiIiKiizUzTc/FUgGstzpqJkuHevfj4X9kMJAJmVsTVZ8+gF4hIiKihbBUdt5zVR533nI12lMp1MdDCIfmXoiu9OgHAPj0oklv8ylkiY2NjY2NjW0hTYpbk6zmU3rnU6mIRdlxcfDAfvzgn5MYnrJnhzMREREtnIrX7VcW8NEPrUZ7U0JVxOF5K+JKEMtH2XHw9pG38e6JERTKZ6U3Q5mIiGjBJF7rYxaWrVyF9mQCtfEQIucKYtlZlFRFPJ0vYXK6iKmCg2J5VhQTERHRAkn5GrIt1KkATtREURuzzx3EsiAzuTSdU6XwVMFFtljWwawvchMREdEFnf2TrrwRLR5RYRwLozZqX+DStJrJUrGkQrjkoFAqQ3KYiIiILo2tKmKVw4jFQoiFLFUhX+DStMwd10K5DJRcRwezyXYmMhER0YXMrIglOeUd4tITUXPbclUwn6ciJiIiostvbjQTERHRZcMgJiIiqhrg/1gt5u9Co7FPAAAAAElFTkSuQmCC;" vertex="1" parent="1">
          <mxGeometry x="296" y="930" width="424" height="66.85" as="geometry" />
        </mxCell>
        <mxCell id="zRWtBp2NT59PFULqCnVe-16" value="" style="shape=image;verticalLabelPosition=bottom;labelBackgroundColor=default;verticalAlign=top;aspect=fixed;imageAspect=0;image=data:image/png,iVBORw0KGgoAAAANSUhEUgAAAvoAAABCCAYAAAAmGXLkAAAAAXNSR0IArs4c6QAAAARnQU1BAACxjwv8YQUAAAAJcEhZcwAADsMAAA7DAcdvqGQAAED3SURBVHhe7b0JYJxXeS78zD6jWaXRvlmLLe/7FsdxHDub7WCcnSS0QCAJBGhuoZRCm0ugveVS8kMhLf/l0uW2/EDp35SELCUJ2TdnsbPYjnfJsiVZ22ikmdHs233fc75PM5IVCJYSLOs837zfcvbvfO9zznu+5YwhT4CCgoKCgoKCgoKCwnkFo7ZVUFBQUFBQUFBQUDiPoAx9BQUFBQUFBQUFhfMQU3p1592iGgwGbU9BQWFmQHJZp7TisILCDAIRV++Nde7ysQE5Wqv7eQoKMwX5PHOWOZwnLhuFnT3V/visWwDdyFcGgYLCeQCms24pKCgozCgUU5f7ZtE/i61hrK9WUFCYCdBtauLuNHXKZ31Hvzja4cOH0dnRPq5QhrHCKigonMtg3uZzecQSCTjsdhiNzF7FXwWFmQK9P05n0shkcnA4rExsvhMn3BWfFRRmDkxmM1atXgO/3y+4bTRO7anctBj6d911F/6/h1+CtbSBPbhVUVBQmCkgYyAXCyN8ai88zetgsjrIRlAkVlCYGRAWvdhLBk8hHR6Au3mt6ItFLy36ZMVnBYUZg8Bh/O/7voWrr75GHE71zZlpMfRvu+2TeKK/FjWrrhrnrqCgcO6D3wOMBU7g8M++jIUf+z4c3ipl6CsozBgU2Nq75wGE2l/DwlvuRT6bIRf2YYNf8VlBYSaAX9g5+dBf4jt/9kl85KaPwEjHpt/nHX096u1s6A/Wo3b1TuEmHhOqdkVBYWaADP3oIBn6P/kCFn38B3D4ahR/FRRmCqgblvfuDeh9/T8ROvYKFv7hdwEy9EUXzd2xuqOvoDAjwJQ9+cDX8M0v/iFuueUWmI15WEwm6XmWOOthAjccutBqbKt58kqJEiUzQMTAXEOBx0qUKJkRQnwViyEvqKuLMP45iADvKFGi5FwXXjPSWSCT5VG87nL2mP55t4SRIBsZtahFLefgwrf5iqT4oZ5ir1rUMsMWjb9ikC5Q4LPcl7N3qEUtapkJi0SWeJ0TfbTmMAVMaXrNsUWfwksTuU/NyywUPn+DJnp96DI+rH480f1M0eMW6vS3x5mafND5SeH89Dxnq/58IELVOxHsTpeZhFcTwp/Xout6TtvycbH+68csOeH2m3VUhi1wlvf1dCcLP3XRy6TnJctwZripil43YktVUThXWXcfjNBK5CuP9TKxTsvyFIedHcJ1IPpj7ofFIffHvEO1ImR21ktBaEU/wQ3anFkf+nHBfSz8pMLhaGdsv+B2ZtizlfFlKWynM4/xUjhfWoljuZ2OPJUOvnfhuhIbIXKZKqbl1R1dyFUswv9dwpz/ol8cuRUXTRCGR2c5IfyHCDxSE9vfUk8MXnNa+lamTemI2HREHpPFfa9yJmTZOCdeMyaLN50i8hDnUjjDycIpeZ+El8ncz2NhSFbRllQun8+S5JEVvGSjnrnKXIDga47VkrnGG44vdyakKYXXstUeC0aYHr2WDJFpsYiFysqQph7nN3ncsxWRnzgHiTxZ+lwfXDc6Jos3FTkT8qzlVrajfH1kW8puk6dz/stvq/vpvzYzQWil6QuBFZV1hZSWd7lf0/tiecz6zDo0FmMM49Jkf7GV+xw6r/FcR3H4sxEtFW3L4LLJcuqYLN5URKRJImuAMhqrG+2YZLJ47yYSFF+IbGUnC6fkNwnXIW3H6cLZgQZrxerzu0EqAHDbp27Drwd51p2d5Chd9Qs72yAetXAN0Lk31XvR4jEgw5MfkJvJZNQuHvnTL53N40R3CD1RditgfL1JonGy7Co6NtqaisPQ/nQog1QFzs2A2konWt3A652jSGRpRGiY/re8iiHPkfOnfTpBPr3J9Gc26tT7Dp51Z+AEDv70C1jyiR/Azh/jzgKwvvHCaCSutvlMSKW5YyJ9Nxph1lSeOZ0lDnSeDuFUJFfgGm+Yl0U6yR2ycGRP2vCRUfjLzo7BsxxNBTIPLXNCZbkLC0uB105EEEsbRH7TzRNRV8KgMcBb5sCKShvxNI9EPIW3u6NI5bhtm/48iyHbCNpSNpQb5rd6UW2hA3I8xu3o6NRnp5iJkIM8uuZ07qdfvx+ho/Jj3LzseAhspM3Geinwu67WjYVlVuI3EZlgMBpIV5gnFI70OENVeIr43cn8ZgXTdFmuC5A6KdPk3RxxQtasFpI2xrO/fyowUe9zdF2XN7thicbwem+K+n4u3vReT72u8nTeHp8Dq6vtNCjKIRpNYn93HGnWr9+B32P1RD9+BYX/m+X9tiHOF/B16HzwHnztro/iozffDCd1RBbL1OrO9HWCtv87oZhED/3yIbRH3XDVtLGH5jpLwQrORKRdC12g+spS3H3tHOxYXAZbIoqXTkQRS2bhqS3DXVvqEO8dwv4gN9TvhqLapLSd9X58qDyLd4azokNn3zHDY4rQyVnisuOrH12IT67xIx8I4pX+zPiBxfsG0h2zBVcsKUNoJIp49oPIU4E1KB0dxuC+x1C5YgfMdpfmPjvAWm+l3rPSz1xtwlXL/PBkYnipYxSReAauah8+S1w19AWwN0DGUxEXJtNQrQmAp8aHS6uMOBqkbpIcJE8ni/E7QpJewGK14s+Iq3esL4cpOILdfWkyM4oCTBP0Vl2kSh32FRsb8cWtNVjpBZ58Zwix3NRmhfhtEP0NVeKCeX7Ms6RwcjSHujofvrqrBdcs8aCnYxBvB7MfUDt1bkG22wQ690jPQSSGulG+7EoyYPV+Zfr1YSZA1oo8d4vZhHKfG39xQzM+tMQPPxJ44XhU8Nte7sXnLp0DWyCAPQMZLd7kNSb8RJJ5OCp92NVgxP7BNEwcmn4yt+mBfl0XLKjCt29sxRVzndjzziAGUtPV4xcwnt8mXL6hFl+4tA6LncDTB4OI8+DndwSXP2cyYcuKSqRGRjGame5Sn5/gazFy+BlsXr8US5csgYUHpaapGfpnHZtHd0reRTQaDg7FcKB3FGE+pl9wOIlDPVEc7I3j8Wc7cPevBzGaZULkkM7mkMpkxZZHwLxl4TsNzLEc7bvJyL/v2mbUOIzIZHRq8h2+PFJaeOFG4bPUyKcpMruxP4/OOQynrRWPwGkU8mIvjh9PZHCkO4ruAJWfO09xC0GG18NmxHsMBC6blrZIn9z5mPMWYcbyot2iOpIOmhDEY0KzGTs3N+Nza70Uv5AXP/ng9MRDQFE3sp74vDJavqJMwq/oPGXK2pafoGTJLyvCnQnpVlxGJbNE6LoHhhN4+3QEIdYBklAogXe6YzjUF8fTL57Cnz/ej5C4GSh1UddNwVU6Zp1jvaLkxOsBJdWluPfqVszz0iCK/ATYT+M6i3TlpwV0rKXBbvI4W+Aqi4DU9zTxi2/iCt5nMjjQFcPpYBz7Ailxl1IUQgsryqVxlV0FNzkNEp7QgV9TYl6McVXLS+wW1RG7iJqi/fhoAgf6k8jQMaec0/JjcLp6XXBw/Xz1cuhtnTgHWrSkCRyfyizqQfJb8Fyra743PX9JDf7qyhq4qdfKUP300zVLCgOEykHbHLcTHJbzZlfyKj4HJbNPpIljQJD50RPBSI7dgXAkTvwexcG+GJ595SS+9GgPaDwuVDHFOqeJ4IfQSam/pGXCzVruw73XtWCB1yj8uGkQbCDdk7or+ytOkLVRuGm6rPe5nI/UVB3Sn/Ve9NnkwmmeDiTQPphAR18Uvcm8fEJI/mN9H3FJ5MKFp61oIzQ/TofbE85LpMdxOZxWP2PCTmIBktEEusI04OGwBG4aRD7ELy6v7IM5TeapbDt4EeUhNz4WrxpZTdi2qRl/stZD586vRGpZa2mIeuYyciYaxpVJyZhMFeqO/jSD60UH77u9Jdixyg831cqRjgCePxFDa1sV6vPcyKQwkkjBWVWGGynMyiYvljeWwGm24ZLlfqxrcaPcmMWJkSyu3NiAb13dhGYXUZ+uu89poQYghii1MAua/dhF4VfW2mkwEcVI2oBNq6pw+XwfVjY6kRqNY+7CKuxY5IMzlcCpMEXix/D0K6vw4Lo1FVhWaUGMyuyxm7FsXhm8ORqU9CcwHIzhZCQLA5HXXurEjWsrqVxetLpyaA8kiajAmqWVlHYpVs9xwpZJwt/ox84lPlSZMugIJqm8fL/jTK2QTZlQGVRWevCVG+biY0s9sLBy2y1Y2ujBmiY31YsHa1tdGO2nElJ5P7K6EquaSxCjUdL6JVW4pM2D5Q1OeC0mXLCsAhuaXXDlMugaSYvGiq+DqcSOG9dXY0OrB+VIoz1ErTqXiX+i9RHNDxdnFmJ239EXOkA6YnfZ8eE1fnhIF453DuHZ9ijmzq1CtYEM/t4kQskMLGVe3Ly6HKtIL1cQVx0GC7auLMf6FheqrcTxgSyuuKAe//PaJjLyjUK3vSVmDAzHwCo3b04ZrllVRlwtQWQkCqIQNqyowjbi5spGF9JhynNRNa5c4IMnmyaukg6LIlJb4nPj+vWVWFllRZzcSq1mLGwpQ5UxLQyW4WBC3OnmTO1eB64hrm5o9WKeJ4/jgylhmC9d6MdVS0qxao4bjnQCvvoy7FpaihobtTNDKWIkVwYlPqFzEa06u/M+tQVNdB5bW4iDw6N4eP8wotSRm50luGkD5UntQ1mOjJORDOrrfdhF9bWO6quB8kiUlGDXygosKjejZzCOJBdXS9/tdOHajRUU1oOVzV5Rx6upDZzjs2HL+lp86ZIaVNgorNkIHxkR1DzhymV++Iw5vLx/AN6WKmxf5IE5msTpaOHO7PmOsT6Hrpm6o/8uoCqwO6zYua4CPqqKE11BPH00irqWCrSZ49jfm0Y4SQT1enAz9YdrmqnfaXGixGDDxdS3XkB6WOvI4dhABpvX1uJvrm/BQp+4j096axX95HDKgBbq+65Z6ceq+hLEwzHSUdJrtw27LqgWaayssOBULI9da6tJz+0Y6o/KGwh0DUu8TuJ3FVbX2AQvyqwGjFoo7mIv+gIRnAym0DUQBdngsLmZ39W4sNWNhdTOdNBgIE28tNlt2EZpXET93HJqJ4YTGVxM7cvGVicyIzH00UCBByvUw4pq0aGrEFcU78+fW4aLGhwIBaN4cwTUZlVgRYMdgdNRWCq8uGltBfXLxM9mDxodQHckh00rqnE5tVs19jwieRu+eP08fGqFF1ZK1WizwJlNokPeLUFdfSmuX+3HarJPYtTmDSaoTLNcRXVwW6ju6M840ZpYWvHIOmux4upVPhhzRLdkAr1EkODAKBL2Enxycx1uv6ga9UYaUedNKCX/N/vigphvnwiRAU/JEAs7O4fx5JEQwjkjdm5txV9dWYnu9mHEy3z46xuaMZ+Iz+nu3FiPz1zSgK/saMKVi0vxsc31+No1c7HCI4ltdJXgiztbsAAJPHc6gxsvnYMLPAYc7Yliw+o6fH5rPTbXWmmkDlTV+PGDTyzAel8Wzx6N4Mqtc/E/rqyB3wz0hpLYsq4Gn6a8/mTbHFy7qhQ3barHV66dhyuqzEjzR44T6kXqkHyvlw+HQzHs70+JLikVTeDZfQG8dDyBi6kcd17agO11NgylshgeHKVyO1CeTqEnTMZEII3tG+rwuUsbcd1CJ159ZwhOKuvXb1mIjy8mgzWdQ1WdD9/9+EIsMSXwalcSH9vVhluXe0n5+eJo5aGMaU8rj5LZKrRirRB3pdImC64istj5Lnk6ie5wDmEeXFsc+Dhx6Y6La9Fqz+BYxojKVBpv9MSpQc5h/4kR0lVKJJ/DyW7J1RCF2b65Gd/YVoVB4u+I24NvfmQuFpHV0UvE3kEDeebqX+xsxRULffgDagvuua4F68rM4q6c2eHAH3+4BUvNKTx3KoVrt87BBq8Bh7sjWL2qDp/d2oAt9RQ2m4e/3If7bl2ILZUGPENcvfDCFvzNzlr4jXn0DaexgcJ/5pJ6fGlbE65fQR3uRQ34KnFiR60FWR71cgUQJqsfXWgl9zkwcae2oYzyXIC2bAK7T6fwqWsX4A+WucSNh4aWctxBbcldlzbh9k0V2L62Bn+8owWfJg7yUwvmfHNbFX50xwLcMNeB14j7g2YHPkH1cVGFkdq+EezpjIpvhejCYN/RIJ7riIiBC5eD5eJVtbhssQ8fu7gR36B6W+yUg6yJ5VYyu0XXax4DpWDG1WRsWqgnMNKgtyuUQ2Q4jpDRhj+8mPi9qQ7znWkcpX63mgbdb3bT8NoEHOwMYYD4zTevek6H8cShEIbI+N66sRHf/FANwl3Ef7sTXyd+r6owIxpPIU191me21JP+N+JPqd/k11nuvKwJd19eDQ/x0uCw4/NXEd8dGTx/MoXtl8zBxWSoJ0eTOJU04A+2NOLOjVWopYGu2+vF94hr2+oNeOpgGGsubMK3P9yAShoYJJIpJMxU/s0N+PTmRnx5eyO2LK3AZ6i9+MsPNaLMyCQq1MO7iQwA+CvcWOc34ImOOHZe3Iy//3gz3COjSDmduF2cTxWclGcsncFx4v3KJgd6aQAfpP58Xy/fOCDKxpN4/kAA+waJsYY8Lto4B9/ZVYeRziAGbU5844a5WE0DIM5wsrIo0a7HFDC1YYLCewNdJ7pcWLGoBvfcQMZvhUnrUOVFTBNR/v3ZTvyig0bLNCL/CHXatYEgvr97CMGE7AiHo2kymGVyo9Rw9IXTqGqqxK1r/Qj1hPD8qTBePBGlkXIZrl3sweioDG+gRmTPwV7c82i3GM17fXY0l1spTQOqK5xoq7Zi6SIanZPB8pNnunE8AgSpcRmmfLnUgqgmM265rIGMEguOdQzjcH8Mx0cM2Eid6465NmrI+JUYmdeBE0H89S9P4SgZRSVOK9rq7WTv0HlqZR8DnT53xOLkaJWmBMJJGhCQRz6bxWA4SQ3HEL71RB9osI+6Fh8uqqRBB9VbdCSMn7wxjFgmj0AkiRAZN9lMBq8dGkL7YAz/9U4IBpsV126oQlmJCR8jA2OVP49f7Q3g1ZNhdCdNuO6CSjSXaM8ZtNXE2RMUZiGEUgJL5lfiv99Axm+9bUx3uZNKZ9L4jxdP4WeHIjBbrbjp0jrMjYTw7RcHMBgjRSW9DsXSSDFxKK1YPI2BUBqeqnLcvr4cyUAEzxwL4eX2UXgrfbh5hQ8J4jaH52/V9hzpx1/9qhs9UX4aaEMjdYA05kBFmQOLamxUrgqs8wI/e6YLh3ngQVwdJK5yXyC4YzLgOhoYL/GYceJkEIcGojg2nMO6pdW4er5VvJPMdwv5XI53DeFvHj2JfcNZ2EosWFjvEK/2iJP4LRAhqFx8NzlvseITlzVjmS+HR94YxGsnQuhPWfAR4l+VIQdqimS9REfxnV+ewCNkNJjNJixvcYrH+VRoXH1RLZq9JpxqD+LgcBJvHx/GEMUrLyuBjdqGILUx3DpwfuHRFALRrLgvyeBz33e4H3/9Xz04TdegvJzqqo7bOAWF8eDelPViQWs5/pz64l2NNjpmnZecyNGA/YEXu/Cv70RgMFtwPQ2Ilyai+M4LA+iLcrgc6bHkKx/FuS8eSaKkwo/PbKxEjvqmZ9pHsLtzFG6/Bx9d6YM5TX1bnO9YG2A0p/FPj3Tgh2+GiddGtNY74bAZUUb98iLqKxe0+bGeeHT/813YN0JxqC/sCSWpfyUlp1+W0rj20kas9NvQxfym/u7QYA6rl1XjhoUlxF+ZF7cZOUMG//ncKfztSwGk6Li61kH94Xs3+Zhdgf4wHnxrGCd7hvHMqRQN6Mtx42IHfvZUJ549naHzsWDLsjL4uF5pcP3US914K0j1k8lihBsaQo72B8MJwWFHeRn+26ZKZINhPNUexvPHR+Es8+CGVT44JJ0V3gectaEvGnglZ4rWkIgmZYLfO0cH8f2HOvAkf9xKRjE58k+EzydSeODlfnRSY1JTUYISnr5OpEOQCRJ4R7KBH8vOa3DBbzegst6HP/5QCz6x2I0eIpmPOm2nhdKmhUnWHUwKI5qyENF5Ygo24QdOR7CnMwZ/tRd/etMC3LrIhd4IP0HQGMeFozScDhoMNJDBQ3GGubGjVoRnLzBZTJjf6AZ3qSJoJocANXo0BkGU8uO4PBOEOE+RHIeTwg4FXvO9dXlUcJPGy1EyfJ4+nYbRZBeP9ZfM8cIcGhXGjQzF5g0XiYx9Khp/TjBCjS/fkS2jgcz86hISm5iNY9fWZtx9ZT282TSCaRMaPSYRX+TFqXCxisqoZBYJL7SVOgUcaQ/g76hDfqwrKZRSGNFCVWiVSOLh3QM4TlwoLy2Bz0BGKN/1Jy8xY4cAB5Zaze+lNzc6UUZcrSCu/dHOufjUcg/6yaB1OeyCqyIcddK9Q0nEyIpIiPd3Kb6WXIA69Fc6eHDgwl3XzcOdSz1keMiycZnEYIS2VosNyxtK6IAMklgefAMvRYayiQzrxU1eWCkML8zhALULZLMgRB0wg2ci4WQ4Lpf/3epIigghsne6LJhfZaV2xUyDjFbBMUc6jVDGjDoXtRoUmMsXGqHOniyOEA02OG7haXQOXYGkME7MVjKGiMh2uxk2aiNPkaExQHVRPLc3G2QiY3ZgN2oLg3QikWQeiTSXvVBv48qvZNaL4Cdt2zuH8INHTuDhzoRUJVIYcqYtcSadxGOv9uFQKAs/8bvUlIV4QCcDSKOJ0+INCX+T09zgRIXDhLJKDz5zVStupwF8YCQFm90OD+m0CElxsjwwJ0M8QPpKJYJBm4lvOBDDq8fI6PU78fnr2vB5jk/GcY78WN05H87eSob1ykY7uVFfPJqDifLOUF/LT8cXNnngoHBcME47k0hTf0481Ax/8QRdS4f9J9ZNsTB4w4MTtlVydNZJbpMojfp6B4zxOO7fE8BoJo+liyuwscmNzdUGvNqdpDxoocicl0hH23I9NZG9UEEDm9IKNz5H7eCda7wIhFI02LHBwzZLURmUFGSqOGtDX3+koGS80IoUXLsw2rHuxh+qhkeJIHtHkCY3vn5zykvgddBloF/P6RHsHaDOm1/vubgec50FkvAOf3Cmg++8mcmq5SUeiuKnPHJ/+Chu+4d9+MZzg+IreQ4tYogdXlEieidJhM2mE/h/H2rH914NIpY3Yfv6Onx2QykFpc6Swojz4VhU0ExWnkOK784VSiVeRxKUFmnqCsV5yLKxMxdbeLPbJKJPB5jTz4+Tp32ur2wqhX8no4rHF21zq/H5jR68TA1ihsJzqrxw/hyfM5EfEGnpUNmoHYKFrX8q2Z593fjRk5340r8ewB0/OYaXBzLkqqUhosh0lMwOkWBdJQ0aUxteUcdGOh+lQe+Dbw6T7lEYOq72laDcZRJh+/qGsacvibzFgg9tqsfCMa7Khlm/28zgDo4/aOclHonh3184ie89egx3/MN+3P1UH0ZzkjVsQrA2jxVG27JuZlIJ/Ojh4/j+q0MIZ83Yuq4Of3KRX3SoMhzlLDb8gZs4JK5KP7GwX5bLxaADPtY2xZBh2UNux4TKJYUDsb9gnYxBAwR+j5Sblt1vd+GHvz6BL/zrftz+0+PYG2QTQasbCl7YFykJN959+Ml2/OiVIMraiONb6nHTah9eebUL33k2gGBmLGcRgePzgwc+dd7XXwsUBSgCH407ByWzSiSk5jA3hJsmTOlYIoH/3DssZ5Qhh2qvA36nSfgPDITwam8CWRP1ixfVY5lX00H6seJxX8wLpy/4TfrPup2k/v0XL5zC9x45jk//wwF89fFejIi+kw16GZ+3rLviQFPifCaJf/5VO77zUlDchNqyphZfvLgcNtJpWXYOze0Sf3wrj1Ni9lTa0TY8AUfhKZeIID/c5ZJznsKD/SR32W28yHi8CIiNPFeOywNzdooMp8SNjf3v9OMV6kNNNgfu3NEAUziOPvGuPYWnsNyGyhjyHLk/55kIOZ9MLIn7nz+Fv3v4GD7zj7KeAunisigplqmCdVNhGlF8SfijtRy/tsL77EA7TMSOjkEcCgG+Mpf4MM9NI+YsXYplrV50HRzEW0NpVFR4cOvaCpj563WKyqPpCL/DQkd2qxkttR709UYQILe6xjJsb3HDSFZtTbUHF7d6YORn4txCUHhuiLhj5ALwHQ1xTCT01XhwaZ0Nv3ziGO557DSGqKz+MjssFFbmSqDNaCwlXjXIwYQyN7kRWT1OM9KJlJjxgx8Lcl6cG6cr+K1F57y0tuw3gv1H4jJXg8UIl9uGpdV20WAcOdSPFwdSMNlN6G4PoislFVeva6HElD9PrZelOqj2WMV0iT2nozjSG8M7vXFx5+Sq9bWoprLnzSZsWlyOOhpgjZWLdvT0FGYPhL7RonNEtqnME+IkHRw/MYTDw4CHjPxdxEe/mdyNRiyaW4rewwM0MM+gzO/BbRsrxZMt1mCefSLCT5woLavFjKZaF4YHosTVLGrrfdjR5oNZvEvvwtY2D0wax7k0zB/uECWYO1JKK5zY1uIkrrbjvz/ajQEyHir9dmofKJgoNAmVP0kj8d3HwxTTiFIX6TfxwONirqbx5smomL1GgOLJ9kkecgr85EHwlx30ImgQ7NY7HArDLqJ5IQmHkzjAX8aSUfTh9dWoZKPfbMaWpeWothEnRSSZPj91G3uVj8vAQovV4cBSvwk//OUx/OKdIfzrrzrwt8/3o2uUpxHOI5LMgU5BzMdtt1vQVlMCq2bYi7LTuWQpI62E4rykr8KsBSmD1AepDJJlUit4n2l2qnMI+4J5OD12XL2uEhUW4i/p+fyWUgwfD+C1/jTcPhc+eWEVXNRP85N0ntWJ75IzrFaT4HcoEEV/PIvKKi92LCB+U7jSMie2zvfIdkHwijKkn+C3II8sDR+6qC24ap4Lv3qa+P1wN7qTbB84YKcz4BtgkicGpIjfLxwNi1dY/cRvvkfgdluQTafxducoktyWcF6cMIWRfb3Mh1eSFzpLJkKEIjC3OYwBVmGY58V/ilS7rdSOJPDkkVHyMSBD+w/sCWCE+txsOoM9p0a1eBSTkhqJ8sxh1CxQf+tw2bGizoGjnSMYIJvFX+PGhxf5YKIAXE9b5nnB9zsV3h+oWXemGUQrWpGyk9LWVLuxYX45tjaV0CEZojQE7yMC15ba0Nrox+e3NaAhk8DzXUlsWl+Pj7bZ8NSBERhKXVhRaUc9dWaIxcVUdvxFfU2VGytrHKKDt1CX/eK+IUTNFiyod2MtEWVlgwv1thyeODSM6jmluIyMCCeVo28wglG7E7uW+sCv6HUPjuJAdwIWTwmuX1MhPgbKO6yY6zXgoRcHkPW4sGN5Kfz8cU88gbdOxrD/VBx1DU7McZPRYLThigUOPPlyN37+dhh1c7y4clEpvGYDBoejGMjbsX1JGfzUyQ+ORPFmZ1QOBn4L8kYz1rW6Uem1ob7UjO6eCDp5hqB8BgMpGzZV5/Gjp3rRS3Wow2634oqVflRSXpl0FlGjCTtWVKE0n8A/P3EKB4IpdAxn0VbnwpImL1Y3esSMCMc7h/EG1atuu8xuzPJZd0gHqiqdgquXtpTAzEqRyopH7NXE1eZ6Pz5HXJ1vTeGZ9jguXFuHjy+y45n9QaSJK2toQFpD8R2ZOPaeTojvb8qIw2vqHajyO2AjU/f1d4IYMpixoM6N1a0+rGp0odVtwGPE4bJ6L7YvLCVu5jEQiCBoceJDS3zwEJ96hkbxDnHV7LLh6jVV8LFlb7NgXpkZj7zYi9ESJz68yo9yMlB44P0Gc5X4Vkfpz/FZqeO34LKFLrz4ejd+8kYY1ZzX4jKUWXi63yi6MxZsW1aOKgcwHI7j9Y4YxRFVMg7F9HVSu7F9VTmWlduoo87iSHcYz3Uk0Ebtz9LmUuKYG6uoUz9Ig/JTGTOuXFmBFjJKErEkjozkcMHCCiz2m5Gg8r5Cg5IQZXjh+iZ8YpkbjVUurGsrxcb5flxGA4XVldQOBBIYjOUxv8GDtgobqsvsSI6mkHbYyZDyCgOsl9q4COktz/ZFTRR6AlRvPYn31O7MdHBfLEB6q2bdKUDUijh1AyoqXFg/r1zMRU/qAVM6h/5YDjWlVsypK8WdVzZiiS2Np4nfa1bV4dYlTuw+GMSo04k1NXbUEkGc2RT2kk5lqFo9xO8NDXaUkTHuNOWJ3wH0Zk3UF3uI39wXe0R/+uSBIYQox03LK7Cmyg7+98w3T8cwf24FNtbZyPJO4y0y0IMZE3aurqQ+lwpss6LFb8GvX+rBW1EDtiwpx8ZmJ7UjOZweiuGJvSMor3ehiUgcZf4uceG1vafxL3tDyJrMuIDCX0B9nDGXxfGBUZRW+3F5i0PcvDjUFUZnQM5GNxlYlVgWzi3F3JI8glkjDVryKGvyY1uNGQ8834n/PB6jKiVTn2yJwZE02lp86D3chweOxcSgRFe1HLV361s9qKZ2qJHaiu7uURw5PSrqo61Orye3mIL4Garr/vi7D0FmE9iCnu5Zd+ja663E7w7dpFf/jFsAn72oUjr3ZiJ9i9dUuGvGHGCCiGqjUTBth4dkZ7u02iqIOBzLEM/NcIjXTWjYQCP416ghiFNgo9WGC7mhyqTxage5idtzebTN8aHeaUKSOs59nRGE80Ysavai1k55kz/f6hpOG0E2h7w7kM3graMRxGgIXUJ2dHmFE80+M/ppAPD2QJYMYjd1/Hy3mx/55dF5MoL2SAZ2tw3rqDO3mYBoKIbXumLIUF5zydCf49Led6eTHUkZUWqnfLh4VIJDx0PopR6XBzvvBllvQFMt1VmpCYPUcR8IZFFLjcRwKIFcZSn+aK4J970QQEokw/cU8vCVeXHvJ9sw35zBPz3UjkMGK5xkWHWdjuBoMAP+Nz6+k+jif/urdYi7/109YRylAQTxR6SjFVRAPuqcZaA6mq3/jCs0j655A+ndfBpcZkh/WQP4fVbWD9YxMUc7hR0ZieNEzIAVddRh03E4lhZ/WOUgy4FTMhAv+W56gu9Ym63YOK8EtmwOr3UQJ8VrNMC8Ri8aiCupZAoHiNf8WL+NBqAN4sNwatCp4x9IWVBuZ0awbmaxj9KMUEPvpHL4/CVoJX4MBaN4uy+NeRRXPpkiflFw5upx4qrDaSWD2yXKFhtN4FUaAHB708RtkscsystpBxMGlFN8bqKMhhwOHA2hX3/PnfMvAufB8JQ5sbqajBQG1QN/kPjasTBcZEytqrWD7G50doVwLJxDZUUJtW3yg2aWSDILh80svqXhtqGvbxQHh9LwlpfiuzfPQQkN1uUbCVQfdA1qyqw4sqcTX3q8HzYP5dvgQILO57VTMbQ1+1Dr4GtDZSejZihtEt8sibundLzvmJw3/XwHt2/iehnVP+MWg/mt62wd8Xshz2BFVcUuoi+mhTnDx/wKaoQGusfJsF5O/QT3ZiHqiy0W6ov535c5FOnmnhNhMb1l3mTBpvku2KlvZbdQivMDWhs9mOM2IZPKYD9xkb9JKXHYsLKFuMgFoXSiyQxMZgtsNGjnlMPUrhwMpGCnQrl8LrSVE79pEL6PBvhwUp/f5ISFQoozyWXw+uEwknYL1lI/XWI2IBWNi49/09QXc3lXtLjhJoJx+AzZDwmDRQx++TiVSOD19ihSdOLF/BZp8wlwfVAd1VU74cwkEchR2evtoj56esN4Z5C/VjDC57XCSnZEIJHHdZfU48RbvXideGxiPWOi04+1srGGzoc4HBgaxd7TSflv40TY5qYyNDkN4knEvpOjZJ9wqlSi2dj/TgDr7HT/M64y9KcZstEV1UCiPbIrrgdyH1crRApuhDmc7j7xgpj5gx1Ohzz0P4LiR9iSqJQHEUc406F8353dtDJoiY7Lk8DxdejlZKOY4/O7fsWF4OvI7yByGHE+tHDe4i/EyV9MkVcUnqEVR2w5HL8nz1nquRaCayFpkyFLhPPOaqHaFtTiB9dU4WcPHMJbRhcyp0dwMMRTdOlnnkdpqQf3fmo+FpCh//2fvYMfn0iKefg5L/kvmTItPkd+ZMr1weco6oniz8YO8AxQHcxGQ19okNBd0m19X/MZAyu20COpSSzsxHokjFfy43g65F+9c8oajzQ3oWvUlcn3aCV/pDvpPVuqBN6fDCKclicRUHCQMxGvqhFnRFlkUC6QcJev4XA59Ly0NoSCSA4XQzuiDd85stBAns9Blq4ADsXl4D8MSmYoDVEgduS3+ThPmbZwIjfu9Dms5jQO0onf5zUJLl6zawF2WkP40wdOg18MYP+s0Yz/dk0bqvr68bXnBsWfY+npc5tSeMVJw4RDPmcOd75DGfqTQ/KySOdpZ4KKcCC5JR1kTWERakU7QnM4TpEKMbdYpc7ktwzPOimvBnOIw7LOEgeEo9ZWFKWngy6dLBuFE+0DheUJJLgwMp9CJNZrDq3zmDkp+mIKwslP5LfYpxXbBexvtzLnxhdDL5Z+rjzZBt/y4EXkT4nLMlEaZhvuuWUBWpND+PKjQ1jdbMXT+8NIFN3K09tEce5i1yDaCB38jSG/0scusv544WwKYWYr+OqdM4Y+R9PVSRn646FXaeH0370eRFjhXQhTHFqmpNeoPBLgetbiFYdn6KGL4xSHKk6z4MqNCd8ZZEjjoHAexXHJTUbVVxxSbPVjCV078kha7fjLm+ZjkUsLJ9LTfGnDR7FQDPc+eBxHonws/cubK/G/rmtE74khPHs4iIcPhMRHzAIU0WS34PLltfj05gp4DDm8sLcP//bGII4G5aNJ/ez4PPgcuETivMQi89XDzGrMWkOfdEOq2hgm0wadBwwOX9AZcmf91XRSclkEoI6ddU6G1ZkwBj7kMHKjgULqB5MEL4QueOouE3X4zDZFi8MZ8K7GBx0yPAn9kg4H7r52Llb4qGMpSnYsSVonw6P4fx4+jgMj3GKQH6U1FrQozsTKLS6ndC2sVyyrxh3rSrH/yDB6omwc5OFx2FHtyeLBF3rRPpoj40R2dqI+OVJxvrMYytCfHAXeCWURe5NypRjkzWHG4grO6PH1sHoadMzhaaP7yD3dvxiFOGeU4Yw4RQkKnspj0YdRWfSt9GMUwkte80EhPU5fuuaRMFvx5evbsN5Po/li6OdIv3Qkhu893I69Qepj9WT0/Ohks5TG566Zj6uom3iU+ttn3hzCkVH+VwsqV3H4sWJojlrZdRSujx50Ys3MTnC9TDT0+VuQqUDd0Z9mTKzO91K5spb0kNzIjAf76wTiabWkix5OJ744mBBWbgU0N4GJGTC01ko+feCGgV95KQQsjv6umJCHHpufntf4LOKPhwopErTwnE0um8NgOIWU9qid1xzW77XBbTFgMBhHlF+J0NxFKJOR0rXCoqVqJC5EwmkMiQ8hqZ74S94JkCEL4Dsusx6z1NDnlkrXB50rE/VjcozFknpYpEJj8WmHnfVOWbiTgwiqBRoLS9CT0N2KkhwXTkdxeN7nHPRustACFzA+vcn8pVuOKoK/kbETl8ZRo6gQeeLqAHE1WcRHhjjSHApuRSg6kE2LNEAY2VwWTpcDNS6TGDwweGrgrqEEkqSfuptMXj/TSUAeRc3WrOC3MvQnh9BzTR8kvyVLfidwcI6rbxna/sSUxo1riz01N937DJUU7YPueKZ260lOhJ4eY2KS4xwokOQ8bSnzSq+Z+G2cwG/9gEJyXxxJIZHlO/R6TPLnPpWZSOW12MyodZuRSmbQF+GpQjk9DiOSEKtiHhZnNQ5j4Qki+ruGnDXgGp/uO/qzj/0fMJgo/GJAQbjRJXddKEwRHwTYrVjG+xcumSAqSbH/uLAigAQTSF8mguPIKbSkH4cZo/eE4CKs3B0HJnnxMhaKWlh+Z3dgOI1TQ0nquAvSzdtAgrYJnB4hI5/KUCiFRDCUxMlAHDHNqODSjQk1SL38t//BpEi7cyBBRj43RoziVCS4jNzxiwZJOMiNwiyFpsy6kc/QNOtdZSKKosp9LU0d+mBZxJ3gVwzdi1VTqKe+o+tqEaQLM1Qmpm+LIaPySh7r6TPYaaLIleQq/xdG91CKuFkkgrO8TaF7hP8wSH9MP5bCWB56PsWY2D7IGAUYaZQej6VxYjCB9sE42gfiOEG8TmtG/vjWiUG5iKxpNSbkWpw5+yvMXrAu8Hs4RTrBKvGb5AzoaqZtfyOK8hH7uujQEihwQC7jezw6psOJUSfDb/IvTp+pQRsC5UQECYQyWt87kd/UjxLnukcySLKRP1ZeiicaSUqL4nOamVQWJ6nf7ovwYFJvCwjjzpcOfkvFMV85SnE0hemHMvSnGaJDGydMGJ57WxcmRdFCYaTxyeFYpFuxsD/HEjGFmxZOuPGihZkYtqg8xdDdxoTddNFZx4TmA3G3iEUzLPQAYwEJtC/uWhYJpybLQstYXlzugogGoqhuxJnodUTCj+rlfsGN0xmXnsxB89PD8Tlp2yLRwXt6PSnMXrBOFHTpvYnQG9Ix/XsWEV9bWJ90N+E+QSa6FYfVpbBIPR3T1eIwQgpl0BeG8ON9Qc+c1s/ygeQwi77mt4nFkeC59JU5ShSXdYxX4/blVpZLqw+Kr5dTlE2TiZDxOL6U8eeiu/O7xNJvHLeF0L5YZImljM+bQyjMXuh6UtDDYv2ZXMbpjyZn+Gt6Vuw+5vcbhBfeTsSZ4aTpL96ppx2p24wCh88UhsZnXo/rj7mn5XqQfBIleZe64HBjx2PhiHsyBe1Y+o07Fm6Fsur+WqxCmAky/rzlWSpMP5ShryCYKT8hEk2EWAsZu8svCSj2yFkSUpoPegwFBYXfP+QgW4q+5q3oWMWe5HExZDhypTDiSGwVFBR+L2DrXoC2grJswGvHGsb2xI70leD9QjgFBYaaR19BQJoBdOX4R2Jz2dDiNmIwmkaJuwQXNLvRWukQ010mIilEqDFaUG3HCPnztH3ctAgbQ2EGYpbPo3+egNtkNuiF0Z4n48BsxoIqG0LE0TSRtLzcg9VznGgud6DGbUFoJIGsxYzFlTZ0jyTF7F7S4GciK2NhpkAO7gh07dU8+jMfxRYUz6hnLZH/mzEwmqVrnUNznQdL651oIR6Xl1AfPZyClfrrJrdJhNEm5ZFtgeqUZxz4+k/3PPpnHVt/9KJk5ouEbBD4cNMF9fj6VbUooc5h0YI6/P0n5uPyGjOC4Sy2XtiIv71lHjZUmOAt9+JLVzVhSYVFm2Vk8vSVKFHy/okO3hc3YMjAa51Xgb+8oQXzXCZkDSZs29CEb9/YjGUuI+JZE67d0oTvXN+CNrcBNU2V+NqOBlSLufx50jtpFk7MR4kSJe+/0EoOy6hLXr2yBn+1swEVJgNyZgv+YHsb7r2uCZWpLNJGCz63az6+ub0W5RZg5coG/AnPQGcd3yYomfkyVahXdxRkr853A41GbNs8B7cutOFfHj+JI7DjS9sbsLAkj/96sw97u0L48QuD8Db4cOdFfuw/2IuHO1P4wodbsbneps3xr8nUdVNBQeE9o/D+7vz5Vbjn8iq8tPskHjoSJkO+AndurkJVLonH3hnAi4cDuH9fCHMXleOTK1146MWTeDlqw703tWCug//gj9PhJkG+MlD89FZBQWF6IfhVJOJpHHWgmy9owF1rPfjZU6fwXHccK5fW4jPrymAZCuLB48N49u1+PHEqjvVrarFtjhk/f/Ykgj4/7tlRh1q7gYbsnA6L4u5sx1kb+hOVU8nMFVqJ+3iLFlfhjrU+PP1KLw4Fs7BajbBbDDDZbbj2Qr5rIP/0wpDPoieQFn8OcmB/P96ImfHpKxvQ4imYG7yaLC8lSpRMs/AipurIo6TSiz+7qgG9x/rx9ImkuBtks5tgM/O/6jpx1YpyeGmfX9PhWat6BvnfLIGXX+1Bt8OLL2+vhc8iCcw8lsY+p6/4rETJByJk5DfNK8dnL/Jjz95evEUc5ddxbA6j6H+rmsqxs80tpsgkKiOdyqB/OAtDOo2HX+6Fe045bqO4dtEb8x037UmfkhkrU4V6dUeJuJ4WuwO71lbBGUtif28ceWpQQgMRPHIgiDipycVrG3DfjU24aXUpXqPG54e7h7XpMDN46VgU1TU+XD3fCxO/sC9NhEnzUqJEyfSK6Mzpl8oYcMW6Gix0G/DG0RCS5Mb/onmqfYiM/iiyZguu39KCb1/fhB3NNjz0XBd+vD8KGs8jRUbCC8fjWL6oEltqbWJWQkqcfwIiFy0/JUqUvD8iuGaxYufqKlRkMnirO4a8gQhKfgcPDGB3fxJ5qx1/dM18fOuaRix35vHPj5/Ak6cSRHYDhiMx7B/I4eJlVVhdbiEjkVNUffFMl6nirA19hfMI1BiUV7uwosyCWDKLSDwrp7vKZnD/Uyfx928MYzRlwNx5ldjWYofNkkeCIok2hBqh0ECcBgMmrGlxw2Njo2DqiqmgoPDewG/WM0wuKzY2upDPZTAQyokOgu/pZRJJ/PC/TuD+o1FkckasJmP+wjo7DQLyNBiQRgBbBKcHYmIwsLXNLdKTVoLisoLCBwW+e1vqL8HKGgfi6QzCMeax7FNjoQi++eAJ7O5LImewYNOKKiz2myXHSZip+VQWA8EEbCU2XDjHqbUMCrMdZ23oT3y0oGTmCt+9qy2zwWU3UOOSRjwlr7HBZMHOTfW4vtmKv/vFEfz49WGkLWZsWVmHuzaWgYKTIgDZTA5Z2inzO1BmNcrXd8h9sryUKFEyzcILbd0OG2p91PHnsxiJsascBNjtdtyytQFrSlL49v3H8ejhCExOG67b1Ihbl3mQ1t7Jz2Y5HaCytgQ2YrGePoPXY/kpUaJk2kTwS2zlcaXXCr/TiFQmgyj/y7sWzuvz4I7L61E5OoK7f96B1/pS8JY68eltzbiiyc7BxKQYGX6qbjahpsoBC8dV3J3xMlWoV3eUiOspVYmOdZ2i7dxWP27fUAl7IoqnDg7jB48cw/85HEPOYMSqhWWoI6M+q0egdPh9XvFW4IT0lShR8v6J4C2tC90B36VnVx6EAxeursFHl3oRDkTw9JEhfOuhdjx8MgkTDdovXFoKb5bD8rv4FJMjioQ4bbnV058sbyVKlExNBMs0rvFG8LCYg3KFqy6px67WEuw7PoxXOgbw5Z8fw9sjWdhpgH/hXA8cWjhOgPd4y5/uCFfyUzJzZapQr+4okCIBPUNJhBM52K0WULshwDcGMmTI83u+/O92RmMOr+8PI0nW/MhwEtGM/Mt8o8kIE4UPBRMIpbMUUrRSCgoKHxSIxJFYCj3BDHHVDK9TdwdSxEd+4sbf3zJf46NpvNUxKmbXCQRTSBHHcxTfbOZ/swSCg1Ek9MgapqOzUVBQeDdIfhmMBgyEUgiM5mClgXiJnQw94i6vU2y4k/C38kzH8HAcB3oTyGZzCITSguPswTzmD+0HhmJIi1QVZjvUqztKRBsz1BfBW4EUXHYTiVG8znOicxD/tmcEFqcHH1vvx4IaD66/oBS9PSHc90Q3+vjFQIrvqymBg5qZ105EEEpJM59SPiMfJUqUTL9ohEMuGsfzJ8M88kaV20h+IOM+jz1v9+KRQzE0NJTj6uVlWNPmw7YFTrx9JID7nulFikYAbGbUVZXAmEnhycOjwrDg+Hrik+WrRImS6RXGSCCKvf1xOCwmeB3cFzM7c/j1S9147lQKF62uxeY5bmxYVI711VY8/0YPfvyWNjmGzYiqMjuSowm82BHn73MFJstLycyRqUK9uqNEdOqZZAL37+5FxFmCi1tdpBikYJkcfvrIEdz5Hx04mjaitcaG3S934JP/5xBeHcqJRsRgsGDrfBcGu4P49/1hZA3SaBCpTpaXEiVKplmYh3lYLUY8vrsHB8IGXLS8Ei5u3YmPyWgC9/78HXzlsS6MUJhatwEPPnkMn/23dhyLUXwKZrHYcNm8Eryxrw+PnUqIj/HFB/lKlCj5AIV6Xhps/3L3aQyYbdjc5oWJDD3yQjgYwZ/90358/Zl+OP12VNqzuO//P4AvP9KHQFrGL/e4sLbWjF/v7cXuwbSIx6sz81Eyk2SqMH2doO3/ThAjDXG3B3jolw+hPeqGq6aNPTRXhZkCvmKsTMGhGLpTZuxaU4ZjHcPoj5OCmAwIhVM41hfD0dMxdAylkKVhAA8Esjlg2epaXFtvwL0PnsSxCM/WoyWqMINgQDo6jMF9j6FyxQ6Y7S7NXWEmYOyGD3E4m0jjzZ44tl1Yg+zQMA4MpYmr0mgfCCRwrDeBo31xnBwmI8BIPhSXH/lfuqUFFzlG8ZX7uxHKUeciExRrhXMbY3f86BpHeg4iMdSN8mVXin9IlmB/dS1nDvLitZwTUeCqdeXoORlEV5Rf3xGXGN2DcRztJSEe947mYBKdbh4Zkxkf3z4Hpr5B3PfMIGLiScAU7uYq/F7A9tjI4Wewef1SLF2yBBa6viZ+73IKMFAjcdZ2uW7S3/ap2/DrwVrUrNpJjtJVKqVUNIVzG8WDNr6qLXMr8JElLjy+uxd7+lJkJJAfX0veiBC8GLBrUwMWlaTws5cGcIoaHN1XXvXpGYkqfAAwGBEbOIGDP/0ClnziB7D7ajQPhZkAnb8623jfW+HGxy+oQOexQTxyOIIc81ELoTOdXwew2iy4eWsjvKNh/MsrAYTTnA51KhRUD69wboMnQRBXiwZup1+/H6Gjr2DhH34X+Qy/W8mga0ocV5gZ0P+kjlHbUIaPrfJh91t9eIosf7PRRJearqdmxOtcdrgcuOOyGoyeGsRP3o4gKf7PpgCjuv4zBnztOx+8B1+766P46M03w2k2wmKZ2vVTV19BoLhLbyfj4G8f68HpKD/6Y+ueOhHekJ/Wvog5uPcc6MN3n+jDyYi8c6Q+wlVQ+OChGwWCm4KfBowMhvH3vzopBupikE7Qw/GeIDSFy2azeGp3F77/fAAhMvKlL/FZD6qgoPCBQlKPOEs7PaeG8d3HunEsmNaMdTbyZRjJd7GHXCaF/3iyE/+4d2TMyNe/llNQmLZXdzqiHrhr24S7wsyCvI76dSOjnhqUTCaLSEreByyA9mX7I1aRRFb+UcdYEPbRYxTHUzi3ob26s/8xVC5Xr+7MTBT4K1lILmSvh4mjBR+JMX9ecnmE4jy/Jrswdzm+4u5MwlifS9fwjFd3xIXWr7jCTIEch9M1o18um0OY+mJ+Q0fnsvATBzIM/5dNJJUXr+kVLjXvjB0ozBBwu8yv7lyyftm0vbpz1rH1jwT0ZUyfhG6RBir9mjGQV1C8yavtSzc5qWbxIi9tsev4EPJIXfyZB35yI64dbfOil1GYKShwT/Jv4rrgIxd9X5s0V9wpLA6jbxVmCDSDkK+YuHL6vs5jPlCYMRDc02yriZzUt3xp5fUmyWtufFRkkxUvCjMQ8nKSTP36nbWhP9mde2n4c/mUcikozCzofFXMVVCYSZB9LvXJ+s4Yg9ksVIxWUJhJEMY9b4WJPT3cPeuPcTkaL4zbP3U7ftXlQeWyy8lDfhikoKAwQ2AwIj7UhfZffB3zbvxr2DyVmoeCgsKMAfF44O1HEOnYi7nXfUP8LfJZde4KCgq/V/Q8/h18/Yu34pZbbobTZIDVyn9JevaYkqHP9jxv/vyrf4H7H30KRptHGP96gupOgoLCuQdmaDEz+SiXSSMdOg2LrxZGk0UxV0FhhkD2t7w2IhMPIZeKwuKtpc5dmyRhGh79KygovJ+YwNFEEH9+9924eteHxKw7/B8pU8EU7+jzPy3nMRqLYzQaQyybR4rc+V9VFRQUzl2MM/SJr2wSMG9zxGGj0SA+AOIX+5jKHPYsmwkFBYUPBPxPxjxfEs+kxMc8vzq56q/TTrAjFBQUzh0U3xTn6RDMBiMcNgc8JTa4rKbfs6EvGhYgmc4hlsghmckiTdYCGwyy2Kp1UVA4F1FMeuZxNp8DT9KRpZXZxF/5m0QgncH8h0sKCgrnJnKiLyYhDosenblLtoH8h2PFXwWFmQK+hW4ivtqsRpSQgV9iM8Hy+/rDLD0arzNk2acyOWSz/G+phVd3FBQUzn0wlXnAnuev+ehAzMDD/5pKbtI8UIxWUDjXoRv4zGWGYLD4oo85rQx9BYWZAGasiUbpJqKszcJGPj9l/z0Z+oxiY18YCuKOIB2pNkVBYcZBn3abV/z6juS33jwoUisonLvgJ+zE0hzxlqnKwsdinzms+KugMCNApCXDXDDWzI/jCNwfTwVTMvQVFBQUFBQUFBQUFM5NTO15gIKCgoKCgoKCgoLCOQll6CsoKCgoKCgoKCich1CGvoKCgoKCgoKCgsJ5CGXoKygoKCgoKCgoKJyHUIa+goKCgoKCgoKCwnkIZegrKCgoKCgoKCgonIdQhr6CgoKCgoKCgoLCeQhl6CsoKCgoKCgoKCich1CGvoKCgoKCgoKCgsJ5CGXoKygoKCgoKCgoKJyHUIa+goKCgoKCgoKCwnkIZegrKCgoKCgoKCgonHcA/i+hROqc4VBYogAAAABJRU5ErkJggg==;" vertex="1" parent="1">
          <mxGeometry x="289" y="996.85" width="762" height="66" as="geometry" />
        </mxCell>
        <mxCell id="zRWtBp2NT59PFULqCnVe-17" value="" style="shape=curlyBracket;whiteSpace=wrap;html=1;rounded=1;flipH=1;labelPosition=right;verticalLabelPosition=middle;align=left;verticalAlign=middle;" vertex="1" parent="1">
          <mxGeometry x="1080" y="930" width="20" height="125" as="geometry" />
        </mxCell>
        <mxCell id="zRWtBp2NT59PFULqCnVe-18" value="可选包头" style="text;html=1;align=center;verticalAlign=middle;resizable=0;points=[];autosize=1;strokeColor=none;fillColor=none;" vertex="1" parent="1">
          <mxGeometry x="1120" y="977.5" width="70" height="30" as="geometry" />
        </mxCell>
        <mxCell id="zRWtBp2NT59PFULqCnVe-19" value="ALP" style="rounded=1;whiteSpace=wrap;html=1;" vertex="1" parent="1">
          <mxGeometry x="30" y="210" width="120" height="60" as="geometry" />
        </mxCell>
        <mxCell id="zRWtBp2NT59PFULqCnVe-21" value="" style="shape=curlyBracket;whiteSpace=wrap;html=1;rounded=1;labelPosition=left;verticalLabelPosition=middle;align=right;verticalAlign=middle;" vertex="1" parent="1">
          <mxGeometry x="160" y="190" width="20" height="120" as="geometry" />
        </mxCell>
        <mxCell id="zRWtBp2NT59PFULqCnVe-22" value="信令数据包" style="rounded=1;whiteSpace=wrap;html=1;fillColor=#f8cecc;strokeColor=#b85450;" vertex="1" parent="1">
          <mxGeometry x="210" y="170" width="120" height="60" as="geometry" />
        </mxCell>
        <mxCell id="zRWtBp2NT59PFULqCnVe-23" value="通用数据包" style="rounded=1;whiteSpace=wrap;html=1;fillColor=#f8cecc;strokeColor=#b85450;" vertex="1" parent="1">
          <mxGeometry x="210" y="260" width="120" height="60" as="geometry" />
        </mxCell>
        <mxCell id="zRWtBp2NT59PFULqCnVe-24" value="ALP包头" style="rounded=1;whiteSpace=wrap;html=1;fillColor=#f8cecc;strokeColor=#b85450;" vertex="1" parent="1">
          <mxGeometry x="380" y="180" width="120" height="60" as="geometry" />
        </mxCell>
        <mxCell id="zRWtBp2NT59PFULqCnVe-25" value="基本包头" style="rounded=1;whiteSpace=wrap;html=1;fillColor=#f8cecc;strokeColor=#b85450;" vertex="1" parent="1">
          <mxGeometry x="580" y="180" width="120" height="60" as="geometry" />
        </mxCell>
        <mxCell id="zRWtBp2NT59PFULqCnVe-26" value="附加包头" style="rounded=1;whiteSpace=wrap;html=1;fillColor=#dae8fc;strokeColor=#6c8ebf;dashed=1;" vertex="1" parent="1">
          <mxGeometry x="700" y="180" width="120" height="60" as="geometry" />
        </mxCell>
        <mxCell id="zRWtBp2NT59PFULqCnVe-27" value="信令信息附加包" style="rounded=1;whiteSpace=wrap;html=1;fillColor=#dae8fc;strokeColor=#6c8ebf;dashed=1;" vertex="1" parent="1">
          <mxGeometry x="820" y="180" width="120" height="60" as="geometry" />
        </mxCell>
        <mxCell id="zRWtBp2NT59PFULqCnVe-28" value="" style="shape=singleArrow;whiteSpace=wrap;html=1;" vertex="1" parent="1">
          <mxGeometry x="510" y="195" width="60" height="30" as="geometry" />
        </mxCell>
        <mxCell id="zRWtBp2NT59PFULqCnVe-29" value="ALP包头（通用）" style="rounded=1;whiteSpace=wrap;html=1;" vertex="1" parent="1">
          <mxGeometry x="50" y="1130" width="120" height="60" as="geometry" />
        </mxCell>
        <mxCell id="zRWtBp2NT59PFULqCnVe-30" value="" style="shape=curlyBracket;whiteSpace=wrap;html=1;rounded=1;labelPosition=left;verticalLabelPosition=middle;align=right;verticalAlign=middle;" vertex="1" parent="1">
          <mxGeometry x="190" y="1110" width="20" height="120" as="geometry" />
        </mxCell>
        <mxCell id="zRWtBp2NT59PFULqCnVe-32" value="基本包头(通用数据包)" style="rounded=1;whiteSpace=wrap;html=1;" vertex="1" parent="1">
          <mxGeometry x="260" y="1110" width="120" height="60" as="geometry" />
        </mxCell>
        <mxCell id="zRWtBp2NT59PFULqCnVe-34" value="附加包头(通用数据包)" style="rounded=1;whiteSpace=wrap;html=1;" vertex="1" parent="1">
          <mxGeometry x="380" y="1109" width="120" height="60" as="geometry" />
        </mxCell>
        <mxCell id="zRWtBp2NT59PFULqCnVe-36" value="" style="shape=image;verticalLabelPosition=bottom;labelBackgroundColor=default;verticalAlign=top;aspect=fixed;imageAspect=0;image=data:image/png,iVBORw0KGgoAAAANSUhEUgAAAvUAAAA+CAYAAACr8uTTAAAAAXNSR0IArs4c6QAAAARnQU1BAACxjwv8YQUAAAAJcEhZcwAADsMAAA7DAcdvqGQAAE/uSURBVHhe7b0HoF1VlTf+u7293ntL8tIDJEAINfQA0gUFBGTs4qCOMnZFx1HnG6f8R8fxr5/j2NCxixVFUEBBIEAS0ttLXl7v5ZZ36/dbe5/z3n0vN5DAS3wv7N+965Td91prr732Oeee68gQMDAwMDAwMDAwMDCYt3BaewMDAwMDAwMDAwODeQrj1BsYGBgYGBgYGBjMcxin3sDAwMDAwMDAwGCewzj1BgYGBgYGBgYGBvMcxqk3MDAwMDAwMDAwmOfI/fYbCXHoQznO8ONw2AEGcxkiK1CkDq7XMpbIjOQMDE4EOPomraltM83om3/QQsyeGc38d2JhuyWG7/MTIj8RnYjRyHAKM93t48GbnFfqxTG0K1dOosG8gcP66OO0HlUGBgbHHVNDTQ5kDJrJbD5C5GjLUiZdoVzXvgyOHyb5zmPD+fkJubRIIVpnBtkQthwv1uS8Ui9BtiEbGxtDfCJmpqd5BFugtlGkkHWAgYHBccXUSNMWU49Ag/mAaZKSGZcBRn5/HdhcV/ecZSipACOL+YIpSck44hl32iK+uiF8cTicKCwqgsvlUmHip80mjujUCwYGBvC+D3wMB3rH4HBOXdQ3wpnLmHoEIB2P8DgFl79AB1gw8jMwOF7Q4y+TSiARHoSvsNIKz4YZgXMR6q40vzLHJiMjnPPoUB5mO43sTghkDqPLER04AH9hLeBy6/AsGEnMXchYSidiSMZG4cuvYIiR1iTi47j3PW/Fhssu44m+IzWbOOI/ykrw9u3bcdkb3ofA6tvhcPusGCOeOQ3KTQs0jcihTUjG4yhYuE6F2zDyMzA4DrDGXiaTRnK0G73P/Ah1F91N54TeiT381OAzI3AuQk+Fcpfahf5Nv4I3kI/81nN1pAUjuRMDkYXbF8TO+9+Dxg33wp1XYsUQ1lw2286QwSyCNjDSux8jux5B1blvUkFGXhoju5/Am84twKc+8VFlT5xZF8xnA0d06tMM3kGn/oo3fRwF594Np8tjxRjMD2Qwtu8vSE7EULzsQnU+6VgYGBgcF9hL6sRQBzoe+x80v+ZDtNr6Nquy4GYMznmI89H9lx/BFypE0fKLtcyMP3KCkYHHX4BN//UGLHrtP8BTUM4gM3jmE8LduzD4/AOo3/B+K8QADicGdvwRt61I4h/o1LscGbhcs+vUv2hpMoRyjiMxcIbmJllQYlPCy4qw4+0gQ4YMzR6pnf4o2LYzK37y2NDcIwpMrnEpscmD3PaVRWt3WHpDx4+4UW9vI+lhxG12vKG5TQqTBxoz07waSfSYNiaRTpNSSNtzxCziiE692LPJdmTjsACDOYWZQlPHx0FzDAwMjgx7HGaPRYM5DmtJJt6kMplpFapg5HhiMclvp3lsY97Ceq2l8T9yIkXmHA/OHPlKvV2bjKdskvBZIW4myQoTG2ofzybJcsiu63jVMZeImGYHs48FufLMSeJmZtjJKL850yducvH8ZRM3h1GudCcJ2bDHG8Oky/bx5H4acaPsk3U+qQvZYXKcdT5bdCS9ezXYyFwkULLLCpiUJc/tYJGHIvvcjheywmaFuJksc+Z+Fknaf5jMuckZPtvEzTTKiuPmSA6hemp4ZnpFRxt2rMTNS5Vz3Hk1S3TEdnIzK7wiKcxwWmemeUniRvbZ9lHRzPO/Eik+8uBY2qNAo2Kfz/TNZgEv8vjNEWqT4JdDCvr2pg2bF/o4Qx6pN5vKmaaZZRwLZcH+EyZdX1alM/McK2XDPp+Z5q9BCnYnZyBX+rlIhJJXRrRCH09CHWuDb38UcpVzLESo0uzK7HqyK8+V72gpC7rV1odxWWe5854Akl5aXVYb1RZ1TORIfySa7IcFLUdNU7E8yZH3pCAbPD7sKmN2OpKwRMnf5pEK0Xv7+DDMKOOYKavYaXVI/fappLP3c4FUO2UWlTay1VnNnkSufK+IZKMPJ2FVbF/MVzJzWO2RYztexRKTZR0lZUEVqYqZkpIO02cvu46ZREhZurypI12b1MdNrnyvgKbVYk/QNshPSaGSzojKhrTLLkeVpb8W8cMEVowOFFj1HzVZUGVyo+vU0GEsX6sl0/MgVxlzjSxMtt/uUVbfcuY7VmJp6lCEmB2eiwjdDr3iUJ+pZk1Cx1hpc5VzPCkLagxKGHfZ7VOYmW8aySZrfxyQ06lXgj4upIWRTKWRSKbVAkw2dnyax/IDXZ1uFtohzy2xLimXp2rPU9WGnOlfBklD9Z7ns1iuIdEADXnPfoqCE71JiZMv8RLBTSo1i7znJ02dSVl6KBXwVJ3nTH+sZLeRH/kKqfnLPrdwWL4TRDZ4Nnmujq3zoyUbcihnsk+KnKxj25zlyvtqI80Ie0N9S0HZrBT3TKDtIQ+Ff7ZO5irnmMgqIyn2kOXKsSi6jC1lK5WTqlJN5flrk2KHQx3b41OHW/sTQfKh8ko70uRbijxTMrGcOjmesh1KUoeX8VJkf3hsFcK50ipXwrPskY7Wx6+ItBFSfUpIv0hSr4SqOFsfZpFs6CMJUwdWvOzt49w0CR7KmJE2iz6LX63i+dV8spJJH1Q9x0hWHilPIPOQkA6jTFhHSkuGp1o/5zxZ8kzSB5O+2GMpST5yR2SlPVHEj8wLot+2Dor8lC20dZ4f+SqSXa5yjifZHx5LI5RPIvJXeiZt0/tjpdmG6z7COp6EvrrkQH9/P77zwB/gbzwTTqdLhb8sko8uEsUFIVx6WgVOrc9HvjMFh9+HTHQC+dUluGZlIbo7IohKWkk+s5xjIGoqiisLcM2pZShzptExmsDCheU4u86Lzr4YEkySK9+xkGqj9ZHfVYl85N3GudKeeALiQx1qYROoaBbW50gzh0l4qVjsREEoiEvXlOO0hnwUuTnIfV44onEEyotw/alF6O+MIEyDmrOcY6CUw4XzVlZiXVMIo4MRjNLINTeX4oLmALq7I5hw6Oc7Xy4JZMczJQ8XdUUWDSpeFEjFT6U/kTQTTglTMmC8fLLSHhVZecRkNZGHFzb70d4VRdLpZJgwISvtSUjp2BjGDm5C8eLz1X98MDRnOvnwQPHc6/HiglMrcHpTPhrznRhzelCYSiLm8+M1p1fANRxDXzxNWzyjjGMkEawzGMDVp5VjWbkHPQMxxKj7py2vxPJCFw7xPCNtzpH3r0Y2/9xunHtKJepoBzpp0xk4Pd0sUbhzO9xeP21niyUjJSLlNOaHArh0Ne0R5zCxR2mfB84Y7VFZIa5cUYSxvihth3WV8lhlpWtT9YkNDJTk4aY1ZajxA4eG4qhroj1qDKCHc1hMxufLqWMGySB1eclX2r7zFhRiUZET+/pjSEu8DGBpy4w8r5iyPlYv9J9MSV2yYxqXx4eejT9F6bKL4PIFp+UXyNbj9uDC1ZU4vbEADXkZDLu8KEjEMUH9vmZ1GTIjUQxyzDCTzpNVxlGR3SDCG/LjqtUVWFziQTf5k+AYWbOiEks5Vg8NxtWCb+7M/0cm6VBxaT6upl6trAkhPsq5zu3H1WeUwzlLNkYoMT6IWM8uFC46J2f8NKKeiYNbU1+Cq1aWYiXn+uUcX8vqC3FqYx7KXCl0jCS1TiqRZOU9UWR9FFwe2qEqnLuwALXeFPYPJxVfc+abRk5E+w9gRUUaF64/Hx7yWfyA2cSLvv1m9sAVCbeB4nzce+NCNLgS2Lx/hI58Of72gkoEuTwL5vuxhs5UUE/5ytDYK5nJqzI5SCXNSmuTMNDt9uL1lzbhhiX5kL+uKC8LYUVNAF7JNiO9Tbrew8tTcTNAEanEgfwQXre6AHG10j0835GIm8PCdDgLt+lVCt19B3wFAdxzwwK0+lPYtG8Y7rIS/N3F1cjPpOALebGmOQ8hypqMO4yPRyIpPGd4Mo0lS8vxrovr0BKk88mg0uIgVtUG4eVglIy58r0YcaP6IxB94fTChVaGE0SQOlOo08lHrfZztyubpO02zQxXexVpwQ7LSndksrJwv7K1HKurPRAzNTNdrrpzkRqz/IixLhYe1oXgUXlVZkWSzt7nIruuSToJwZ5yQ6Jzct2GhbimyY2t1PMehx/v3tCIhdRDh8eNlY2FKPfrRVIuXuUiK7GiaeGiiRTu+rPr8c5zq1DqYRKOofrKPLRWeOFUWabn0aQanCNck64vm7LjZ55PJ24OCzuM5MMJcEEdFz2FbjV5SZjaZqWToKnz7GN9bmXRdIxwcty+67UL0RpI43nOYV7ao3suqkaJC/AFfVjVlAc2bRLT685N3Ew7pymYbJsbLtx0eQtuPaUQXp7LWFpeGwBVgVLUibLz8qvyTg+bIm6svU4n5zJXnnNOEz58RQ11zIV1LQV0lq2rzlKBQGWdXtaxkBQwLUx9dJlsANYuL8eiQlu/pcKjABd4N121EBsa3Ni8dwjdrhA+fE0T6mhonB4PTmkuQLmPwrDL496u/0g+BTfTztVdF37FJ3HSa19/dh3edk45F3PCNycaqvLRWubV9luqmJFfQRU7PVzFqQw6yWHIkT4X2WXkCs8VxgN1HA3HEKoqwd9f1YRVReQ7ebmiKZ/y1y7hzLw2HSnuiP04SsiCSGzQ8MA4/FVFeN+GetRnYtjSNoaWxZX49C2teM3iPHWx1q5uWt3WsSZ9Pj3s6IibrHM5zYrTTOWeu2QKPeMJ+pctuG1lgbrDwFQq7q+NnFfqbfT39+E7DzwCX+OZXIFa71p+uSAzKkoLcNt5laj0ObC/fRTP7h9Gb8qBoYEoUqkUNu4dw9BEEimXG7UlAZTme1AcdKMo5IGTTCsq8KIs6IKfA7WMcR66SJG4ZmQo5ENdsQ9FQQ/yOY7DEymu7n24kqvP8UND+H1bFBPjUWw5FMFwIoWC/ACqCz0Iup0s14dCevrjEXrlVC4XFbyuxI+yPK8qT9og96ZicvVFHEgLIsRgKIT3XLcAZxel8UxXAiVsVwnbG6RRTGZc7IcPLvbd5/eimu0PeV0oZX0FnEhHY0oTlJ6UFvnZHq9q+2hM2mGbbHX4MpBBfLAD6XQKgfImK2z+QHWZDCgpysPt51ejNuBE26FRPMeJtCPpwEg/dSadxsY9oxigziRdTtQUa5mJvIpFZ1hEIc/Leez3uVBG/vsZFpYrN0SQk3BdMdMzPs/jQDiSxOIl5VhT7sbDG7txME4ZRCew6cA4hrhiEx2rKaIMKduiAj+KOLOOUWdETg7qUV1xgPV7qK9ulAS9cKSSiCZlaSK9YSpr5wsG8bdXL8DF5Rk81ZVEEfPoNlDNLJ3hNAG3z4uaQh91xkm9Yn0cN0o3rNu8RdSXasaLLo1Rl0Qf5c0dtt5kozBf2u6nnjNtlH3J86OuiHkDLuT7PRxPbC8tU3N9BT52VS0ig+PYP5QAWat0s0p0kyZA6k9zMqstZV/pcKqxSL56mDdKuVRz3JST53mc9MY5BmXiRSSK5w6EMZJIIyV5KwI6DXkeYVscbhfqWF6xz4lAQNriJu843sg7MfYCxUPreD4gFRvF2IHnUbz4PLZ7shNHhFylv2l9DVbSw+7tDWNb+wg2DSWRGY1ihOq6+8AwDo1RHmRpGW1jldgs8kr0xu/KwENdqaIiiD0rFvtCOY+Tt6LpHi4K6kr9KBHd5DiYiHG8kLFnr6lEbSaOXz7Xj1HKZZwy39oVQ4L2t67ES71yIpjn4/hxIkq5y21wuRJZTj2vZF2i42Kb/Vy5jVO2dgdFA0UHXSyzrjyg7GERnUUZdxXMWxqg3KmvZdSVCuql35GirmRok6mjLNfDtpXSloN2Os55p6k0yLZ74aUti2ec6O0ZxZ7+CYSpH1Kll/pTW8Z62D+/mhPS5IcHDSy/gDqm++BCTPotfVCtJEQuOWQiujZuXan3l8uV+inkFwRw5/pq1HHctB0awybOYe0J8noohngyqZyQHtqEJPlUw3bLPFXMOUT45OIYyWcfy6WdXjfnAS98DraXfRcEyE+Zd4Rf+V7almgSTsriqnMrkewexq93h5GMxrD5YBiDVIQQ+1XDcRlQMqcsOH5smSt7JHMY6yuy7SH5J/ZI91D3Ss4CAT9uOr8Gp9Kp/sFv9+KLTw/C5fWivkzrjJOCj1C+eSEvamn/5B9rSmh3XHSwXF6PsqEh1qf4nOdGnG0oKwuinHO10jVpEOFln+tkXmeZBWxrnH1IUr5nLavBRy6vxL4Do+gKJyGqJO1zckz0PPOTySv1MyFj5ub1dVhe7EFP9xjHDOeHUWYeiiDC7m1v41wxFodMs16/+BQ+8lbPD4WUSQHtnvQvSD23x4zYxjTr9tKu2W0V3Y3JHEPbfO7pFahIxThmBjDu9GBsYAxbuyNIyRhj+XnkQx5taRnriEYTWt+oC5XU+wqGF7M80Qc/V87hCYsx2RM8BaL8igB5zTFQHHSw7gzttxeV1KUA21rChqr5Smy+5KUcimmjawr9KKZeTrCtCZajymCbiqn7TjZE7CnYvhrxk8j/osoCXFDnxx82duJgBNhzYATt5FfC4UIDZS+2QnRS9DVN/0dsj6CQc1Et545i8lL8owI1L8n8I7DmO34T4wOI9exEwcKzVcxLQboyEUugoqEMF9X78chT7Xi4LcyFcyGubM3Dwd2DeJr2SWpQNo1tLGX9yXgSE1z8NnAOKaWdCNCehGPaBvlF7mL7yJcE0wWC9LNoY1wso5Rjx0n/s4LjRPmZXNCE6U9WUe7FnNvD1AWlN1b+OPkqIitgv8XXlD85PntVBcfmIH62K6z6rPthHeQC46J9B7C8Io3168+nOGb/Sn1Op95epfT19eHbP6NT33AG2/JKL+pT8OEJ9EdduJQD48azqnFucwB7d/Zi45ADd9y4FJ+/phbP/qUbZ162CPeeXcpJxIm7b1iMDdVcidMZv+qyxfjMFXUopcG78sIFuKTCgd9tH4aTgnr3LUtxZbkLzTQQ71tfhi1bBjDo9OI1Z5ZjjE79H7tS+MgbV+Itp+bhT88PoOXURvz/ty3EmmIXqpfU4gPnFeP3z3RjJOPBLdctxrvPKEba6ca7r2/FheUOPNc2ip6oVlsbchWyeUkV3nx2OdzxOHrDGaw7qx6furYFxZERPDfgxpsuqcJodxiVS2vxhVsXYXUpDUZJCT5yVQ3a24ewbzCBusYK/NutLchngdecU4/U0Cj2yu0cqe5lyzuDicFDSNM58otTLwKdZ5AWhyNxdI0DF3FxduOZ1bhgQYiDuw9/6c/g5muW4os31WPrMz1Yfn4LPri+gt6UE2++bhGubvJhOye/8y9sxeevrkMVHYn15zTj2no3HnxhABku+N75+mW4oc6D2oVVuPfiSux4YRAFzSU4vcyNR1jmobQfH7p9Od59ViGefL4PFUvr8NXbW3FOBSfJ5mp89KIKPE6DOJBy4carWvH+c0opLhfedm0rNrDcLZzwu2bojKC+tQxvPbcC/kQCPeE0Tl9Ti09d14LaRBhP9zhw58XViPVHUNhcif+8oxVnc5GRyS/Ex66pQW/XKHb2x1FZV4F/vWUhKug8b6DO+cfHsHOATqAo5TSlcaC2phyfvWUBmnwZXLq2HoHIOLoRwoduWox7LqjgRONDEw3/IBc1p59eh8sbfegfjaGtL4YiyXtjI0q4kHntObUIDwxjz2AKb75pFT5zeQ0KWP9rLlqES0o5KSQC+NjVNQi4PLioJYin9o0i4fHj7+9cgXefWYzHnunFEo67z15ZgeGUG2+7pBGOgRHsibnxkdtW4N7zyxGgc/rmKxaixRHBo20Rzle2pdS7+YJUdBSjdOqLWi2n/nA1mIYkJ819vQmctbIM155RjetXFSPRP4rfHYhgycoGfOPNi+E8NIAJyv2zNzcjL5LAFZcsxDvI124uAPIW1OCL1IfTaQPrac/es64ET27uxgAdzssuWYy/P6eI1j6ET7y2CROdw9hCXTmf46kuHcev6NQnCorw+besxIZKF7YMZ/Avf7MStyzPQzo/H5+6oRl9e3qxmXnOOrMOn7q+EUE6a9dc3oq3n16EjvZh7BiKT/VRustjj9x9uKwF/3xjC5a6InhwTxhXXsDjQAIF5WX4KG2gn07hbWvL0dY5hsrWGvznLYuwnJPueWdWIt0zhoIldfjQ2kLOpHlYV5DEjnQIX33nCqx0x/Hw7lGkOY7vuHwh7loVYpp8vPXsSnS0DWI8rxBfYn/uXJWHaCCEf3xtM4bb+rFlUO4/WXgRnRrv2KYe//CXN6t+KRdBJmTyvXPUgcvW0B6dVYX1tEeH9g3QHqVw3eWLOYfV49D2fjSubcQnLqvGxHgK73jtUty4wE97MIZzaY/++ao6VNIenX92k7JHj2wbUv14y/VLcVOLDxV1ZfjQ5dXYvbUfh5IuXHtOJVI9I/jlngn83e0rcc+aIjy1pQ+VS+rxn7RH51XT8aKt+MhF5Xhuaw86Ik5cs2EBPnxhJR1L4F03LcVr6j3YvG8YnbQ3ttOloBZQebjitFI05Dmx/+AItoy68P4bluA1tZyr6irxllPysWXPEIpaqvHlNy7BWjpTZ55ajrJkDL0+8vnOJbhmcQgJZwAfv3UBVhV6UFpegI/d2IxM3zCe7YlzccJ+XLYA7zqrGHnBfLzv2kagawS7Yy5cfWE9baoHXVwYtfdHMUQnVlTJ6faim059ydIL4fQGdHuzIGNmf08S69iW69ZW4dqVRYh1DOHBgzGcdkYTvvbGRUhzzGwZc+Idr1uC1y8MIlBUgA9TH1f6uRCuLsFnr2/BKUVuNKzgmKGePbyxlz6AE9dvWEIfoIBOYAHupUxjnSPYPpTCBWdUoDI1gV8+OyBXGfGFd67EJSVObBx24otvXoWbFgeQLCrC565vwKFdvRwXaZyzrgEfo8xDSQfHwwLcdWoBDuwbwq4R6uJMHWTH/fkF+ORttPulTiylP7M0L4lQYzX+v5sWYAX9ldZVdXj7mgL8aUs/hhMOLF5UgU9fV89Fjgv3vKYZ7oEhbI348NGbl+B8TonlnKtuXZKPF7hoaj2lEZ+hXsoFsRULSrGwwKmcemdTPb751iXwdPTjmXEvPnPXKtxzVgkXU1787dUtKI+N44mDUTQ2l+Hjr2/FYncKy1fX4+MbapCkbj5JZ1tNPQKrT/GxAUS7j96pF2RSGbQsKsfFzUGEAh6sbCnDiuAEvvVoJ36+bQRROuFuvx9vv3IB3rAiCG9lGe5a5MFOVxH+4fIyLlp8uLDWjcf3h+EO5eH91y/CVfQFqpsrsL6Ki/WiEtrJRVhBG3MudcbdF8Wysxrx+RtasMARVRd/rzq/CYt9cewZdeO91y/kfEgnvqUSF1bSDxx342OvXYx1xRk4iwtwdmMeRjoH8cBOOimHCTMXHIj0tWF5eQrrLzgPnFbp2L9S33o6cpYmK41ZJdVZBwq5EtryQjtu+NxGfPp3HRgLFuEjNy/GucVcQIQTTJtBikK5fFkJIsNjuP/PPRwUKUTHJrCbDsaB0SRS8QR+t6kXe0bSaOEKSq5ixiMT+OxXNuITT4zAxaryaaQWl8i1TtUZVX+Kq7TBBA0a4+UhiPahCUxw5bplZw8e74ijIBBAHQXt8Ppx2bJCjA6OsP5u7Brmqo/17+Ne5bX7RJLydx4YxjCNUG/XEH7wbA/+43934CdtEzhzuTx758KvHj2EP3dEMEAnKUqFfWF7L+5/vBPtzhBuXlkKrhVx9SX14IKZK0mnUtg7zqxAnsuqSz5Zdb6qiJ98rpD37unETZ+hfB88hD5vHj5AA31JpZOLKDoSTJOiE3kxdSYVDuO7f+5SDkt8PI5dvVG0D8eRSSbx8PPUpeE0GqkzBT4XkhNx/Mt/b8QHHqFxpiSDBUEsq/BO1i1XQDJcqPXLM1WsQ7yUDuoMF+/YursXvz84QaPjQ3Mxl+uc/C9ZXoSJkVGlM1uHuKIfn6Dzm1R9sKHLlisio6A6o7+HOsPFw5d+uAP37w5j1dIyLC534uEnOujQjiudGadTtm13P773eDt2p0J4/apS+NIZXHlRLVoKgOiEE046BLedVQmqPDH1LLSq0+nARedUYVmxXNlxIM6J8s1nVyPa1YcPfG8v9kTdOKMsg2/+qRObqacbO6JIJVJ4ensfttF5v/qCatRyAozFWV5eAG9ZWwFfJoG97CMVlg5hL/aPp9FQ7oMvGUcqP4hTylz4xbP9GJd1KcfrwATHDsec3x/E315Xh+62AXzvwQ7s5IR0x4Y6FLOc/XQ2IqMR/GxTHxfPwNIKv3reUHWDJHy0+3VSkdUvD+1YcnwUd/3LRrz7p/vx2KADb3pNK+4+rQCjo1FMkAcUO9YsLEE9HdqfPdGJP3KSlWf+dvZGcHBY7Fkaz+/ow+OHJpAvdy7pXFEB8OvfbMOt/70HUc4g8vz3qoag/s2ETZwF4pEYRlPi8KUxTHvXT5vWR5v2w62jSGXcWFHjQyLjwlmLS1GJOH76RBfriSEzQUebE6NyFaU/QnQUWSriyQS+8dM9+FXnBKor8pGf78fw3k5883lx7msQZIdS1IH8ymLcvqwA/eyDXM1/Zms73v6lzfjZfvZ7OIaSRSVoSEbw/U2jiHLMj8nVT+32YVFjKW49qwjPUg9/8Eg34qV5uJOL+/hIGD0cY4OdQ/j+C6NIsg/LK32qXbKRbqtDu81HQ0wvd7b27+vCDf+0EffRHvV4Q7iXk/yGGg/6OFjlvp08ynDhkhJ4uHi+/9EubOY4Sodj2NEbxt7BBNKJJB6hU75jMK3uLhb6HUjEEvjCt57H+x/sQVoe5aE9WlXtnuIr63aS171RuTord+QyXFzE1JXF7VxwPXwgxvHlR5PMex4PLqE9TI6N4juPdXIc0x5Sprs4ZlVJLE8xQZVNOfeNYyvbleBYfWrvGFauqMJ1qwL41WPd+OGjPVxsleN1p5Wgn063XOnftacb7/3KZnz1mWF0DOtn1g+1D+CHGwcRpYOSHg/jR5uHEYMHjYVqIkOauvWjn+/Cm77dhgGKzsHF3PKGEO1kBFsoqBTt8SObaUtG9aLjMN7PJLbeS32Oj4/gzn96Bn/3kzY8MezCW69fgrefEsLQSBw0nQrBwjxc1BRCG+3O/U/1guqKkcExOqkx9cIOGTNPdiRQHAygpsAFZ4ZtfeAFvPE7bRh1ZuAO+rCyNgD540+pWyqXXSKawJBVyfBYDEOURQ8XET/eMY6M04tW2rCM3IlYXIziTBw/+fMhPNbOvlLWO/vpBKte6DJtkt9Ynb6aDmijD6ORjLo7cM1plShIJxATu7ytB091sa0c31X59Bc8btx+ZTN8Q+P41oP7ce3nnsHXX4jh3DU1uLTVhV8/3s16+1C7vBQ3r6nG7WeVYbh/BN/jWPkDHV91XZ06MDoyQX7pURWPTeBQJI3wUBg/3jzAfjmwtDJAm+HEwvoSrCjK4OFnuvCT7ewn9XBn17jSU/WjCPWd6s9Rk/XRX35SKfxxYzfC9MsuXFqBMvZfeC3ta2gswpWri8jzNNy0IaesbcB6fwzuikIsC6bxw2eG1KPQK5aW4OKlIYyxL7J4Pf/UWjQ5ExiZSGOj2JgvbsYP947gv3+yG7/tjaO2MoQCzl89Ozvwf58cxMJlZVjfyvzjcpHbgXNOq8P7OB+eXuPAAxzXP36qBwNcZOh2kwTqkCHHQLON2V0iHAEiCGl6UVkh7r22Ac3+NL77q7247+cH0cvVqzBMblOpOwTxCP7PL9vQEfPjnZfXk8HteM9P2zEuv4aWgphG/SJa0lKgSY4Cf2E+vvietbhnsQtPd8aoYFzFp2leWa6UqZ6LY2apQ36pLLeRZS9l6Tfx6GP1S/CJMOtvR088gLsvrUHb1oN4/y86IXoxE9IndftLnTjVLel0KoFv/voA4iUluGt1EG29nPiYRNoiKf1cTctAl8dsRujsJBgeZ8PEQG3Z0YX3ffU5fOqxAXXLULr7qgXlI8Ymn6vh917DlXM+8IPf7MMnfnoAXTQyIlORozJDiRj+9ddtXOi58bYNDQgf6MQ9PzqAAcpV+Ct6IsY7xQGojkmeYAj/ds+Z+OCpQTzdMaF1JimPGGidkR8YS9H6l+1sDk9tnUmzLNElOY5TrzLxKP6FOnsg4sPbLqvDwO5OvOcn7eqxCcaq7ijo7AqiNvJIW5k8D0Nd/d6DBzGWV4S3n1mIti7qsDi0TCw6E/LQ4XO4uRihztBaJTlsYwn2gWl27OnBB7/2HD78UK9yolUlsrUqEr2bYLtF+/bs78XH//tZvPd3fcoZyPem8MTuMfirSvHm04s5mbG1oqvSNq8PpSGXWviKkdi0jRP5l6mbjw9pXslg5Fd0V3gh9Y2MhfGJL23CA/0ufPB1C7GMDpA0Q41V7icSCXTTsfC7XYhzsvTTAYiMxfXYphEWnkt5ciNXvf1Ad+GkhuiHvLbVRUfsziuacBEn80cfP4hPfnc3/kJnUBw4xRuVOI1vP3wAD+5J4KbLm7HYMYa7v7lDOY0yXuRNHPJGC3kjgzBcxkeGTsEdN6/C/bc2YdPuEToJosvksZVexpG6G8Jw4bceV/qNE2kmjnNMCOT2u8eRwv/8vg1/OJDG6y9vQWN8CO/45k4ulmUcZkGcTuswnY7jiw8chL+uHJ+5shKb2kbUmJxgHc5MEo8/ewhv/c/n8JUtdLzVeJFxJvZbRjadpP5h3HbfRgzWVuHTNzaiSPFC64d8xiJ08qMZ+Nwc1/S65PG6EXlMiS1QLWdZstgR/ZNHEW07LC22j44FPjqI77umAUvygO/THn3yZ+3okGsLwj/Fb+7jE/iP37TRUXbjXTe0IHHwEO66fz+G6ZQIz0XeiQTlxMTSS8nnpzPx6XesxsfPzMPGNjpb0l7yn0mVXJQ8eKJkpMIoN0svJJ28MURO5A02jmSM9ugA9o55cc91TRjecwhv/8EB9cP/XLDf4iHskHYN0sGTR+nksa6kywUvyxwYp9MnbWd6saHSHmmktEURy47TJkm7k1TYBPVF0oqtlKLlqvvbb1mO/7quGm3to5S/OPpWOWJhWLfH50ZpUNWgPi8Fl9ePN13VhAsavXjo0YP4+Hd3YfO4tEfKtdsC9PcO4t//0A13cTHeuq4UDz66G594pB8TrF+n4YJG+EdlUXrl8OKdt5+Gr7CtO9vGVDrxM5QsJJX0V8aMdS52S9krOWaHxIapHvDYydBvPNSOP3ekcQvHbE10GO/69i7si+he5kKMjRLN6OsbwX/87xa8hbLbT8dSGpukrKUu0VyxC9IOeayspaEQi8tc6hGb2mKvutOaTLngI2tTtLdutmlwPIoB2v2AV36UnFZ7ihcLqqjMLFsePJKytQ2w5krKVOQncpQOP/rcIXxvUwTnnNWIKytSuPdrL+DBDrloQ2R3J3fXXgKsl/XERSmEvUmOo1/sg1x3e/t1S3Db8iDjyQNpD9sXj0Tx7V/txLVf2IYnu8fxrs9txEZXPj55cwvq2O8YeZMijQyP42s/3Y47v7ELW0dESsI78SGkRyIn1kMbFayvxH2XlWLroTDrcOq5nQ0ZGhrFV36yHXd8kza5T1Zx9N84F6dTtDfkX0lZCFU8Pw7++cvCCXz8Rp4ZdCMZzqC8vhjXnl6BM6s9+OEjB/FkfxJnNBfBRSYODUbQelo91pa64Q951DOY5zQGsIsrqVOa81TbXD4PKoNOGikqfvcI2qJOLJE3owS9cGVSiHMl5pI33sSdWFzkoVFPYEtfEqfWBpGhRuzvCqOsukA9khH1eNGU51TPZ4qSPNedws2XteCUYpd6Jq2yJIR19X5sax/DqDyoNhMs21fgR01ZEEN9Y9gzMEElimEi5MWmZ7uxZVhdu0F5ZQEuX16s3p7Q2piPRP8Q/pWr5TEq8c4DYZSWhrCytgBL6vMw0j+GA5wBXta4mMTJ8fhNIOBGRp4prCzEdWsrsa7Oh58+cgCPdSewprkYHhqAoeEompbX4bwqN3zUsfLCIM5pDmFv7wSWN+fDLfpMnanOc2A06aScRrGHxn9JYwFK/NQZOisTNHZg3gI62jRj6BqIYDf16hzKSqxnW08E+WV5qMunI8oJqp46E+MEKFc1nutM4OqLm3FWuQd+tre8OIizm0LY3TGKoZg2wHpjIZmEhzpTWxpEpD+MHX0TGBuJYdzvw86t3dg4oB9lKCnLx4aVpWLBsKixCM7hYXz+oU6M0K7sOjiOgqIgVtXnK92P0vDso8Mspnc6qO+dYYRCAayop36xzxMDQyhqrsNb1pZgx8ExOkQuFNMw5TmT2No+zsV3HirzXdixfxhP7YuinLq5gvUsFt3sZT0RNy5bVawmZXnuvzrkwBgNXIBWchnb25jnRtueATyyfxzJoA9nMa+Mu7ZDQ/jRM8NYtqIUaxcVIhCO4ku/ake/N4CLFgU50TuRR/7JbwekvIMdw+iJWPybZzimx28Y7Xa51V3HJHy4/txqnNtSgB3bu/D954ZR1VCMZr88hx5HpLAIb1ieTxtIXaWNOYt8HOcEXkhdqaZNjHNxUGfpZiwygU1cIFbXFaBOnmsPpDESc8DLyXwfdWxVNSdJ6vYuOlkjlMEZNX46ZknqrAvN5W6E4UZlngtO6h+LwzN7R7FidT1etyQEt5dyyqNsFxZhlJPmwWF59It9kX7KPut4fCSCWCiEbU914KkB2jXWubNzAo01+VhWTb2qCeBQD21yVQEaqHfyM4wtdP4nuCA5Y1EJLlxTjjKGPf1sB/a7A1hV6uGEm8Tze8fQzb5v70pizaoynN6Sh559A/jqYz3wlhbh7HovRjNuVIWc7EkG8nOUzQdGEOa88VJKlfPxG2aS8e1Q9qgA16+twpm0Rz9/rB1/6IxhVVMhCugID3AsVy6swuV1friZvjiP+r04Dzs7JrByQb6+A0V7VEN5jbMt/f3jdMAzWMRxUk45eV1ptej2eRzYxfA15T61uNrYEcPqBjpgHOX7u6LIK8lHcwFl7XGjlnLS9iiBjQejuOKiZlxY6YWH9ZcWBnDBgjxsp5zl0ZZpfedpU2MprlwUwkgkjRrayN9s7sfuQWA95+hTaEefo9y+t2UY9Zy3W4rccNFe7D40gkHOr8sWlGB5qQuRJBcmBV6Uudg3LuoS1KcyD+dUVrFl3ygiVI5azm+18lsaXwbjXIi5vEDbgVH0xlOoqQihjPPxpr3jiIi3xUa+6OM3TOLmIi5IXU45/LjhfI4Z8vb55zvwoy0jaGwsQR3tSJgLrE09GdxxaT0WcFzk0UeoKc/DGuqck7zJ83DR5/WigTYrwvl9IhzD8z0TaKgvpHw8CPnSGJ+Ql24AB0aSaK0IIJNIsf8cM4Eg1lX76fQn0ce5YiF9ljEHZUF9oxuCOFc6G2kDT11Thxtagxx3LpQU+LB2QQEGBsZxaIyJZuihmIouzjUxhw8raKvFtgdZfh7niwKxD14Pecg5iG2NyG8EuyPYTJ4VV+VT/wuwuqUQA70j2LR/DB1hzl+nlGBlfQhPP9mJH2wZwOZeLgDqinDawnyU+Vw4tK8PP94+pua2pqAL0Yk4Xhh04PyFQUQps3zOifmUaZjjf0/7CAKVJXjbujL4PU6Ofy9WNBWhJMN29MTVCMnGsT5+I4/eLF5Rgxs5VkYjKRQUhxDvG8QD28dRyLmulXas0JHA07uG0D7moG5yIcMFSSMXgpGkBxesrVC/ddm6rRdPdkbRPRDFcFxeMlCA1lr210t+B/yoIv/kIuqm/bQxlgBGh6KIB/3Y8lQnnulPyDVa9DP/WMKFlRzXS2pDqHAl8PsXBtBP2axbXoIl9OTj4Th+9EQX5159F/+lr7wf/8dvHHSSZ8pCQUK3b9+GK970cRScdzecLvl5zMuEqkI6yz2/0nEPFUWqltWQxDjZMeFHipP5392+GMm+cU4ussp3YGldHjY+uQc/a5MbRPKxmswMcluPRdCJd6rbY+pKiJVGbIO8mkkqlcWf/CBBXxlhCuaV+iRE4lUruBRPw4sP3LEIY11jGKEBlNtKK6gQm55vw6OdKfV4jw3JlaRB6gtzpSp1M+0V5zehcGQMPRwcf9k5oq6eysp3zekN+Oer6/HEI9vxf54YUbcx5cqHUgLunSzYpdrEMtkhabtqmuwkzTEjjbE9f+GaI47iZevZWItn8wXSXKvNwmfRD1H+DK0lbaqCOudHVsxvv2UxQmNh9FIWIstFNQXY+ew+fHdXTPFV0il+Up9E74S/8miKyFOuwMjVRVEI9Z5jlU6uztBpFf1RabSOaH2SKx1Shs6cTLvw7tta4RwcR7/cHmf8ck4qPdva8P3dE0ovbUiPhjjph9MyBqjvTHvRukZUT0TQFZ7AU7tGuPBg2axvxapa/NuNTdj0p134x0cHaMhBnaGWSX9YkLRF67QDPhpo+fHTTCTIrL4xOlKTaWVNIfpKZ031Qbqtw0Vn5MqW8FriRA+lvU52QJwi4Y/6fwkmFsdEMcbaKlbIIJNxyHO5A6Y4wYEhhkvFC09ZppsTgvxQSa4YywUgFqvaZpU02T+5AibtUwkE1m4+ID50CB2P/g+ar/6w4oliZK72s6MSJVDRPHGTYfKRq+6imiJneVxGJr3zL1iAqyrS2NQXV3dQSkrzEertwT//eVDZH7sa0UG505Mgybk4QMq+ZcTOin7pZkkGPR6oHyI4CWLYlM3RrZOSJyaAKzcsxAVFKWztS7JNQAUXE6GBXvzPpjGly9m55Mp4/2iCzg3rsmSqxhnrkkP6hipcIkTvxIba1coVQylMHuVxCT+YRq6mSrtUuyWNUg7dXrEF0h65Q8vhw3Et9iKbH7LX+qdgV2TtsiG96H76R/CFClG07GLdZPXRcVKh2A5lG3gsc5hA5iDNWyfuurEVFdEwHSsZBcAiOlL7n9mDb+0iE5lPypT2iHxFyeUmmzzeoGwFz2W8SF1yhVjbObmKyjrUBKTHDnNM8sIuS/iV4ELh7luXIDTMRQ/tkfR1CR3qvZsP4LeHZA7VOWzI1dHBcIJtIG9Zjroiz/Z5KCDhu4xl1UOWo8cpmyjjW855rNjAY0mjLbLNbwGdbpWfvWGA22qviE7y6SvqonvSW/lfGSsfGeQJFGDTl+/Aohv/AZ78UpXPhnJb+NVp2VbFOLadwhfeURKKl+ouWCAfn3hdA/Yf0FfdxUNfQ2f8f3+7R/0WQnKq2kWuLEP0R0J0X6V9olvkP3mu/BR+dJ8oD3ZIeCTNkf4JH7S+SFa2hzb72isX4vS8JHbRWZQiqzhmvH19+J/N4ypPNsTm9QxPIKnsJsti42ThLQcW6wnhFNvK8lVbSdIu6a/0Re4USBrhA02tgm3LJVAWKDLuRAYyr8k8J/xXY1H0jAZe9Z3xqkpuZC+2fymd7refEcIT+6JKlr5QAGs9EbzzgQ7aGkknHFTSRrh7F4Y2PYC6De+XUl4c0hb2R2yd9Fv6J+0Rnkt3pD16HtfjQGpyi85IM6UPzOsiA6Sd6okL1VmCAWL7lF6yHMk6WQ7P7WQCabME6N+lEdxJmLbH5AwLlbEh7VJ1M17qEfkouUsiweRBDlCOA9v+iJuXJ3DfJz4CP8vxKt2dPZy4t9+QLerWp/RXGEFuiOopbpFEEbRDzsmDpoLrYXUbRgbls1t78Me2GAUnZTCvYiZTkibLkPwMlzA9SUm4Tq8MoNSh8ukMOh3PRbjc2/kEca62vaxX39JM46kXetDp4KqcK+GGiiAaLWqqDKHEB7T1RtQjEaIwpUUBVBU6sXnbEB175pd6HS6UF/owMjSOgZgT7f3yJhAqPuOk6bKXmtVtQ6mSoUqvJFJ2L6YkRwT5N4/ffiN6YPdfK43IXXTEOiVNypvMimdc6jVvYtSFjy/s7MPvdo8rQyMyFt1T8paBrHjLfEynz7W+SD7RJ4lXSeSYpOpRx7oMSW8/UiJ6KGXJWzl8Vv3ifG1pH5Gf3qO5krpSPkVN1Bt5B/4APR1xpCR/cVEQtUVObN0+hA5Owqp71JmyIh/CQxH1bHCn+gGZ5TaRAeJUSGNlHIlxamgowdkt+Vo3pa6KgKqr1A+090UVHxT/pCPMKvyVvtv9Vf2REzkn6X5NjVfJJ2mkfgmTaJt0uVKidS7lqLyqIlWHKk+CxUGReq1wFSbJ5HYvP4rXUpYqUzVVJ1B7vZsPOPq33yiO6iNhEQ9FL7QdsLJaeiI0weOgx6EedZCJuq93BD9+dlg9wqT4zI2wWiZFld8qc1L2ak9eM0zSKV4zWCpSMpQ4nUylV/LgRmslWD+Qx4koTi9U6u/sGsRDB1M4a3ERmspDlv4FuA+hptiDru6IuuKnIHOXEjYL4c4uX8adhKv2MIm0SVcnG91upXtWMUpvrTIlTPRM2q50mMfqrrKUZZVn1yF90GVIJomRQ6vQLIg8cr39xpaTyk9IfSIn1QaeCyelLqlX5JRPZ0Aek5MFyrZdPXhwT5QLHM1v3SbZM4+VX0pQcpIjiVNhUo9OL/XofHLCCJWWxHMJknp1njTtkRshTtny+JzEb9rRh10JH9a2FGbZIi0vNYf1RDjvStm6MVKX6p8UaPFIWK7qYRh3DNYyk/apumXPcNU+FiJ7OdIMovxYgLRX0gvUIx6qLu7JDHlUQvFY1Ucn7kXefiMpNESmMl6kn7qNWrS2Put+yIpVLkyIfU7S0374mW481xtXbZHmTspCl8gtWyrtU2VIuK5RjR1JJOf8SpzwSILsOUYcUXuBLYll+R1QY0brwsFDQ3j4UArnqjEjttoaNyR5u1B71zho8q2ypRThmy5fyVo+DLassWqHQI0Bi+eK5fzYiyaVbDKdHc4yVLjup91/gcRJHbpehksfyVh2gU6oW19MZV/C4Qi+9VgvRhih5iSrDinzWN9+o/OK3FgXN/K4mT1mVVtVe+RcV6L6q8IYKryx8nGn0kgySWmnE35JrOon+2OXI1BHLEP/XsUKUPHCpyy+SgQTTMqcJOl0WRbJ7khguuP99hsu9oRVh0NCZ+1KvQ2WKawRxuhKraplJ/3iXpgjz03JvxvqCH01QlZGGloBrcNpUAwXMF4VKYzmgRKU5FOhDLeyC4OnIMLTR/rqv84jEGWVIxHstCwCBohg7LrEiZaVpVtW8Fa9Ep5iuBgxgYpTR7oJVqtUu2SQqQDJq5RMpzl2nARX6tWexjWLAZonNqMs3vBU+K4mIH2q73yIXFRSFaJj5JCZdDbhsT5XusGvHpwSKJiqV6CS6kOVXqW0ktp3jKyC1Wpe0ki8KlJgpZW2qStsctWUgXJlQfKqKwoSLoXw3NYlya+vAuooG7ZuST3KCIpV0xGTkP4oPqgwibcjrb0VNL3/1jkhddjHEupgm1VWK5/stSjs9Horeez2WYGEXc5UvN4TStElRTZfdQqr8VnlzH0c/ZV6vdHRqueTx2LnRB7K3gkPZE+yn5lXBTLcvrIvk9VkFRIlG5WOu8kIC3Z2xXcpT8vCzqdyqfKscIEUR0VVV6t0CMNEv2SBoaInoYqXOHWVXdeh46UQXY+GLl+11a6HsI90H/jVA5XFSF5dhgrR0QqqrdJmO1CKVGBalS073MolYTMg5eS6Up9VoFVOVhlie6xzqUucVDV2VQj3HIP2nUUJtPulNpJI8qhwHSx7HaBrzoaKsyB1SYAOs+XGL+uX+co6pQoq7tBGqKCpQqz86k6OBRXFPknN9rHymAi1aFJHknWGfljQorLzW6kteWl+W+VaWxWuOiLRdumAJ5D3ElfqRdZ6bAmr9Lk61SVPhnP+pY1VLoWKl6u6cqeSJ7qxKr1qIb9WE620amft7YDpPc6O1zGTqVW3pK3yqKJVPTcyZqRNVikqUKeVY33XQcPmh46TwuSMZVt5BHLhc5JvkoSHU9Ez5GDBDpuMs8pXxasNT1WZsgyz4gnpi91ulYVRcoWc6qVPshDuOrYr9dOhWyZ7vdWY6sdUGwQ6lP1RjJKmMMQ6lu0kH60cyiYJm+0CZkClYxrhkCrcViSrJtunnMRU1NQ+F07AlfqcpQljjgupnkv/Za+PFbKYIXFONxXb4yS5SBwA7LidQ+WV9FaebP7Z5Sr+W+c6jMesXwlStUPidJhNVjIFedxAbj3KYwLqUQFqrDhi0iZxyKcRw7W+sBwRtORlOh1mtZvH8kov3acs54w0Va3Or0LUXvLp8+x2vmrI/liD0YbmCSF7kk6j+W7LS3isHFmVXiWWIznQhzqXOlUqkRVnx2ia/skOFaitlEdyUheUfK29ODOiH3ZYts7o25zaYEgZom9eplPBDNA1sE90AuRPYGTC1WxQkbZ6TPJJ1U89tPufXZe6Xc+vZBEzpPcqt/5YPFRQ6bLOiexjSWCnz97bJQr0mT6346c+h8frPSmrHWor/ZWwrDYdpiMnA6mPxsxjkbkKEV7Ye3EORba0jVrWKnIyveabClJhin8kK2gKdhrFd73PzsfGWUf6Y8eJc+rN0i+xf/LYiNJTS+eFtM5b0x43sp8skSf6WJ8LrFomyYZOb4fIsR3GU6scGxKuK9R5pj7EZL6pMEUz5fFilPXRtierjKxz1V9rHrDHpJrDpB+qfZLOymP1QfVHhU/t7TJnQsVZNFkeT6Qd2nMV26HlIfOYyELNYbQnWndIYi+FLHmpNktZ0h4hXbquR/VPh+uYqXZNHU1hen4rteS18tuYjBOy4ifDpM4XIQU2mGeKT3YZVoza2zyVcNVPL4l9F79C1tly0U1DlaIPrTJ0HzSmpcohk+x4DV3x5Bl5L4/pTM4DymcQ2ci5NWYsfZGwaVZa+ivHk20lVBumPpoPOofd58lztdX77I8dZu+n9UvKUP2Xj1WgFab0ytJppd9sL4MUZsromOiwjyoxa6uRHT89nMRy7ObqMrmXNusAi+REwhmv0siiRaW0zvVHQdIws4q1j9Xeip9MbYdZx1LOMdBsI6dTLwo3X4ibnOdKAfVG94lEFlIR3VwZMYajOuRzI9/vRp6fg5zxPiqpPJas5CMZ7HKptdl1zCRuptIamjPEzWFhr5S4OSzspYgba6+NgoJ12UjC5Xl4Rql4CRU9FF9czlU+6q2QPAKXR30NkeRPhkSfFbhjSdRb2eo8L0XcHBZmaG4RN4eFvVzi5rCwI5EGj0Wb1Jcb6piPzpCyj0wjOiivm82n7sozqrZdFY2UElRZ6kggCsqzE0TcHBY228TNYWF/FZKP5cnJcYBzmsxlcmVe/lQujwKj36jSBigr7YBZ+VQZ1pk6sMOOhnSZR0vcvOj5TOLmsLBXQtwcVdisEz/03PSekMWd36vPxIHPExlxsaFkxsWx/FhebopIvEol3+zyXsIX+WsQN4pyxZ1Qks+kF6/vIPhF+S2jJP6z8FyujssiVx5jFE9d++OSTy6MWGUdBXHzoudHS7MN0aWTEsIscXrINvWRZ7GaFpTho9c3Y1W5H5ec04L/vmsJ7jq3Hv/3HavwttX5aGgqw/uvbsGSIjpMStCyMTCYHYhOynUY/XGqf1c9Z00tPryhFmU0NsXF+bhzQwu+dFcrlvhEZy0w35LWCrzrhsX42h2teP26arz32mZcUu+374pnYfaNhMGrC6KdCuJAyDHtYE1TOT5800K0Fntx6XkL8fU7F+Nvzm/EV961Cm89vRBLFpTgnqsasLKYTonOraBKOA4Tl0E2aARoPy5aW4t7L69FQdCHd1y7DI/cdxYe++jp+Mj5JcphvOLserz5nEr1VhqVR9mOwwyIwWxCHEXlZmXgLQjibzY043XLi1BRXYIv3L0aj923Dg+/dxWuXBSA0+fFO+h/XNMqvx+QMSOyMWPnqGGxSpx0f3Ee3kleXrkwRPsjfMzA4/XjfW9YjnesLYQvFMTd1yzA5c1+9VtIyXuycDqnU5/rFsF8JBkTspdnC5curcFnLqnAj3/fhn0TPtx1UTkm+kfwpd/sxbf2JHDVugoc3NqD+3fF8KlbWrG0gIuCGeUZMvTKiTpJI5NIO3DFxQtxd6sL//yrdvTCg8tOq8DVp5ajPkCHX9shpnfh/LNb8G9XV+HZp/fjtq9uw1cfPoh/e6gXt163DFc1uPWYlQ/LVZ/D6jRk6BiIH5kZ1RufeF67qBr/dU0V7v/VHuxPBvCWC0sRpu388oN78f3dCVxwSik6d/Xhgb1JvP+GRVier5/vn/xkl21odkk+Theuu3Qx7mx04PO/OoTiqiD+/NgeXPK5Z/HQQBoXr6tFiyOFn/zxIAaLy/Chy6pQ6LIfPNAXv3KWbeiVk2WbPcEgPnpjKzzdA/jmc2PgGhmf/spzeN3Xd6OTzuZraftdIxF8gfK78OKleMMSv3IyxR/NWa6hnCTc9hbk4XOva8XAzk71B1nyliavN4g7rmrCVc1cMNGuDQ+N48sPdeO6K5fhhiavzi9jYUZ5J4JmGzmdevu2wLwm9dF98Xi9uHZtBYa6h7GzP4nhsTB+/Hgvgi2V+MZ7TsObmhz49PfbEPMAB3b3oyOvCG88owQ+5lX8UGR9suswZOhYyFYmjuO8whBuP7MIj2wZwLi8CSkZx/0PHsAT3RP6bRhCTFdVXYh3XlCJRDSNi9Y140u3tmBJsRvD/eN4vDeFN11Uj5CkNTpqaJZoOly4dX0dujoGsXcgifHxMH745wEUtVTj6+86FbfWA//5m3YMpoF9ewfQ7adery2FrEpZmipB9rnqMfTKSWxJRUUhXrcqH49sHUI0lcb+fUN4vn8CfX1RvNAVw762IXSqBVoaT27px4Ll1Ti7IaCe9bOlnatsQ7NAlI+8wGDNKVU4pTCBh3eOke0J/GXzENqjSezdP4oD40lsahtE1OVEdDyK3x8M442XNKLCSyeTBeQs19DhxI/8iPf8M2rR7I7g0X36j0g9Hg/Wn1KIXXtHMCZzrUoLjA2F8Wh3HPdsaID8C4IqYWaZJ4BmGyft4zcKwjAaMn8ohNPKXOjuDyMi4QyLJJJ4bkcfnu5Lo6o4gMtXFOtVcSqBPf0pLKovRKF+AFEZTgOD2URZeREW+9JoG4wpPeWUy7289UnUTSucuEW1lQVo8iXxrd/txxcf6kXxgkrce2k1gpwYdvTEUVZThBafXGHQOYyqGrxSqMlGpj1+nYEQ1tZ60dszpl55KFe5IqkkntnWg+cHMqguDWL9kkL1rL28KnDvUAYLawtR6tSaqMoRGMU8LpAXCVSX5aPOk8LB4ZiyA2ra40FNvdiYCXzul92Q/zkS9I9FMZT2YnVVSL3i0ViM44+Uw4NVtSG4yPveuPWmGhkWGSfOXFmGvp3d+PrTY7J+Vg7Z7q4JBCoKsDz/5HbPjgeSTi9Orw8iPhTBQCIFl9uNDWdWIT0whkEaMPn9TyjgQsgtJimNHV1xFNQWYZnfmoNPArwqtEa9Xizj0K8Uo9yKS4vxtnPL0be/F5//3x34RVcKF6yuQp2L6zrGy58fyOsR5fakgj0IhQwMZgHyR03yx5aybpQraKJq8grL4Zi8es0BHqqrDNGJhPo3xkKvE8ODI9gzmkHQ6YKbkW6OXslrvWGMEAWdPDEweFnQt4QtPaLtlD+PEoeD/jyKy0rwjrPK0L6nG//0gx34TWcaZy+vQGNAJkXaWKaT1xHLn8EYnBiod2hbtkSQToqcinDr6nx859cH0J3yYEV9QF20EqdG3r6VkAmO6fXyzcpoMPtQJlleQyvH6sQaWg6csrwSp+XF8NU/dKOoPA91eS5l89Ubyzju5F+cDY4FtEDkteIb50bhtrMgiPXLS3HnhoX4yFW1KPa7cN6pdbi42qfsmbyOVy7yyv9HnCzI6dRnP+8zb8n6yECKhcP4U2cCVVUh5FOIkfA4Hj4wgdVLqnHVihKUIYFfPtmBjhTZ4fVjWYUTm/YOYFj+aUH4IZ9cdRgydCyklUmht28Yz406sbg8SENEh8jjwTkrKrCyyA2314f1p5WhKd+BXXv78c2nh7D2zFpccVolCsfH8M0nOjHicGMFDVPHvgHslX8EIqQOe2/I0MslpUPWJjMRxh/2RlFfVage8xLb+cihGM5cUYMrlxajKB3Hbzd240AU8Pl9WFwEbNk7jOGMfjuTLDpVuerY0GyTg/zt6B3GzrATi8rkIYIM6urL8OmbF+LSJSV4741L8O9vWIgFbvmn7QwqioIoTkfxdGdY/YMsizCyOZ7Ej4v+xdP7RxHLC6Ah4Katd+Hi1XX4yNV1uGBlFT57+wrcd2k13KkkUzuxrNqPofYhbAlrrz5nuYYOI7kI687E8ae9o3AX56Ha50RyaAz/eP82/N23t+OTP+9A19gEHnq2HQ91xekaurCyxo/u3QPYHrfsXY5yjzfNNk7sn0+dQNjdkqsQ8oOv4rpSfOLySvzsoX106CPq3+paqwLgGONEFcfO7igcbjfOXteEuxdl8MEfHEB7hINKra5F3nIdisf6dB5gnv/51MkKykEN5rQDrafV4b7VAbzv+/vQPeHAUhpzuVkkf3wm7//t6g2jPyY6CDRV5KE44EB/fxgHhtNobC3Fpy6vxdd+vBWP96SUmoqElXpaOmvw18NR//nUXIRctaIOic0T+EuL8MXXNuAbv9iBP7bHuOj0YnFlQL0uLsxJck9/jH100XY24I4WFz794320ncyo+mvbHZ7Mk/6Lnc/551NzclyJPXHilDX1eM8SFz744zYk/X5U07+Xf2iVeLmTd6gngozPizte04qa4R780+97EEnLu7gI+xL/XALb/GJ/PjVfINOukoLbg7teswC1w/343OMDaCwLwqu1SiWYiCXQ1i+PUxbik9c14cHfbsfP98XVM/Vw5Lz2OudxTH8+NQsQP09pss+P99ywEMl9HfjSX4Yg/8Mug9hNGTSXeTE+GkXHOOfQ5lJ8fEMtvvvANjzclWAS8vl4s5qy/Kv8+dTJgMkfIciXjBvsHMQnHziIpctqcEaVH+lkEjs7x/H8wXHsGuAyjU7UKStqcGYghvd8bz8OKodeCtI0+RycgcHLhWXB5V8QxU7v3nQIn/zjIG67oA4V9OZ3HBrHVurkju4IXuDxQJxGSl4rSN070BdWutoeTqO0ugh3nVaIz3xnC/7YTZMlk/KkvhslNXiFUPokqqR1KtY3SJu4F6tX1+G0ctrORBI7lO0cw+6hOJKcRk5ZUYVTAnF87Ad7cCBMRZeZRVTR1kk5Nph90HGXl98+v7Edn39iFLetrwNGonihM4odXRHKKYrdtCfRjBs3nV+P7h3t+MzDvYjQgRG7IX7/8bhaaDAdjsQEvv6L3dgS8+PmVUU4oOx8mDIKYydp/2Ac/sIQ3nZeBb78w634yZ4JJZuT2EWbddjzXyYWxb//eBf6fAW4ZnkhXOLsk5kp2q3d5HknHfry8kLcvroQ//K9rfhdR1Jy20useY+T9kr9YZBeklLyP9mUvfz5gJpsbLDD8it1SSbPHU7GZSWZXzBX6uccbBFQp9ShbEjyF+ZO+ZHUpM69iNKJHK3fiHjkNyKSdN7q6MmLeX2lfiYs25GSxxFpN7XtVEEWaDuTcvNb4iwnZB77IuImz58r9SIeLR9pZZL+ifx2TF3cleaqKHkESr8ZRJ7XVhcBLNh5lUM0l8BmnQxX6jX/ZacP5GqyDKNcV2dFFiIj+cdZSS16qGQ4x0RztDjRV+oV00jqjUHcy2t15S6VR3itwu1EhCUHN8eCBKs4nmePjeMCc6V+tpFR/7SnJqXDID8gkr/TlmdBDQxmH2LYlXEX4yFkhcpfiE869C9pwRlPHRUdTrMQe7IwMDi+oH3kBCSm8zCd44zo5MSk7aql3AYnBNopn7Id4sCIKVHBlhjUQwn8utRfy9p5NOy7MQbHH+ofv8lr28mcOYzsOP0aSyvQ4Nhg801UnfZILnxNwuK3uPEOhqs4SS9pdcRJgVeXUy/Cs6Qnhi7buCkwTiYsM6AMjgcmJ1DRL0vHxMDIDCyqqCbfo4IuQxknOTAwOI7Qujk5I+bEpCU16njiQebbtkBfjeR5lhwmbYQISRxL+9zgxMJmu/I7lNCmYA0gkZ88nqkijZheATTz1G8SMml1LEyeGgtpK05OGCZ7SwbzHTmdevXGguwe2ofcy+0jrZTzESLQoxwpx5B0LkEtVIREj0VMekaeTgZzB9SxSUf/aGClU3kM5hYmxxg3WWNQvbJ0PsPSNbUolc9M3bNPVThpvuqmiGlq/tc7ynFyLrR2cwlKJlmzuOL8TPbb57ZoZsbPQSiuC79tnh/peK4jm98W/7W9F9Jhiiw/XpEg+3g+QslHd0CZP1tmx1NuFs80f3WQggwQCZI7iRIu5JQfiWfZMu4Ps2vHA0qpZS/f48OMnM/Ua6fege3btuHKt9yHogveDafLq+NUjOAEMMDgmCHi1JLJYHTPk0gmJlC6/CIVbmBgcDyhLLWykfGhDhz649ex4NoPI6MmkJzXTwzmEpSJpP2kvLr+8gP4gvkoWnGJlp3EnYhJ30CD85U7WIDnv3gLWm/6DLz5ZdNcDu2HGHnMWVB+4e5dGHj+p6i/4u+NrGzQhvRv+wNe2xrBfZ/8CALqmXqXFTk7yP1DWYak+dm9Zx+uuPFOxPJakXG4LMEcntxgbkG79RkkxrqRScThLWlU5wIztAwMjg+yLWM6Po5Ix/MINa5TTmL2yDNjcG4iW37Rnu1wBQrhLW6gMNOMlMuNMgOa+e+Ewe3F0Jafo2DpZXA6PZSDvKXEjJ/5ABklyfAAJgb2IdRwug6cIblXoxyFL4mhA3jL6y7BBz/4fgTcs/9D2SNcqec6mByPRON44ok/o7+vDwkrTmDM2tyGLZ+00420TEaplPqB8HTXwsDAYDYh4065fQ75IxQXMjTWaS6qZdypN2pZMGNwLkNeEJlGhrYzQ6cyk5iAkzbU2M4TC1lCydzl8Pg5rsj5ZIIy0HIwmB9IOZzqLmUmmZQ/pFY3ul7tY0jmCHk71dKVZ6Cpvgb5fueJuVIvz81LYDyVRiyexkgsqf5WWiW0UxsLN2chEhWxJlNalvJmFadT3vxDkygDy8jOwGD2oWyjOIX69bjyqlI5l7fCCKlxZ8benIWeCfULFER0ablCL7KjzCblZ3BCoG6OZOQ1nCmOJ85f5L16/SCFMCkH85alOYt0mnaQMkyl6YQQSnakqbe8UXav0vEkLrzP7UAo4FFX6n0et46YJRzxPfUGBgYGBgYGBgYGBvMD5m6WgYGBgYGBgYGBwTyHceoNDAwMDAwMDAwM5jmMU29gYGBgYGBgYGAwz2GcegMDAwMDAwMDA4N5DuPUGxgYGBgYGBgYGMxzGKfewMDAwMDAwMDAYJ7DOPUGBgYGBgYGBgYG8xzGqTcwMDAwMDAwMDCY5zBOvYGBgYGBgYGBgcE8h3HqDQwMDAwMDAwMDOY5jFNvYGBgYGBgYGBgMM9hnHoDAwMDAwMDAwODeQ7j1BsYGBgYGBgYGBjMcxin3sDAwMDAwMDAwGCewzj1BgYGBgYGBgYGBvMcxqk3MDAwMDAwMDAwmNcA/h/wYwey7dsOVAAAAABJRU5ErkJggg==;" vertex="1" parent="1">
          <mxGeometry x="506.5" y="1107" width="891.31" height="73" as="geometry" />
        </mxCell>
      </root>
    </mxGraphModel>
  </diagram>
</mxfile>
